<svg width="22" height="21" viewBox="0 0 22 21" fill="none" xmlns="http://www.w3.org/2000/svg">
<path d="M6.96031 2.64339L12.4161 5.79339C12.8472 6.04179 13.3971 5.8942 13.6446 5.46399C13.8939 5.03379 13.7463 4.48299 13.3161 4.23549L7.86031 1.08549C7.42921 0.837095 6.87931 0.984695 6.63091 1.41399C6.38251 1.84329 6.53011 2.39409 6.96031 2.64339ZM11.967 6.57279L6.51121 3.42279L3.36121 8.87859L8.81701 12.0286L11.967 6.57279ZM2.01031 11.2168L7.46611 14.3668C7.89631 14.6152 8.44711 14.4676 8.69461 14.0374C8.94211 13.6072 8.79541 13.0564 8.36611 12.8089L2.91031 9.65889C2.47921 9.41049 1.92931 9.55809 1.68091 9.98739C1.43161 10.4176 1.58011 10.9684 2.01031 11.2168ZM20.8104 13.7566L10.842 8.52129L9.94201 10.0801L19.4604 16.0948C20.1057 16.4674 20.9319 16.2469 21.3045 15.6007C21.6771 14.9545 21.4557 14.1292 20.8104 13.7566ZM10.9293 18.3007C10.9293 17.803 10.5261 17.4007 10.0293 17.4007H1.92931C1.43161 17.4007 1.02931 17.803 1.02931 18.3007C1.02931 18.7975 1.02931 19.2007 1.02931 19.2007L0.0996094 19.1818L0.129309 20.1007H11.8293L11.8716 19.2385L10.986 19.2007C10.986 19.2007 10.9293 18.7975 10.9293 18.3007Z" fill="white"/>
</svg>
