<svg width="24" height="24" viewBox="0 0 24 24" fill="none" xmlns="http://www.w3.org/2000/svg">
<path d="M21.8137 19.1155H2.18807C1.40057 19.1155 0.757446 18.4724 0.757446 17.6849V6.3149C0.757446 5.5274 1.40057 4.88428 2.18807 4.88428H21.8137C22.6012 4.88428 23.2443 5.5274 23.2443 6.3149V17.6849C23.2443 18.4724 22.6012 19.1155 21.8137 19.1155Z" fill="#FFC107"/>
<path d="M0.755615 7.29004H23.2462V10.3032H0.755615V7.29004Z" fill="#424242"/>
<path d="M21.4125 13.9012H2.60064C2.41689 13.9012 2.26501 13.7512 2.26501 13.5656V11.9887C2.26501 11.805 2.41501 11.6531 2.60064 11.6531H21.4125C21.5963 11.6531 21.7481 11.8031 21.7481 11.9887V13.5656C21.7463 13.7493 21.5963 13.9012 21.4125 13.9012Z" fill="white"/>
<path d="M4.49622 13.217C4.60122 13.0145 4.62934 12.7782 4.72309 12.5701C4.81684 12.362 5.02122 12.1688 5.24622 12.2045C5.45434 12.2382 5.58372 12.4463 5.66059 12.6413C5.76747 12.9132 5.82559 13.2038 5.83309 13.4963C5.83497 13.5563 5.83122 13.622 5.79184 13.6688C5.72247 13.7476 5.57997 13.7082 5.52559 13.6182C5.47122 13.5282 5.48434 13.4138 5.50872 13.3107C5.62497 12.8326 5.99997 12.4257 6.46684 12.272C6.51559 12.2551 6.56622 12.242 6.61684 12.2513C6.72559 12.272 6.78559 12.3845 6.83434 12.482C6.94872 12.7051 7.08747 12.917 7.24684 13.1101C7.31059 13.1888 7.38372 13.2657 7.48122 13.2957C7.80184 13.3895 7.98747 12.917 8.29684 12.7913C8.66809 12.6413 9.02997 13.0332 9.42372 13.1063C9.99934 13.2132 10.305 12.7651 10.8093 12.6507C10.8768 12.6357 10.95 12.6263 11.0175 12.6451C11.1412 12.6807 11.2181 12.7988 11.2912 12.9057C11.4618 13.157 11.7056 13.4045 12.0093 13.4063C12.2025 13.4082 12.3806 13.3088 12.5568 13.2245C13.1812 12.9263 13.9181 12.8026 14.5706 13.0313" stroke="#424242" stroke-width="0.25" stroke-miterlimit="10" stroke-linecap="round" stroke-linejoin="round"/>
</svg>
