<svg width="20" height="20" viewBox="0 0 20 20" fill="none" xmlns="http://www.w3.org/2000/svg">
<path d="M17.6008 18.0008H3.20083C2.87283 18.0008 2.60083 17.7288 2.60083 17.4008C2.60083 17.0728 2.87283 16.8008 3.20083 16.8008H17.6008C17.9288 16.8008 18.2008 17.0728 18.2008 17.4008C18.2008 17.7288 17.9288 18.0008 17.6008 18.0008Z" fill="#3F175F"/>
<path d="M16.0172 3.18588C14.4652 1.63388 12.9452 1.59388 11.3532 3.18588L10.3852 4.15388C10.3052 4.23388 10.2732 4.36188 10.3052 4.47388C10.9132 6.59388 12.6092 8.28988 14.7292 8.89787C14.7612 8.90587 14.7932 8.91387 14.8252 8.91387C14.9132 8.91387 14.9932 8.88187 15.0572 8.81787L16.0172 7.84988C16.8092 7.06588 17.1932 6.30588 17.1932 5.53788C17.2012 4.74588 16.8172 3.97788 16.0172 3.18588Z" fill="#3F175F"/>
<path d="M13.2875 9.62451C13.0555 9.51251 12.8315 9.40051 12.6155 9.27251C12.4395 9.16851 12.2715 9.05651 12.1035 8.93651C11.9675 8.84851 11.8075 8.72051 11.6555 8.59251C11.6395 8.58451 11.5835 8.53651 11.5195 8.47251C11.2555 8.24849 10.9595 7.96049 10.6955 7.64049C10.6715 7.62449 10.6315 7.56849 10.5755 7.49649C10.4955 7.40049 10.3595 7.24049 10.2395 7.05649C10.1435 6.93649 10.0315 6.76049 9.92753 6.58449C9.79953 6.36849 9.68753 6.15249 9.57553 5.92849C9.55857 5.89218 9.54217 5.85604 9.52633 5.82012C9.40825 5.55347 9.06049 5.47551 8.85433 5.68172L4.27155 10.2645C4.16755 10.3685 4.07155 10.5685 4.04755 10.7045L3.61555 13.7685C3.53555 14.3125 3.68755 14.8245 4.02355 15.1685C4.31155 15.4485 4.71155 15.6005 5.14355 15.6005C5.23955 15.6005 5.33555 15.5925 5.43155 15.5765L8.50355 15.1445C8.64755 15.1205 8.84753 15.0245 8.94353 14.9205L13.5206 10.3435C13.7283 10.1358 13.6499 9.77947 13.3799 9.66419C13.3495 9.65123 13.3187 9.63795 13.2875 9.62451Z" fill="#3F175F"/>
</svg>
