<svg width="25" height="25" viewBox="0 0 25 25" fill="none" xmlns="http://www.w3.org/2000/svg">
<path d="M20.6016 4.6001H4.60156C3.49699 4.6001 2.60156 5.49553 2.60156 6.6001V18.6001C2.60156 19.7047 3.49699 20.6001 4.60156 20.6001H20.6016C21.7061 20.6001 22.6016 19.7047 22.6016 18.6001V6.6001C22.6016 5.49553 21.7061 4.6001 20.6016 4.6001Z" fill="#25A5B4"/>
<path d="M20.6016 4.6001H4.60156C4.07113 4.6001 3.56242 4.81081 3.18735 5.18588C2.81228 5.56096 2.60156 6.06966 2.60156 6.6001V8.6001C2.60187 8.77729 2.64925 8.95123 2.73886 9.10409C2.82847 9.25696 2.9571 9.38327 3.11156 9.4701L12.1116 14.4701C12.2636 14.5579 12.436 14.6041 12.6116 14.6041C12.7871 14.6041 12.9595 14.5579 13.1116 14.4701L22.1116 9.4701C22.2623 9.38073 22.3869 9.25332 22.4729 9.10063C22.5589 8.94794 22.6033 8.77533 22.6016 8.6001V6.6001C22.6016 6.06966 22.3908 5.56096 22.0158 5.18588C21.6407 4.81081 21.132 4.6001 20.6016 4.6001Z" fill="#3F175F"/>
</svg>
