<svg width="24" height="24" viewBox="0 0 24 24" fill="none" xmlns="http://www.w3.org/2000/svg">
<path d="M22.8116 18.337C20.4116 17.0738 18.576 16.373 16.946 16.0958L17.1236 15.8518C17.1932 15.7562 17.2168 15.6346 17.188 15.5198L16.8168 14.0346C17.8116 12.6314 18.4 10.8786 18.4 9.21662V6.41663C18.4 2.88779 15.5288 0.0166016 12 0.0166016C8.4712 0.0166016 5.50002 2.88779 5.50002 6.41659V9.21657C5.50002 10.8786 6.18844 12.6314 7.18322 14.0346L6.81202 15.5198C6.78323 15.6346 6.80681 15.7561 6.87642 15.8518L7.05403 16.0958C5.42405 16.373 3.58842 17.0738 1.18842 18.3369C0.455578 18.7226 0 19.477 0 20.3066V23.5834C0 23.8046 0.179203 23.9834 0.399984 23.9834H9.99998H10.0004L13.9812 23.9798C13.9876 23.9802 13.9936 23.9834 14 23.9834H23.6C23.8207 23.9834 24 23.8046 24 23.5834V20.3066C24 19.477 23.5444 18.7226 22.8116 18.337ZM6.39998 9.21662V6.41663C6.39998 3.32865 8.91197 0.816617 12 0.816617C15.088 0.816617 17.6 3.3286 17.6 6.41659V9.21657C17.6 11.0178 16.9628 12.603 16.0204 13.7918C16.006 13.8054 15.988 13.8142 15.976 13.8294C15.8385 14.0054 15.696 14.1714 15.5492 14.3274C15.5484 14.3281 15.5476 14.3289 15.5468 14.3297C15.45 14.433 15.3484 14.5246 15.2481 14.6185C14.2705 15.4997 13.1089 16.0165 12 16.0165C10.8913 16.0165 9.72966 15.4997 8.75203 14.6185C8.65163 14.5246 8.55005 14.433 8.45325 14.3297C8.45245 14.3289 8.45166 14.3281 8.45086 14.3274C8.30405 14.1714 8.16164 14.0054 8.02406 13.8294C8.01206 13.8142 7.99406 13.8054 7.97967 13.7918C7.0372 12.603 6.39998 11.0178 6.39998 9.21662ZM12.9844 19.6166H11.0156L12 17.4014L12.9844 19.6166ZM7.63322 15.5322L7.8128 14.8146C7.81402 14.8158 7.81481 14.8166 7.81598 14.8178C8.78241 15.869 10.0124 16.6098 11.3992 16.7782C11.3996 16.7782 11.4004 16.7786 11.4012 16.7786L10.316 19.2211L7.63322 15.5322ZM10.4476 23.183L10.7576 20.4166H13.2424L13.2708 20.6698L13.5524 23.1802L10.4476 23.183ZM13.684 19.221L12.5988 16.7786C12.5992 16.7786 12.6 16.7782 12.6008 16.7782C13.9876 16.6097 15.2176 15.869 16.184 14.8178L16.1872 14.8146L16.3664 15.5322L13.684 19.221Z" fill="#2463EB"/>
</svg>
