<svg width="25" height="25" viewBox="0 0 25 25" fill="none" xmlns="http://www.w3.org/2000/svg">
<path d="M13.2001 3.7998C9.55525 3.7998 6.6001 6.62063 6.6001 10.0998C6.6001 11.4698 7.07062 12.7269 7.85272 13.7564C7.86675 13.7811 7.86895 13.8087 7.8849 13.8323L12.2849 20.1323C12.4889 20.4245 12.8327 20.5998 13.2001 20.5998C13.5675 20.5998 13.9112 20.4245 14.1153 20.1323L18.5153 13.8323C18.5315 13.8087 18.5334 13.7811 18.5475 13.7564C19.3296 12.7269 19.8001 11.4698 19.8001 10.0998C19.8001 6.62063 16.8449 3.7998 13.2001 3.7998ZM13.2001 12.1998C11.9851 12.1998 11.0001 11.2595 11.0001 10.0998C11.0001 8.94008 11.9851 7.9998 13.2001 7.9998C14.415 7.9998 15.4001 8.94008 15.4001 10.0998C15.4001 11.2595 14.415 12.1998 13.2001 12.1998Z" fill="#25A5B4"/>
</svg>
