<svg width="24" height="32" viewBox="0 0 24 32" fill="none" xmlns="http://www.w3.org/2000/svg">
<path d="M12.1227 0.012207C5.6523 0.012207 0.40625 5.25825 0.40625 11.7287C0.40625 14.2765 1.24154 16.6144 2.62994 18.5291C2.65483 18.575 2.65874 18.6263 2.68705 18.6702L10.498 30.3867C10.8603 30.93 11.4705 31.2561 12.1227 31.2561C12.7749 31.2561 13.3852 30.93 13.7474 30.3867L21.5584 18.6702C21.5872 18.6263 21.5906 18.575 21.6155 18.5291C23.0039 16.6144 23.8392 14.2765 23.8392 11.7287C23.8392 5.25825 18.5931 0.012207 12.1227 0.012207ZM12.1227 15.6342C9.96591 15.6342 8.21723 13.8855 8.21723 11.7287C8.21723 9.57187 9.96591 7.82318 12.1227 7.82318C14.2795 7.82318 16.0282 9.57187 16.0282 11.7287C16.0282 13.8855 14.2795 15.6342 12.1227 15.6342Z" fill="#3F175F"/>
</svg>
