<svg width="23" height="23" viewBox="0 0 23 23" fill="none" xmlns="http://www.w3.org/2000/svg">
<path fillRule="evenodd" clipRule="evenodd" d="M1.49646 0.636952C1.04708 0.478953 0.554704 0.715175 0.396717 1.16455C0.238719 1.61393 0.47494 2.10631 0.924314 2.26429L1.22471 2.36991C1.99246 2.63984 2.49702 2.81872 2.8683 3.00089C3.217 3.17199 3.37072 3.31048 3.47199 3.45867C3.57579 3.61058 3.65594 3.81921 3.70117 4.23706C3.74851 4.6743 3.74968 5.24379 3.74968 6.09474V9.08667H21.8325C22.2126 7.18049 22.391 6.21215 21.8925 5.56431C21.3821 4.90067 19.6377 4.90067 17.7001 4.90067H5.4661C5.45841 4.58979 5.44383 4.30696 5.41616 4.05143C5.35437 3.48059 5.2205 2.95996 4.89622 2.48543C4.56941 2.00719 4.13488 1.7009 3.62816 1.45227C3.15426 1.21974 2.55208 1.00805 1.84307 0.758806L1.49646 0.636952Z" fill="#25A5B4"/>
<path opacity="0.5" d="M21.2299 12.0156L21.8047 9.2271L21.8328 9.08594H3.75C3.75 12.4688 3.82273 13.5851 4.81909 14.6361C5.81545 15.6869 7.41906 15.6869 10.6263 15.6869H16.7246C18.5198 15.6869 19.4174 15.6869 20.0518 15.1699C20.6864 14.6529 20.8675 13.7737 21.2299 12.0156Z" fill="#25A5B4"/>
<path d="M6.62539 18.6992C7.57809 18.6992 8.35039 19.4716 8.35039 20.4242C8.35039 21.3769 7.57809 22.1492 6.62539 22.1492C5.6727 22.1492 4.90039 21.3769 4.90039 20.4242C4.90039 19.4716 5.6727 18.6992 6.62539 18.6992Z" fill="#25A5B4"/>
<path d="M16.975 18.6992C17.9277 18.6992 18.7 19.4714 18.7 20.4242C18.7 21.3769 17.9277 22.1492 16.975 22.1492C16.0223 22.1492 15.25 21.3769 15.25 20.4242C15.25 19.4714 16.0223 18.6992 16.975 18.6992Z" fill="#25A5B4"/>
</svg>
