<svg width="23" height="23" viewBox="0 0 23 23" fill="none" xmlns="http://www.w3.org/2000/svg">
<path fill-rule="evenodd" clip-rule="evenodd" d="M9.99608 6.23882L9.40117 5.1728C8.59044 3.72013 6.55323 3.54857 5.27636 4.82544C4.5091 5.59269 3.91209 6.53261 3.8727 7.57164C3.82166 8.91828 4.07229 10.9888 5.5501 13.2302L9.47184 9.30846C10.3175 8.46286 10.533 7.20084 9.99608 6.23882ZM13.1912 13.0278L9.26947 16.9496C11.5109 18.4274 13.5814 18.678 14.928 18.6269C15.9671 18.5876 16.907 17.9906 17.6743 17.2233C18.9511 15.9464 18.7796 13.9092 17.3268 13.0985L16.2609 12.5036C15.2988 11.9667 14.0368 12.1822 13.1912 13.0278Z" fill="#3F175F"/>
<path opacity="0.5" d="M10.3058 12.1945C8.4461 10.3348 9.4718 9.30908 9.4718 9.30908L5.55005 13.2308C5.99174 13.9007 6.54306 14.5859 7.2287 15.2715C7.91435 15.9572 8.59951 16.5085 9.26941 16.9502L13.1912 13.0284C13.1912 13.0284 12.1654 14.0541 10.3058 12.1945Z" fill="#25A5B4"/>
</svg>
