<svg width="113" height="113" viewBox="0 0 113 113" fill="none" xmlns="http://www.w3.org/2000/svg">
<rect x="1.68337" y="1.52126" width="109.531" height="109.531" rx="54.7653" fill="#25A5B4" fill-opacity="0.08"/>
<rect x="1.68337" y="1.52126" width="109.531" height="109.531" rx="54.7653" stroke="#25A5B4" stroke-width="3.04251"/>
<path d="M74.4244 50.2949C74.7969 50.2956 75.1558 50.4351 75.431 50.686C75.7062 50.937 75.878 51.2815 75.9129 51.6524V72.7627C75.9095 73.9198 75.4616 75.0314 74.6619 75.8677C73.8622 76.704 72.7718 77.2011 71.616 77.2563H41.4717C40.3146 77.2528 39.203 76.8049 38.3667 76.0052C37.5305 75.2055 37.0333 74.1151 36.9781 72.9593V51.7928C36.9788 51.4203 37.1183 51.0615 37.3692 50.7863C37.6202 50.511 37.9647 50.3392 38.3356 50.3043H74.4244V50.2949ZM62.8255 56.5391L62.7225 56.614L54.1473 65.9101L50.2622 62.1654C50.0651 61.968 49.8016 61.8511 49.5231 61.8372C49.2445 61.8234 48.9707 61.9137 48.755 62.0905L48.6614 62.1654L47.0886 63.5884C46.9924 63.6699 46.9135 63.77 46.8569 63.8828C46.8003 63.9955 46.7671 64.1185 46.7592 64.2445C46.7513 64.3704 46.769 64.4966 46.8111 64.6155C46.8533 64.7344 46.919 64.8436 47.0044 64.9364L47.0886 65.0301L52.5745 70.2257C53.0018 70.6465 53.5757 70.8848 54.1754 70.8904C54.4739 70.8983 54.7708 70.8432 55.0466 70.7287C55.3224 70.6142 55.571 70.4428 55.7762 70.2257L60.3634 65.3952L60.7285 65.0113L61.2153 64.4965L65.896 59.5348C66.0568 59.346 66.1535 59.1109 66.172 58.8635C66.1905 58.6162 66.1299 58.3694 65.999 58.1587L65.9335 58.0744L64.3233 56.6327C64.1302 56.4333 63.8696 56.3132 63.5925 56.2958C63.3154 56.2785 63.0419 56.3653 62.8255 56.5391ZM74.4244 35.3164C75.6155 35.3189 76.757 35.7931 77.5991 36.6353C78.4413 37.4774 78.9155 38.619 78.918 39.81V44.3035C78.918 44.7008 78.7602 45.0818 78.4793 45.3627C78.1984 45.6436 77.8174 45.8014 77.4202 45.8014H35.4803C35.083 45.8014 34.702 45.6436 34.4211 45.3627C34.1402 45.0818 33.9824 44.7008 33.9824 44.3035V39.81C33.9849 38.619 34.4591 37.4774 35.3013 36.6353C36.1435 35.7931 37.285 35.3189 38.476 35.3164H74.4244Z" fill="#25A5B4"/>
</svg>