<svg width="25" height="24" viewBox="0 0 25 24" fill="none" xmlns="http://www.w3.org/2000/svg">
<path d="M19.5986 10H5.59863C5.33342 10 5.07906 10.1054 4.89153 10.2929C4.70399 10.4804 4.59863 10.7348 4.59863 11V20C4.59863 20.5304 4.80935 21.0391 5.18442 21.4142C5.55949 21.7893 6.0682 22 6.59863 22H18.5986C19.1291 22 19.6378 21.7893 20.0128 21.4142C20.3879 21.0391 20.5986 20.5304 20.5986 20V11C20.5986 10.7348 20.4933 10.4804 20.3057 10.2929C20.1182 10.1054 19.8638 10 19.5986 10Z" fill="#25A5B4"/>
<path d="M22.3516 9.00049L20.7716 3.44049C20.6504 3.02506 20.3978 2.66013 20.0516 2.40049C19.7054 2.14084 19.2843 2.00049 18.8516 2.00049H6.35159C5.91627 2.00173 5.49324 2.14498 5.14673 2.40848C4.80021 2.67197 4.54913 3.04133 4.43159 3.46049L2.85159 9.00049C2.684 9.56865 2.59979 10.1581 2.60159 10.7505C2.60762 11.181 2.69913 11.606 2.87079 12.0008C3.04246 12.3957 3.29087 12.7525 3.60159 13.0505C4.21852 13.6277 5.03177 13.9488 5.87659 13.9488C6.72142 13.9488 7.53466 13.6277 8.15159 13.0505C8.73657 13.6367 9.5238 13.9766 10.3516 14.0005C11.192 14.0044 12.0002 13.6775 12.6016 13.0905C13.2056 13.6734 14.0122 13.9992 14.8516 13.9992C15.691 13.9992 16.4976 13.6734 17.1016 13.0905C17.7042 13.6757 18.5116 14.0022 19.3516 14.0005C19.7788 14.0018 20.202 13.9186 20.5969 13.7558C20.9918 13.5929 21.3506 13.3536 21.6526 13.0515C21.9547 12.7495 22.194 12.3907 22.3569 11.9958C22.5198 11.6009 22.6029 11.1777 22.6016 10.7505C22.6051 10.158 22.5209 9.56828 22.3516 9.00049Z" fill="#3F175F"/>
</svg>
