<svg width="24" height="24" viewBox="0 0 24 24" fill="none" xmlns="http://www.w3.org/2000/svg">
<path d="M17 3H7C4.79 3 3 4.79 3 7V17C3 19.21 4.79 21 7 21H19C20.11 21 21 20.11 21 19V9C21 8.46957 20.7893 7.96086 20.4142 7.58579C20.0391 7.21071 19.5304 7 19 7V5C19 4.46957 18.7893 3.96086 18.4142 3.58579C18.0391 3.21071 17.5304 3 17 3ZM17 5V7H7C6.27 7 5.59 7.2 5 7.54V7C5 5.9 5.9 5 7 5M15.5 15.5C14.67 15.5 14 14.83 14 14C14 13.17 14.67 12.5 15.5 12.5C16.33 12.5 17 13.17 17 14C17 14.83 16.33 15.5 15.5 15.5Z" fill="#007AFF"/>
</svg>
