<svg width="34" height="38" viewBox="0 0 34 38" fill="none" xmlns="http://www.w3.org/2000/svg">
<path d="M21.1997 4.99935H33.333V26.666H18.1663L17.2997 22.3327H5.16634V37.4993H0.833008V0.666016H20.333L21.1997 4.99935ZM20.333 22.3327H24.6663V17.9993H28.9997V13.666H24.6663V9.33268H20.333V13.666L18.1663 9.33268V4.99935H13.833V9.33268H9.49967V4.99935H5.16634V9.33268H9.49967V13.666H5.16634V17.9993H9.49967V13.666H13.833V17.9993H18.1663V13.666L20.333 17.9993V22.3327ZM13.833 13.666V9.33268H18.1663V13.666H13.833ZM20.333 13.666H24.6663V17.9993H20.333V13.666Z" fill="#25A5B4"/>
</svg>
