<svg width="59" height="38" viewBox="0 0 59 38" fill="none" xmlns="http://www.w3.org/2000/svg">
<path d="M45.277 0.280332L39.771 5.53872C39.5075 5.78909 39.3526 6.14229 39.3398 6.51555C39.3265 6.87286 39.445 7.22195 39.6696 7.48911C39.3738 7.61599 39.0764 7.71459 38.7813 7.77718C35.8665 8.40263 32.732 6.96324 30.3234 7.3481C30.1668 7.37396 30.0158 7.40405 29.8671 7.43075C29.4534 7.31886 29.0232 7.22533 28.566 7.15186C28.2362 7.0993 27.9039 7.07755 27.5733 7.07755C26.6241 7.08009 25.6773 7.24539 24.7368 7.39728C23.7979 7.55086 22.8692 7.69441 21.9937 7.69441C21.5333 7.69441 21.0888 7.65599 20.6617 7.56258C20.2046 7.46736 19.715 7.25361 19.2182 6.9572C19.2577 6.81606 19.2767 6.66574 19.272 6.51555C19.2578 6.14241 19.1012 5.78921 18.8392 5.53872L13.3333 0.280332C10.0808 -2.33623 -1.53543 14.175 0.169913 16.137C1.87216 18.0992 4.94354 21.0405 4.94354 21.0405C5.19584 21.2985 5.53514 21.4421 5.88796 21.4338C6.23997 21.4264 6.57447 21.2702 6.81658 21.0004L8.88973 18.6903C8.91824 18.7245 8.94743 18.7571 8.97284 18.7922C9.15074 19.0092 9.28685 19.2263 9.34065 19.3474C9.57315 19.8693 10.1656 21.1417 10.9551 22.5652C11.3505 23.2766 11.7951 24.0255 12.272 24.7401C12.5141 25.0993 12.7624 25.4523 13.0203 25.7863C12.3211 26.6997 12.3258 28.0406 13.0883 28.9481C13.9395 29.9634 15.4083 30.056 16.3693 29.1569L16.4358 29.0943C16.0221 29.9652 16.1233 31.0505 16.7711 31.8236C17.6223 32.8373 19.0903 32.9307 20.0513 32.0316L20.4286 31.6692C19.9121 32.5634 19.9826 33.7457 20.6747 34.5706C21.5258 35.5824 22.9938 35.676 23.9541 34.7801L24.5362 34.224C23.9888 35.1257 24.0451 36.3338 24.7514 37.1738C25.6025 38.1874 27.0714 38.2818 28.0316 37.3826L28.9697 36.531C29.0608 36.5761 29.1453 36.6169 29.2267 36.6562L29.8691 37.0519L29.8636 37.047C30.1823 37.249 30.5169 37.4126 30.8618 37.527C31.2075 37.6413 31.565 37.7082 31.9288 37.7082C32.3243 37.7082 32.7284 37.6281 33.1026 37.451C33.4816 37.2758 33.8288 37.0036 34.1159 36.6596C34.4608 36.2504 34.6885 35.7703 34.8056 35.2702C35.1473 35.4013 35.5056 35.4672 35.8608 35.4672C36.2903 35.4672 36.7189 35.3736 37.1176 35.1883C37.5154 35.0029 37.8865 34.7249 38.1926 34.3601C38.5722 33.9092 38.8119 33.3724 38.9156 32.8163C39.1181 32.8597 39.3245 32.8839 39.5317 32.8839C39.9596 32.8839 40.3891 32.7921 40.7878 32.6052C41.1864 32.4205 41.5559 32.1418 41.8612 31.7777C42.2757 31.2835 42.5248 30.6864 42.6086 30.0753C42.6972 30.0836 42.7866 30.087 42.8744 30.087C43.3893 30.087 43.8947 29.97 44.3614 29.7613C44.8288 29.551 45.2615 29.2454 45.6119 28.8321C45.9348 28.4439 46.1816 27.9913 46.3563 27.5038C46.5296 27.0145 46.6323 26.4926 46.634 25.9574C46.634 25.7622 46.6197 25.565 46.5865 25.3697C48.378 23.2674 49.3247 19.7657 49.7345 18.8473C49.7481 18.8172 49.7622 18.7864 49.7789 18.7553L51.795 21.0004C52.0354 21.2701 52.37 21.4262 52.722 21.4338C53.0764 21.4421 53.4156 21.2985 53.6679 21.0405C53.6679 21.0405 56.7393 18.0992 58.4423 16.137C60.1448 14.175 48.5302 -2.33623 45.277 0.280332ZM44.6165 26.8108C44.5153 27.0963 44.3665 27.3584 44.2203 27.5305V27.5288C44.0866 27.6907 43.8778 27.8477 43.6348 27.9579C43.3912 28.0664 43.1168 28.1257 42.874 28.1257C42.715 28.1257 42.5686 28.0998 42.4508 28.058C42.4429 28.0546 42.4366 28.0522 42.4294 28.0497L39.779 25.3495C39.4096 24.9738 38.821 24.9856 38.4651 25.3745C38.1084 25.7645 38.1187 26.3857 38.488 26.7613L40.6261 28.9396C40.634 28.9613 40.6411 28.9822 40.6514 29.0039C40.7408 29.1884 40.7851 29.3956 40.7851 29.6009C40.7835 29.9165 40.6831 30.2221 40.4703 30.4758C40.3445 30.6261 40.1981 30.7346 40.0376 30.8098C39.8786 30.8848 39.7046 30.9234 39.5314 30.9234C39.2317 30.9217 38.9414 30.8148 38.6994 30.5894L38.6447 30.5377C38.6352 30.526 38.6281 30.5126 38.6178 30.4993L36.294 27.9394C35.9396 27.547 35.3504 27.5336 34.9803 27.9076C34.6094 28.2817 34.5966 28.9045 34.9518 29.2953L36.9212 31.4676C36.926 31.4751 36.9308 31.4843 36.9347 31.491C37.0542 31.6998 37.1159 31.9402 37.1159 32.1814C37.1159 32.4979 37.0147 32.8043 36.8011 33.0589C36.6761 33.2075 36.529 33.3161 36.3684 33.3929C36.2087 33.4664 36.0355 33.5031 35.8606 33.5031C35.5624 33.5031 35.2713 33.3963 35.0301 33.1718L34.9944 33.1408L34.2747 32.5313L33.0984 31.2123C32.7464 30.819 32.1588 30.8006 31.7854 31.1722C31.4121 31.5429 31.3939 32.1657 31.7459 32.559L32.8635 33.8105C32.9782 34.0159 33.0391 34.2479 33.0391 34.4834C33.0383 34.7974 32.9371 35.1047 32.7251 35.3568C32.5978 35.5096 32.476 35.598 32.3502 35.6575C32.2252 35.7151 32.0916 35.7459 31.9287 35.7468C31.7808 35.7468 31.6099 35.7192 31.4209 35.6557C31.2303 35.5922 31.0254 35.4937 30.8119 35.3618L30.8063 35.3567L30.4796 35.1562C31.3884 34.2512 31.4588 32.7426 30.6243 31.7482C29.7842 30.7496 28.3439 30.6478 27.3829 31.5078L27.5569 31.3425C28.5164 30.4449 28.605 28.8945 27.7547 27.8809C26.9036 26.8672 25.4347 26.7738 24.4752 27.6721L23.9065 28.2139C24.4546 27.3148 24.3977 26.1041 23.6906 25.2641C22.8403 24.2505 21.373 24.1561 20.4112 25.0554L19.6558 25.7817C20.0101 24.9335 19.8916 23.9058 19.2707 23.1659C18.4211 22.1515 16.9515 22.0588 15.9912 22.9564L14.3903 24.4542C14.1894 24.1878 13.9877 23.9031 13.79 23.6076C13.1351 22.6256 12.5196 21.5303 12.0323 20.5919C11.5435 19.6533 11.1797 18.8686 11.0207 18.5104C10.9369 18.3225 10.8371 18.1505 10.7296 17.9852C10.562 17.7272 10.3697 17.4876 10.1728 17.2613L18.0367 8.49881C18.7328 8.94542 19.4818 9.31034 20.2901 9.48567C20.866 9.60917 21.4362 9.65424 21.994 9.65424C23.0562 9.65339 24.0773 9.48894 25.0217 9.33535C25.259 9.29524 25.4923 9.2585 25.7194 9.22177C25.0114 9.73773 24.3249 10.3498 23.5933 11.0686C21.5122 13.12 19.7143 15.6257 18.7185 16.7644C17.7219 17.9016 19.5744 19.8753 22.5223 18.9703C25.4709 18.0669 26.7414 15.7458 26.7414 15.7458L30.4414 14.344L34.1147 15.2315L42.9942 23.6692L44.5279 25.2354L44.5588 25.2623C44.619 25.3223 44.6664 25.3924 44.7075 25.506C44.7487 25.6196 44.774 25.7732 44.774 25.957C44.7746 26.2154 44.7193 26.5252 44.6165 26.8108Z" fill="#25A5B4"/>
</svg>
