<svg width="52" height="52" viewBox="0 0 52 52" fill="none" xmlns="http://www.w3.org/2000/svg">
	<path d="M47.6673 47.6667H4.33398M4.33398 23.8333L21.9403 9.75C23.0928 8.82806 24.5248 8.32579 26.0006 8.32579C27.4765 8.32579 28.9085 8.82806 30.061 9.75L47.6673 23.8333M33.584 11.9167V7.58333C33.584 7.29602 33.6981 7.02047 33.9013 6.8173C34.1044 6.61414 34.38 6.5 34.6673 6.5H40.084C40.3713 6.5 40.6469 6.61414 40.85 6.8173C41.0532 7.02047 41.1673 7.29602 41.1673 7.58333V18.4167M8.66732 47.6667V20.5833M43.334 47.6667V20.5833" stroke="#25A5B4" stroke-width="2.5" stroke-linecap="round" />
	<path d="M32.5 47.6667V36.8333C32.5 33.7697 32.5 32.2378 31.5467 31.2867C30.5977 30.3333 29.0658 30.3333 26 30.3333C22.9342 30.3333 21.4045 30.3333 20.4533 31.2867C19.5 32.2357 19.5 33.7675 19.5 36.8333V47.6667M30.3333 20.5833C30.3333 21.7326 29.8768 22.8348 29.0641 23.6475C28.2515 24.4601 27.1493 24.9167 26 24.9167C24.8507 24.9167 23.7485 24.4601 22.9359 23.6475C22.1232 22.8348 21.6667 21.7326 21.6667 20.5833C21.6667 19.4341 22.1232 18.3319 22.9359 17.5192C23.7485 16.7065 24.8507 16.25 26 16.25C27.1493 16.25 28.2515 16.7065 29.0641 17.5192C29.8768 18.3319 30.3333 19.4341 30.3333 20.5833Z" stroke="#25A5B4" stroke-width="2.5" />
</svg>
