<svg width="313" height="313" viewBox="0 0 313 313" fill="none" xmlns="http://www.w3.org/2000/svg">
	<path d="M301.291 71.4961H270.895V79.5373H301.291V71.4961Z" fill="#EBEBEB" />
	<path d="M143.772 257.649C143.775 254.95 143.155 252.286 141.962 249.865C140.768 247.444 139.032 245.331 136.889 243.69C134.745 242.049 132.253 240.924 129.604 240.403C126.955 239.882 124.222 239.979 121.617 240.686C119.012 241.392 116.605 242.691 114.583 244.479C112.561 246.267 110.979 248.498 109.959 250.997C108.939 253.496 108.51 256.197 108.703 258.89C108.897 261.582 109.709 264.193 111.076 266.521L111.126 266.584C111.801 267.721 112.644 268.533 113.5 269.708L123.685 283.228C123.98 283.62 124.362 283.938 124.801 284.157C125.24 284.376 125.724 284.49 126.215 284.49C126.706 284.49 127.19 284.376 127.629 284.157C128.068 283.938 128.45 283.62 128.746 283.228L138.742 269.945C139.656 268.868 140.507 267.739 141.291 266.565L141.329 266.521C142.92 263.835 143.764 260.771 143.772 257.649ZM126.184 265.29C124.655 265.29 123.16 264.837 121.889 263.987C120.618 263.138 119.628 261.93 119.043 260.518C118.458 259.105 118.305 257.551 118.604 256.051C118.903 254.552 119.639 253.175 120.721 252.094C121.802 251.014 123.18 250.278 124.68 249.98C126.18 249.683 127.734 249.837 129.146 250.423C130.558 251.009 131.765 252 132.613 253.272C133.462 254.544 133.914 256.039 133.913 257.568C133.913 258.582 133.713 259.587 133.324 260.524C132.936 261.462 132.366 262.313 131.649 263.031C130.931 263.748 130.079 264.316 129.141 264.704C128.203 265.092 127.198 265.291 126.184 265.29Z" fill="#E0E0E0" />
	<path d="M78.5996 33.2705H48.2031V41.3117H78.5996V33.2705Z" fill="#EBEBEB" />
	<path d="M65.3527 49.784C65.3501 49.7361 65.3501 49.6882 65.3527 49.6403V49.2279C65.3527 48.8468 65.3527 48.322 65.3527 47.6409C65.3527 46.2539 65.3527 44.2608 65.3027 41.7428L65.3965 41.8365L34.9625 41.899L35.1187 41.7428V43.7984C35.1187 44.4794 35.1187 45.1605 35.1187 45.829V49.784L34.9625 49.634L56.6243 49.7028L63.016 49.7465H64.7467H65.1965H65.359C65.359 49.7465 65.3152 49.7465 65.2215 49.7465H64.7842H63.0909L56.7305 49.7902L34.9625 49.934H34.8125V49.784C34.8125 48.4886 34.8125 47.1703 34.8125 45.829V41.7553L34.9687 41.5991L65.3652 41.6616H65.4589V41.7553C65.4589 44.2983 65.4215 46.3101 65.409 47.7097C65.409 48.3782 65.409 48.903 65.409 49.2717C65.409 49.4341 65.409 49.5653 65.409 49.6715C65.409 49.7778 65.359 49.7902 65.3527 49.784Z" fill="#E0E0E0" />
	<path d="M297.924 245.734H267.527V253.775H297.924V245.734Z" fill="#EBEBEB" />
	<path d="M284.677 262.241C284.671 262.193 284.671 262.145 284.677 262.097C284.677 261.991 284.677 261.854 284.677 261.685C284.677 261.304 284.677 260.779 284.677 260.104C284.677 258.711 284.645 256.718 284.627 254.2L284.72 254.293L254.324 254.356C254.392 254.287 254.168 254.512 254.474 254.2V262.235L254.324 262.085L275.986 262.153L282.377 262.197H284.108H284.558H284.72H284.577H284.145H282.446L276.092 262.241L254.268 262.416H254.111V254.206C254.417 253.9 254.199 254.125 254.268 254.05L284.664 254.112H284.758V254.206C284.758 256.749 284.72 258.761 284.708 260.167C284.708 260.829 284.708 261.354 284.708 261.729C284.708 261.891 284.708 262.016 284.708 262.122C284.701 262.163 284.69 262.202 284.677 262.241Z" fill="#E0E0E0" />
	<path d="M217.406 37.0194C217.403 36.9715 217.403 36.9235 217.406 36.8756V36.4633C217.406 36.0822 217.406 35.5573 217.406 34.8825C217.406 33.4955 217.406 31.4961 217.356 28.9782L217.45 29.0719L187.053 29.1344L187.209 28.9782V33.0581C187.209 34.3994 187.209 35.7177 187.209 37.0131L187.059 36.8632L208.721 36.9319L215.113 36.9756H216.844H217.3H217.406C217.406 36.9756 217.362 36.9756 217.268 36.9756H216.831H215.138L208.777 37.0194L187.009 37.0881H186.859V36.9319C186.859 35.6385 186.859 34.3202 186.859 32.9769V28.9844L187.016 28.8345L217.412 28.8907H217.506V28.9844C217.506 31.5274 217.468 33.5392 217.456 34.945C217.456 35.6136 217.456 36.1321 217.456 36.507V36.9006C217.406 36.9819 217.406 37.0256 217.406 37.0194Z" fill="#E0E0E0" />
	<path d="M221.529 28.9782C221.524 28.9284 221.524 28.8781 221.529 28.8283V28.4034C221.529 28.0035 221.529 27.4662 221.529 26.7914C221.529 25.3794 221.492 23.3863 221.467 20.9371L221.579 21.0495L203.316 21.0933C203.179 21.2307 203.504 20.9058 203.466 20.9371V25.0732C203.466 26.4228 203.466 27.7224 203.466 28.972L203.323 28.8283L216.387 28.897L220.192 28.9345H221.217H221.586C221.475 28.9434 221.365 28.9434 221.254 28.9345H220.255L216.506 28.9782L203.341 29.047H203.191V28.897C203.191 27.6474 203.191 26.3478 203.191 24.9983V20.9433L203.348 20.7871L221.611 20.8308H221.723V20.9433C221.723 23.4425 221.673 25.4356 221.66 26.8602C221.66 27.5287 221.66 28.0598 221.66 28.4472C221.66 28.8345 221.536 28.9907 221.529 28.9782Z" fill="#E0E0E0" />
	<path d="M45.8602 265.783C45.8602 265.783 45.8602 265.727 45.8602 265.634V265.221C45.8602 264.846 45.8602 264.315 45.8602 263.64C45.8602 262.253 45.8602 260.254 45.8039 257.742L45.8976 257.836L15.5011 257.892L15.6573 257.742V261.816C15.6573 263.153 15.6573 264.478 15.6573 265.771L15.5074 265.615L37.1692 265.69L43.5609 265.727H45.2916H45.7477H45.9039H45.7664H45.3291H43.6359L37.2754 265.771L15.5074 265.84H15.3574V265.69C15.3574 264.396 15.3574 263.072 15.3574 261.735V257.661L15.5136 257.505L45.9101 257.567H46.0039V257.661C46.0039 260.198 45.9664 262.216 45.9539 263.615C45.9539 264.284 45.9539 264.803 45.9539 265.177V265.571C45.9387 265.648 45.9067 265.72 45.8602 265.783Z" fill="#E0E0E0" />
	<path d="M49.959 257.743C49.9543 257.691 49.9543 257.638 49.959 257.586C49.959 257.474 49.959 257.33 49.959 257.162C49.959 256.768 49.959 256.231 49.959 255.55C49.959 254.137 49.9215 252.144 49.8965 249.701L50.009 249.808L31.7461 249.851L31.896 249.701V253.831C31.896 255.175 31.896 256.48 31.896 257.73L31.7523 257.58L44.8169 257.649L48.6219 257.693H49.6466H50.0152C49.905 257.702 49.7943 257.702 49.6841 257.693H48.6844L44.9356 257.73L31.771 257.799H31.6211V257.655C31.6211 256.405 31.6211 255.1 31.6211 253.756V249.626L31.7773 249.47L50.0402 249.514H50.1527V249.626C50.1527 252.126 50.1027 254.112 50.0902 255.543C50.0902 256.212 50.0902 256.737 50.0902 257.13C50.0902 257.524 49.9902 257.749 49.959 257.743Z" fill="#E0E0E0" />
	<path d="M286.095 289.039C286.095 289.126 226.258 289.201 152.463 289.201C78.6679 289.201 18.8184 289.126 18.8184 289.039C18.8184 288.951 78.643 288.876 152.463 288.876C226.283 288.876 286.095 288.951 286.095 289.039Z" fill="#263238" />
	<path d="M273.336 53.1016H31.6138C27.1866 53.1016 23.5977 56.6905 23.5977 61.1177V224.697C23.5977 229.124 27.1866 232.713 31.6138 232.713H273.336C277.764 232.713 281.353 229.124 281.353 224.697V61.1177C281.353 56.6905 277.764 53.1016 273.336 53.1016Z" fill="#263238" />
	<path d="M281.353 61.1177L281.316 60.5554C281.305 60.3246 281.278 60.095 281.234 59.8681C281.188 59.5487 281.117 59.2333 281.022 58.9247C280.722 57.8804 280.213 56.9083 279.524 56.0681C278.835 55.2279 277.982 54.5373 277.017 54.0387C276.344 53.6945 275.627 53.4443 274.886 53.2952C274.061 53.1593 273.223 53.1091 272.387 53.1453H266.583H252.106L159.854 53.2015H96.1248H32.6076C31.8224 53.1704 31.0359 53.2123 30.2584 53.3265C29.4849 53.4576 28.7366 53.7085 28.0403 54.07C26.6335 54.792 25.4757 55.9194 24.7164 57.3064C24.3479 58.005 24.0787 58.7515 23.9167 59.5245C23.7878 60.3131 23.7376 61.1126 23.7667 61.9112V76.6128C23.7667 83.2065 23.7667 89.871 23.7667 96.6064V137.843C23.7667 165.865 23.7667 194.875 23.7667 224.59C23.7614 226.419 24.3964 228.192 25.5616 229.602C26.7269 231.011 28.3488 231.968 30.1459 232.307C31.0494 232.441 31.9639 232.487 32.8763 232.444H105.778H186.59H259.691H272.406C273.095 232.467 273.784 232.435 274.468 232.35C276.137 232.119 277.686 231.356 278.887 230.174C280.088 228.992 280.876 227.455 281.134 225.79C281.212 225.124 281.239 224.454 281.216 223.784C281.216 223.11 281.216 222.441 281.216 221.766V217.761C281.216 207.136 281.216 196.945 281.216 187.19C281.216 148.246 281.259 116.725 281.272 94.9381C281.272 84.0541 281.272 75.5693 281.303 69.8587C281.303 66.9971 281.303 64.8103 281.303 63.3358C281.303 61.8612 281.303 61.1177 281.303 61.1177C281.303 61.1177 281.303 61.8675 281.303 63.3358C281.303 64.804 281.303 66.9971 281.303 69.8587C281.303 75.5943 281.303 84.0541 281.303 94.9381C281.303 116.725 281.341 148.246 281.366 187.19C281.366 196.928 281.366 207.119 281.366 217.761C281.366 219.092 281.366 220.423 281.366 221.766V223.784C281.386 224.467 281.357 225.15 281.278 225.827C281.081 227.214 280.532 228.527 279.684 229.64C278.835 230.754 277.714 231.631 276.43 232.188C275.779 232.462 275.097 232.653 274.399 232.757C273.703 232.843 273.001 232.876 272.3 232.857H259.716H186.615H105.803H32.8888C31.9554 232.899 31.0201 232.85 30.0959 232.713C28.2155 232.358 26.5182 231.357 25.2984 229.883C24.0785 228.409 23.4129 226.554 23.4168 224.64C23.4168 194.925 23.4168 165.909 23.4168 137.893C23.4168 123.885 23.4168 110.14 23.4168 96.6563V61.9737C23.39 61.1539 23.4444 60.3335 23.5793 59.5245C23.7479 58.7192 24.0276 57.9412 24.4102 57.2127C25.2076 55.7688 26.4141 54.5928 27.8779 53.8326C28.6043 53.4588 29.3841 53.1996 30.1896 53.0641C30.9857 52.946 31.791 52.9021 32.5951 52.9328H60.6424H96.131H159.861L252.112 52.9891H266.589H272.387C273.224 52.9608 274.061 53.0152 274.886 53.1515C275.635 53.3019 276.359 53.5586 277.036 53.9138C278.007 54.4191 278.864 55.1185 279.554 55.9686C280.244 56.8187 280.752 57.8015 281.047 58.8559C281.138 59.1647 281.205 59.4802 281.247 59.7994C281.289 60.0284 281.314 60.2602 281.322 60.4929C281.353 60.924 281.353 61.1177 281.353 61.1177Z" fill="#263238" />
	<path d="M268.4 136.013C269.759 136.013 271.088 136.416 272.218 137.171C273.349 137.926 274.23 139 274.75 140.255C275.27 141.511 275.406 142.893 275.141 144.226C274.876 145.56 274.221 146.784 273.26 147.745C272.299 148.706 271.074 149.361 269.741 149.626C268.408 149.891 267.026 149.755 265.77 149.235C264.514 148.715 263.441 147.834 262.686 146.704C261.93 145.574 261.527 144.245 261.527 142.885C261.527 141.063 262.251 139.315 263.54 138.026C264.829 136.737 266.577 136.013 268.4 136.013Z" fill="#455A64" />
	<path d="M37.2187 124.504V161.198C37.2195 161.534 37.154 161.867 37.0259 162.178C36.8979 162.489 36.7098 162.771 36.4724 163.009C36.235 163.247 35.9531 163.436 35.6426 163.565C35.3322 163.694 34.9994 163.76 34.6632 163.76C34.3268 163.76 33.9937 163.694 33.6829 163.565C33.3721 163.436 33.0897 163.248 32.8519 163.01C32.614 162.772 32.4253 162.489 32.2966 162.179C32.1678 161.868 32.1016 161.535 32.1016 161.198V124.523C32.1016 123.843 32.3715 123.192 32.8519 122.711C33.3323 122.231 33.9838 121.961 34.6632 121.961C35.3388 121.961 35.9869 122.228 36.4658 122.705C36.9447 123.182 37.2154 123.828 37.2187 124.504Z" fill="#455A64" />
	<path d="M257.242 58.9185H41.9863V227.202H257.242V58.9185Z" fill="#EBEBEB" />
	<path d="M180.773 180.398L197.418 209.733L238.343 209.127L236.024 177.293L180.773 180.398Z" fill="#E0E0E0" />
	<path d="M126.677 81.3364L120.666 127.703L133.081 130.664L157.354 128.253L152.899 77.6001L126.677 81.3364Z" fill="#E0E0E0" />
	<path d="M88.9701 176.231H60.2793V141.686L91.4568 141.998L88.9701 176.231Z" fill="#F5F5F5" />
	<path d="M207.084 177.293C207.084 176.312 212.139 141.998 212.139 141.998C212.139 141.998 231.92 136.581 231.995 137.356C232.07 138.13 235.931 176.381 235.931 176.381L207.084 177.293Z" fill="#F5F5F5" />
	<path d="M63.5781 89.4089C63.6344 90.2461 77.28 117.687 77.28 117.687L93.0812 113.501V81.9301L76.7864 81.5552L63.5781 89.4089Z" fill="#E0E0E0" />
	<path d="M160.074 146.665H138.225V156.974H160.074V146.665Z" fill="#E0E0E0" />
	<path d="M160.173 160.392L138.167 161.504L137.049 182.398L162.178 180.398L160.173 160.392Z" fill="#E0E0E0" />
	<path d="M248.319 121.648L245.264 79.2368H257.185L257.241 120.805L248.319 121.648Z" fill="#E0E0E0" />
	<path d="M199.498 72.2891L204.465 125.141L230.526 122.804L225.977 77.7248L205.346 72.2891H199.498Z" fill="#E0E0E0" />
	<path d="M79.7622 81.7422L42.1367 81.1736L42.1742 78.6744L77.7253 79.2118L81.8302 58.937L84.2857 59.4306L79.7622 81.7422Z" fill="white" />
	<path d="M60.0989 122.567L41.8672 81.68L42.4358 81.4238L60.455 121.823L93.0071 113.195L93.1633 113.801L60.0989 122.567Z" fill="white" />
	<path d="M91.4631 141.373H42.1602V142.623H91.4631V141.373Z" fill="white" />
	<path d="M60.5857 122.198H59.9609V176.237H60.5857V122.198Z" fill="white" />
	<path d="M89.1389 175.956H42.1602V176.581H89.1389V175.956Z" fill="white" />
	<path d="M86.7029 225.122L41.9609 215.25L42.4983 212.807L84.4224 222.06L91.6138 121.999L92.6947 80.3806L94.3754 59.0874L96.8621 59.2811L95.1877 80.543L94.113 122.123L86.7029 225.122Z" fill="white" />
	<path d="M93.8373 83.2607L78.6172 81.7237L78.8734 79.237L92.3253 80.5991L94.5496 75.8506L114.599 80.7115L204.758 70.4336L236.167 78.5935L257.148 77.9874L257.223 80.4804L235.886 81.1052L204.577 72.9703L114.443 83.242L95.9491 78.7622L93.8373 83.2607Z" fill="white" />
	<path d="M198.66 179.236L196.18 178.911L203.202 125.129L197.804 72.3392V58.9185H200.303V72.2767L205.72 125.16L198.66 179.236Z" fill="white" />
	<path d="M87.9097 186.634L87.7598 184.141L235.131 175.181L255.187 134.344L257.43 135.444L236.737 177.587L236.012 177.63L87.9097 186.634Z" fill="white" />
	<path d="M161.698 181.904L152.276 77.6563L151.764 59.2059L153.013 59.1685L153.526 77.5876L162.941 181.792L161.698 181.904Z" fill="white" />
	<path d="M141.917 226.534L131.021 182.035V131.701L118.756 128.652L124.079 80.8739L123.586 58.9434L126.085 58.8872L126.585 80.9864L126.578 81.0676L121.48 126.753L133.52 129.752V181.729L144.348 225.94L141.917 226.534Z" fill="white" />
	<path d="M132.269 141.686H91.457V142.31H132.269V141.686Z" fill="white" />
	<path d="M92.9189 121.779L92.793 122.391L120.05 128.001L120.176 127.389L92.9189 121.779Z" fill="white" />
	<path d="M132.201 162.685L122.504 160.542V141.998H123.129V160.042L132.338 162.073L132.201 162.685Z" fill="white" />
	<path d="M117.062 226.502L111.613 209.014H86.6777V206.515H113.45L119.448 225.759L117.062 226.502Z" fill="white" />
	<path d="M197.236 210.051L180.504 180.548L181.047 180.242L197.598 209.42L257.104 208.533L257.117 209.158L197.236 210.051Z" fill="white" />
	<path d="M226.513 209.732H225.889V226.577H226.513V209.732Z" fill="white" />
	<path d="M238.03 209.152L235.712 177.318L223.766 58.9497L224.39 58.8872L236.337 177.262L238.655 209.102L238.03 209.152Z" fill="white" />
	<path d="M257.219 120.481L132.246 130.404L132.296 131.027L257.268 121.104L257.219 120.481Z" fill="white" />
	<path d="M245.881 80.2657L244.637 80.3774L248.348 121.717L249.593 121.605L245.881 80.2657Z" fill="white" />
	<path d="M247.303 103.489L228.992 108.02L229.142 108.627L247.453 104.095L247.303 103.489Z" fill="white" />
	<path d="M239.255 105.572L236.012 87.1905L226.871 86.2221L226.934 85.6035L236.543 86.6219L239.867 105.46L239.255 105.572Z" fill="white" />
	<path d="M177.37 75.4665L176.125 75.5732L180.465 126.196L181.71 126.09L177.37 75.4665Z" fill="white" />
	<path d="M201.646 103.146L179.502 108.019L179.636 108.629L201.78 103.756L201.646 103.146Z" fill="white" />
	<path d="M196.812 209.659L194.537 227.295L195.776 227.455L198.051 209.819L196.812 209.659Z" fill="white" />
	<path d="M93.9437 143.06L91.457 181.848L130.226 179.961V164.741L120.073 162.498V144.728L93.9437 143.06Z" fill="#E0E0E0" />
	<path d="M83.2658 152.507C83.2666 151.153 82.9551 149.817 82.3557 148.603C81.7562 147.388 80.8849 146.329 79.8094 145.506C78.7339 144.683 77.4832 144.119 76.1545 143.858C74.8257 143.597 73.4546 143.646 72.1478 144.001C70.8409 144.356 69.6335 145.007 68.6192 145.904C67.6049 146.801 66.8111 147.92 66.2995 149.174C65.7878 150.428 65.5721 151.783 65.6691 153.133C65.7661 154.484 66.1731 155.794 66.8586 156.962V156.993C67.196 157.562 67.6146 157.968 68.0457 158.568L73.1566 165.341C73.3051 165.537 73.4972 165.697 73.7179 165.807C73.9385 165.917 74.1816 165.974 74.4281 165.974C74.6745 165.974 74.9176 165.917 75.1382 165.807C75.3589 165.697 75.551 165.537 75.6995 165.341L80.6979 158.68C81.1552 158.14 81.5828 157.574 81.9788 156.987C82.8051 155.638 83.2499 154.089 83.2658 152.507ZM74.4562 156.344C73.6882 156.345 72.9372 156.118 72.2982 155.692C71.6592 155.266 71.1609 154.66 70.8665 153.951C70.572 153.242 70.4947 152.461 70.6442 151.708C70.7937 150.955 71.1633 150.263 71.7063 149.72C72.2493 149.177 72.9413 148.807 73.6945 148.658C74.4477 148.508 75.2284 148.586 75.9376 148.88C76.6469 149.175 77.2528 149.673 77.6786 150.312C78.1045 150.951 78.3312 151.702 78.3299 152.47C78.3283 153.497 77.9196 154.481 77.1935 155.207C76.4674 155.933 75.483 156.342 74.4562 156.344Z" fill="#25A5B4" />
	<path d="M166.172 121.511C166.175 120.156 165.866 118.818 165.268 117.601C164.67 116.385 163.799 115.323 162.723 114.499C161.648 113.674 160.396 113.108 159.067 112.846C157.737 112.584 156.364 112.632 155.056 112.987C153.748 113.342 152.539 113.994 151.524 114.892C150.509 115.79 149.715 116.91 149.204 118.165C148.692 119.421 148.478 120.777 148.576 122.129C148.674 123.481 149.083 124.792 149.771 125.959V125.997C150.108 126.566 150.533 126.972 150.964 127.571L156.088 134.332C156.236 134.528 156.428 134.688 156.649 134.798C156.87 134.908 157.113 134.965 157.359 134.965C157.606 134.965 157.849 134.908 158.069 134.798C158.29 134.688 158.482 134.528 158.631 134.332L163.673 127.678C164.121 127.137 164.538 126.572 164.922 125.984C165.735 124.633 166.166 123.087 166.172 121.511ZM157.362 125.347C156.595 125.347 155.845 125.12 155.207 124.693C154.569 124.267 154.071 123.661 153.778 122.952C153.484 122.243 153.407 121.463 153.557 120.71C153.707 119.958 154.076 119.266 154.619 118.724C155.161 118.181 155.853 117.811 156.605 117.662C157.358 117.512 158.138 117.589 158.847 117.883C159.556 118.176 160.162 118.673 160.588 119.312C161.015 119.95 161.242 120.7 161.242 121.467C161.242 121.977 161.142 122.482 160.946 122.953C160.751 123.425 160.465 123.853 160.104 124.213C159.743 124.573 159.314 124.859 158.843 125.054C158.371 125.248 157.866 125.348 157.356 125.347H157.362Z" fill="#25A5B4" />
	<path d="M129.595 197.824C129.598 196.894 129.387 195.976 128.977 195.141C128.567 194.307 127.97 193.578 127.232 193.012C126.495 192.446 125.636 192.057 124.724 191.877C123.812 191.697 122.87 191.73 121.973 191.973C121.075 192.217 120.246 192.664 119.55 193.28C118.853 193.896 118.308 194.665 117.958 195.526C117.607 196.387 117.46 197.318 117.528 198.245C117.596 199.173 117.877 200.072 118.349 200.873C118.58 201.26 118.874 201.542 119.167 201.948L122.673 206.596C122.775 206.73 122.906 206.838 123.057 206.912C123.207 206.987 123.373 207.025 123.541 207.025C123.709 207.025 123.875 206.987 124.025 206.912C124.176 206.838 124.307 206.73 124.409 206.596L127.858 202.029C128.172 201.657 128.466 201.269 128.739 200.867C129.291 199.947 129.587 198.896 129.595 197.824ZM123.554 200.454C123.027 200.456 122.512 200.301 122.073 200.009C121.635 199.717 121.292 199.302 121.09 198.816C120.888 198.329 120.834 197.794 120.936 197.277C121.038 196.761 121.291 196.286 121.663 195.913C122.035 195.54 122.509 195.286 123.026 195.183C123.542 195.079 124.078 195.132 124.564 195.333C125.051 195.534 125.467 195.875 125.76 196.313C126.053 196.751 126.209 197.266 126.209 197.793C126.21 198.142 126.142 198.488 126.009 198.811C125.875 199.134 125.68 199.427 125.433 199.674C125.187 199.922 124.894 200.118 124.571 200.252C124.249 200.385 123.903 200.454 123.554 200.454Z" fill="#25A5B4" />
	<path d="M239.192 88.1591C239.185 86.654 238.617 85.2056 237.599 84.0973C236.581 82.989 235.186 82.3006 233.687 82.1669C232.187 82.0333 230.692 82.464 229.494 83.3747C228.296 84.2854 227.481 85.6105 227.208 87.0907C226.95 88.5072 227.212 89.9692 227.945 91.2081C228.177 91.5955 228.47 91.8766 228.764 92.289L232.269 96.9313C232.371 97.0647 232.502 97.1728 232.653 97.2473C232.804 97.3217 232.969 97.3604 233.137 97.3604C233.305 97.3604 233.471 97.3217 233.622 97.2473C233.772 97.1728 233.904 97.0647 234.006 96.9313L237.455 92.364C237.769 91.9924 238.063 91.6045 238.336 91.2019C238.887 90.2821 239.183 89.2315 239.192 88.1591ZM233.15 90.7895C232.623 90.7907 232.108 90.6355 231.669 90.3435C231.23 90.0515 230.888 89.6359 230.686 89.1493C230.484 88.6627 230.43 88.127 230.533 87.6101C230.635 87.0932 230.889 86.6184 231.262 86.2458C231.634 85.8732 232.109 85.6195 232.626 85.517C233.143 85.4145 233.679 85.4678 234.165 85.67C234.652 85.8722 235.067 86.2143 235.359 86.653C235.651 87.0917 235.807 87.6071 235.805 88.1341C235.805 88.8383 235.526 89.5138 235.028 90.0117C234.53 90.5097 233.854 90.7895 233.15 90.7895Z" fill="#25A5B4" />
	<path d="M110.565 91.0332C110.566 89.3867 110.189 87.7619 109.461 86.2852C108.732 84.8085 107.674 83.5195 106.366 82.5185C105.059 81.5175 103.539 80.8314 101.923 80.5135C100.308 80.1956 98.6406 80.2545 97.0515 80.6856C95.4625 81.1167 93.9942 81.9085 92.7609 82.9992C91.5276 84.09 90.5624 85.4505 89.9403 86.9749C89.3182 88.4994 89.056 90.1467 89.1741 91.789C89.2921 93.4312 89.7873 95.0242 90.621 96.4439L90.6523 96.4814C91.0584 97.1749 91.577 97.6685 92.0955 98.3933L98.3123 106.634C98.4929 106.873 98.7263 107.066 98.994 107.199C99.2617 107.332 99.5566 107.401 99.8556 107.401C100.154 107.401 100.449 107.332 100.717 107.199C100.985 107.066 101.218 106.873 101.399 106.634L107.516 98.512C108.073 97.8547 108.592 97.1663 109.071 96.4502C110.043 94.81 110.559 92.9397 110.565 91.0332ZM99.8493 95.6942C98.9161 95.6942 98.0038 95.4174 97.2279 94.8987C96.452 94.3801 95.8474 93.643 95.4906 92.7807C95.1337 91.9184 95.0406 90.9696 95.2232 90.0543C95.4057 89.1391 95.8556 88.2986 96.5159 87.6391C97.1763 86.9797 98.0174 86.5309 98.9329 86.3496C99.8483 86.1683 100.797 86.2626 101.659 86.6206C102.521 86.9786 103.257 87.5842 103.775 88.3607C104.292 89.1373 104.568 90.0499 104.567 90.9832C104.565 92.2332 104.067 93.4314 103.183 94.3147C102.298 95.198 101.099 95.6942 99.8493 95.6942Z" fill="#25A5B4" />
	<path d="M53.0837 262.147C53.0837 262.147 39.0132 245.996 33.7149 229.839C28.4166 213.681 30.9408 215.556 30.9408 215.556C30.9408 215.556 38.0885 231.232 43.518 238.811C48.9475 246.39 58.6132 257.517 58.6132 257.517L53.0837 262.147Z" fill="#455A64" />
	<path d="M55.8517 218.055C55.7584 217.888 55.6094 217.759 55.4306 217.69C55.2518 217.621 55.0546 217.617 54.8733 217.679C54.6919 217.741 54.538 217.864 54.4382 218.027C54.3384 218.191 54.2991 218.384 54.3272 218.574C55.1832 224.253 57.0326 237.568 56.9576 246.202C56.8639 257.449 56.9576 261.76 56.9576 261.76H62.7995C62.7995 261.76 61.7623 238.567 60.444 231.495C59.5255 226.54 57.5574 221.035 55.8517 218.055Z" fill="#455A64" />
	<path d="M59.0312 259.873C61.4821 254.328 63.1031 248.452 63.8422 242.434C64.3233 238.305 63.4673 232.719 62.1865 225.271C61.6945 222.548 61.4477 219.785 61.4492 217.018C61.4578 216.711 61.5672 216.416 61.7605 216.178C61.9538 215.94 62.2203 215.772 62.5185 215.701C62.8168 215.63 63.1302 215.659 63.4102 215.784C63.6902 215.909 63.9211 216.123 64.0671 216.393C64.7732 217.642 66.81 221.947 67.3286 224.646C68.7469 232 70.3464 235.674 69.1218 242.653C67.8972 249.632 63.3736 260.379 63.3736 260.379L59.0312 259.873Z" fill="#455A64" />
	<path d="M64.3301 260.348C64.3301 260.348 79.7376 227.233 80.8061 222.316C81.8745 217.399 85.5046 206.071 85.9357 206.696C86.3668 207.321 87.0041 213.319 84.2237 220.154C81.4433 226.99 69.5909 261.329 69.5909 261.329H64.3301" fill="#455A64" />
	<path d="M57.3438 258.867C57.1924 258.779 57.0483 258.678 56.9126 258.567C56.6377 258.361 56.2254 258.067 55.7193 257.655C54.6946 256.849 53.2576 255.624 51.5769 254C47.2372 249.72 43.4791 244.889 40.3992 239.63C37.3275 234.384 34.7706 228.854 32.7641 223.116C31.9894 220.917 31.4271 219.117 31.0584 217.868C30.871 217.243 30.7398 216.756 30.6461 216.424C30.5951 216.256 30.5555 216.085 30.5273 215.912C30.603 216.071 30.6657 216.236 30.7148 216.406C30.8272 216.756 30.9834 217.23 31.1834 217.83C31.5833 219.08 32.1831 220.854 32.9828 223.041C35.0467 228.742 37.6231 234.244 40.6803 239.48C43.7531 244.712 47.4683 249.54 51.7393 253.85C53.3888 255.487 54.8008 256.737 55.8005 257.599C56.2941 258.03 56.694 258.336 56.9564 258.561C57.095 258.65 57.2247 258.753 57.3438 258.867Z" fill="#263238" />
	<path d="M59.0308 242.979C58.9601 242.658 58.9142 242.332 58.8933 242.004C58.8183 241.317 58.7246 240.423 58.6122 239.348C58.3685 237.112 57.9874 234.019 57.4375 230.601C56.8877 227.184 56.2879 224.153 55.8131 221.948C55.5881 220.892 55.4007 220.011 55.2507 219.336C55.1634 219.019 55.1069 218.695 55.082 218.368C55.2033 218.672 55.3014 218.986 55.3757 219.305C55.5506 219.93 55.7818 220.798 56.0442 221.898C56.5753 224.091 57.2188 227.146 57.7624 230.545C58.306 233.944 58.6559 237.055 58.8433 239.292C58.937 240.417 58.9933 241.329 59.0245 241.96C59.0587 242.299 59.0608 242.64 59.0308 242.979Z" fill="#263238" />
	<path d="M62.6429 216.1C62.7175 216.235 62.7782 216.377 62.8241 216.524L63.2864 217.774C63.4926 218.305 63.7238 218.961 63.9487 219.742C64.1736 220.523 64.4735 221.398 64.6985 222.398C64.8172 222.891 64.9484 223.41 65.0796 223.953C65.2108 224.497 65.2983 225.072 65.417 225.659C65.6669 226.834 65.8231 228.108 66.0418 229.445C66.3734 232.359 66.4966 235.293 66.4104 238.224C66.2888 241.16 65.9568 244.083 65.417 246.971C65.1358 248.296 64.8859 249.558 64.5548 250.72C64.3923 251.295 64.2611 251.863 64.0924 252.394C63.9237 252.925 63.755 253.431 63.5988 253.919C63.3052 254.9 62.974 255.749 62.6616 256.512C62.3492 257.274 62.1055 257.911 61.8619 258.43L61.312 259.623C61.2576 259.766 61.1862 259.903 61.0996 260.029C61.1385 259.882 61.1887 259.738 61.2496 259.598L61.7432 258.38C61.9681 257.855 62.2305 257.211 62.4929 256.443C62.7553 255.674 63.1177 254.825 63.3801 253.85L63.8487 252.319C64.0112 251.788 64.1361 251.226 64.2861 250.651C64.611 249.495 64.8422 248.239 65.1171 246.902C65.6349 244.032 65.9585 241.131 66.0855 238.218C66.1677 235.297 66.0529 232.375 65.7419 229.47C65.5669 228.14 65.417 226.865 65.1796 225.722C65.0671 225.134 64.9859 224.559 64.8609 224.022L64.5048 222.466C64.2923 221.467 64.0174 220.592 63.805 219.811C63.5926 219.03 63.3801 218.368 63.1802 217.824C62.9803 217.28 62.874 216.893 62.7741 216.574C62.7122 216.422 62.6681 216.262 62.6429 216.1Z" fill="#263238" />
	<path d="M85.7303 207.383C85.733 207.433 85.733 207.483 85.7303 207.533C85.7303 207.652 85.6865 207.789 85.6616 207.964C85.5928 208.339 85.5053 208.902 85.3554 209.614C85.0555 211.038 84.5619 213.088 83.7934 215.574C83.0249 218.061 81.969 220.979 80.7194 224.184C79.4698 227.389 78.0327 230.882 76.6644 234.6C75.2961 238.317 74.209 241.941 73.203 245.221C72.1971 248.501 71.2599 251.469 70.3415 253.906C69.6372 255.837 68.8258 257.726 67.911 259.567C67.5986 260.223 67.2862 260.71 67.13 261.047L66.9113 261.429C66.8883 261.473 66.8611 261.515 66.8301 261.553C66.8301 261.553 66.8301 261.503 66.8863 261.41L67.0675 261.016C67.2362 260.672 67.4986 260.173 67.7985 259.51C68.4233 258.198 69.2543 256.268 70.129 253.825C71.0037 251.382 71.9284 248.426 72.9094 245.134C73.8903 241.841 74.965 238.205 76.3583 234.481C77.7516 230.757 79.1824 227.264 80.4382 224.065C81.6941 220.866 82.775 217.967 83.5622 215.499C84.3495 213.031 84.8868 210.988 85.2242 209.576C85.3929 208.87 85.4991 208.327 85.5866 207.946C85.6303 207.777 85.6615 207.633 85.6865 207.521C85.6938 207.473 85.7086 207.427 85.7303 207.383Z" fill="#263238" />
	<path d="M38.2076 200.067C37.9942 199.865 37.72 199.74 37.4279 199.71C37.1357 199.681 36.842 199.749 36.5925 199.903C36.3429 200.058 36.1515 200.291 36.0481 200.566C35.9447 200.841 35.9351 201.142 36.0208 201.423C36.5471 203.133 37.1944 204.803 37.9577 206.421C40.0758 210.92 46.2988 227.077 49.2041 235.949C52.1094 244.821 56.2081 261.354 56.2081 261.354L62.4561 260.348C62.4561 260.348 56.7642 233.15 51.2097 223.353C46.7299 215.481 42.2626 204.097 38.2076 200.067Z" fill="#455A64" />
	<path d="M50.916 241.479C51.0446 241.719 51.1512 241.97 51.2347 242.229C51.4221 242.716 51.672 243.428 51.9532 244.316C52.528 246.09 53.2028 248.57 53.9338 251.32C54.6648 254.069 55.2271 256.58 55.6333 258.399L56.1019 260.554C56.1636 260.817 56.1992 261.084 56.2081 261.354C56.0938 261.108 56.0078 260.85 55.9519 260.585C55.802 260.017 55.6083 259.305 55.3833 258.455C54.9085 256.58 54.2837 254.125 53.5902 251.401C52.8966 248.677 52.2218 246.171 51.7158 244.384L51.091 242.266C51.0028 242.011 50.9441 241.747 50.916 241.479Z" fill="#263238" />
	<path d="M59.3306 260.854C59.3104 260.8 59.2978 260.743 59.2931 260.685C59.2931 260.554 59.2494 260.392 59.2244 260.198C59.1557 259.767 59.0995 259.123 58.9682 258.324C58.7433 256.687 58.3434 254.337 57.6624 251.451C56.8687 248.088 55.8968 244.77 54.7508 241.51C53.5012 237.824 51.8768 233.844 50.0648 229.72C46.4035 221.485 42.7484 214.188 40.343 208.783C39.1308 206.09 38.1874 203.891 37.5688 202.36C37.2564 201.598 37.0315 200.998 36.8691 200.592L36.7004 200.13C36.677 200.078 36.6602 200.023 36.6504 199.967C36.6504 199.967 36.6504 200.011 36.7316 200.117L36.9316 200.567L37.6876 202.31C38.3686 203.829 39.337 206.009 40.5866 208.683C43.0421 214.057 46.7284 221.335 50.396 229.583C52.2142 233.713 53.8074 237.705 55.0695 241.404C56.2062 244.681 57.1594 248.018 57.9248 251.401C58.4387 253.67 58.8391 255.964 59.1244 258.274C59.2369 259.092 59.2744 259.736 59.3181 260.148C59.3181 260.354 59.3181 260.517 59.3619 260.642C59.3638 260.714 59.3532 260.786 59.3306 260.854Z" fill="#263238" />
	<path d="M62.4549 260.348C62.3612 260.003 62.2923 259.652 62.2487 259.298C62.1237 258.573 61.9613 257.605 61.7613 256.443C61.3365 254.031 60.6804 250.713 59.737 247.071C58.7935 243.428 57.7564 240.242 56.9504 237.93L55.9757 235.193C55.84 234.865 55.7293 234.526 55.6445 234.181C55.8221 234.49 55.9726 234.814 56.0944 235.15C56.3631 235.774 56.7192 236.699 57.169 237.849C58.293 240.842 59.2565 243.893 60.0556 246.99C60.8588 250.079 61.5053 253.207 61.9925 256.362C62.1674 257.574 62.3049 258.555 62.3736 259.242C62.4344 259.607 62.4616 259.977 62.4549 260.348Z" fill="#263238" />
	<path d="M75.2133 259.454H50.9336V289.038H75.2133V259.454Z" fill="#25A5B4" />
	<g opacity="0.3">
		<path d="M75.2133 259.454H50.9336V289.038H75.2133V259.454Z" fill="black" />
	</g>
	<path d="M67.4728 259.454H45.9297V289.038H67.4728V259.454Z" fill="#25A5B4" />
	<path d="M161.043 197.13C161.043 197.13 161.043 219.098 160.768 220.335C160.493 221.573 159.849 228.158 161.455 231.213C163.061 234.268 166.878 240.46 170.202 241.322C173.526 242.185 175.407 241.322 175.407 241.322C175.407 241.322 177.45 227.015 176.782 222.91C176.113 218.805 174.595 209.845 174.595 209.845L164.298 198.161L161.043 197.13Z" fill="#FFBE9D" />
	<path d="M186.922 166.978L196.625 163.998L214.975 162.773L226.078 164.879L214.019 184.204L196.625 182.892L186.922 166.978Z" fill="#FFBE9D" />
	<path d="M225.335 127.097C225.438 131.743 224.556 136.358 222.747 140.639C220.938 144.919 218.243 148.768 214.839 151.932C213.273 147.405 211.708 142.873 210.146 138.337" fill="#263238" />
	<path d="M189.959 100.055C193.989 97.856 198.856 97.5561 203.355 98.4433C207.854 99.3305 212.052 101.38 216.026 103.679C218.25 104.966 220.475 106.385 222.08 108.403C225.004 112.083 227.891 118.125 228.178 122.817C228.403 126.609 226.929 136.106 225.348 139.555C223.873 142.717 216.988 145.122 213.589 145.903L182.418 109.627C182.978 107.612 183.933 105.727 185.228 104.084C186.522 102.441 188.131 101.071 189.959 100.055Z" fill="#263238" />
	<path d="M184.579 104.966L192.077 103.629C187.991 113.363 186.885 135.619 184.542 145.915C181.786 141.917 175.388 129.739 175.732 124.891C176.076 120.042 175.695 104.122 184.579 104.966Z" fill="#263238" />
	<path d="M220.036 121.155C219.902 118.425 218.897 115.81 217.167 113.693C215.438 111.577 213.075 110.071 210.426 109.396L193.207 105.023C185.765 104.223 180.792 113.376 180.305 120.849C179.767 129.146 179.43 137.9 180.398 144.098C182.348 156.55 191.888 158.162 191.888 158.162C191.888 158.162 191.888 164.085 191.888 167.721L207.271 179.911L216.218 165.922L220.067 121.33C220.079 121.092 220.054 121.436 220.036 121.155Z" fill="#FFBE9D" />
	<path d="M184.047 130.227C184.042 130.644 184.2 131.046 184.487 131.349C184.774 131.651 185.167 131.829 185.584 131.845C185.787 131.861 185.991 131.837 186.185 131.773C186.378 131.709 186.557 131.607 186.711 131.473C186.864 131.34 186.99 131.176 187.08 130.994C187.169 130.811 187.222 130.612 187.233 130.408C187.239 129.991 187.081 129.589 186.794 129.287C186.507 128.984 186.113 128.806 185.696 128.79C185.493 128.773 185.289 128.797 185.095 128.86C184.901 128.924 184.722 129.026 184.568 129.16C184.414 129.294 184.289 129.457 184.199 129.641C184.11 129.824 184.058 130.023 184.047 130.227Z" fill="#263238" />
	<path d="M182.174 125.697C182.374 125.91 183.586 125.016 185.298 125.022C187.01 125.029 188.272 125.897 188.46 125.685C188.553 125.591 188.353 125.216 187.804 124.816C187.062 124.298 186.178 124.023 185.273 124.029C184.377 124.021 183.501 124.299 182.774 124.822C182.262 125.229 182.08 125.585 182.174 125.697Z" fill="#263238" />
	<path d="M199.031 130.227C199.027 130.637 199.182 131.033 199.462 131.332C199.743 131.631 200.128 131.81 200.537 131.833C200.74 131.85 200.945 131.826 201.139 131.762C201.333 131.699 201.512 131.597 201.666 131.463C201.82 131.329 201.945 131.165 202.034 130.982C202.124 130.799 202.176 130.599 202.187 130.396C202.193 129.979 202.037 129.577 201.751 129.274C201.465 128.972 201.072 128.794 200.656 128.777C200.454 128.764 200.251 128.791 200.059 128.857C199.867 128.923 199.69 129.026 199.539 129.161C199.388 129.296 199.265 129.46 199.178 129.643C199.091 129.826 199.041 130.024 199.031 130.227Z" fill="#263238" />
	<path d="M198.492 125.697C198.692 125.91 199.904 125.016 201.616 125.022C203.328 125.029 204.597 125.897 204.778 125.685C204.872 125.591 204.672 125.216 204.122 124.816C203.38 124.298 202.496 124.023 201.591 124.029C200.695 124.022 199.82 124.3 199.092 124.822C198.58 125.229 198.399 125.585 198.492 125.697Z" fill="#263238" />
	<path d="M193.126 139.199C193.126 139.099 192.064 138.912 190.333 138.687C189.896 138.643 189.477 138.549 189.408 138.256C189.37 137.801 189.473 137.345 189.702 136.95L191.008 133.613C192.82 128.859 194.132 124.954 193.944 124.866C193.757 124.779 192.126 128.615 190.314 133.345L189.065 136.706C188.792 137.235 188.71 137.842 188.833 138.424C188.899 138.576 188.999 138.712 189.124 138.82C189.25 138.928 189.398 139.006 189.558 139.049C189.8 139.117 190.05 139.153 190.302 139.155C192.039 139.287 193.12 139.293 193.126 139.199Z" fill="#263238" />
	<path d="M208.408 153.701C208.408 153.701 204.353 162.254 191.895 161.061V158.137C197.704 158.215 203.42 156.68 208.408 153.701Z" fill="#EB996E" />
	<path d="M199.037 119.487C199.205 119.955 200.911 119.737 202.936 119.986C204.96 120.236 206.578 120.786 206.847 120.368C206.972 120.168 206.684 119.743 206.028 119.274C205.156 118.71 204.163 118.361 203.129 118.256C202.1 118.125 201.054 118.245 200.08 118.606C199.337 118.899 198.962 119.268 199.037 119.487Z" fill="#263238" />
	<path d="M182.735 120.442C183.035 120.836 184.222 120.442 185.646 120.442C187.071 120.442 188.277 120.711 188.552 120.299C188.677 120.105 188.483 119.711 187.958 119.343C187.253 118.896 186.43 118.67 185.595 118.694C184.76 118.717 183.952 118.989 183.272 119.474C182.766 119.849 182.604 120.249 182.735 120.442Z" fill="#263238" />
	<path d="M183.667 109.446C184.429 107.572 186.485 106.447 188.503 106.322C190.538 106.319 192.531 106.9 194.245 107.997C201.661 112.283 205.491 122.636 212.802 127.072C214.607 128.165 216.95 127.166 218.481 128.609C220.012 130.052 221.011 132.358 220.162 134.288C221.212 132.985 222.068 131.537 222.705 129.99C223.019 129.213 223.163 128.377 223.128 127.54C223.092 126.703 222.878 125.883 222.498 125.135C221.874 124.035 220.743 123.198 220.437 121.967C220.168 120.886 220.593 119.755 220.549 118.637C220.423 117.504 220.031 116.416 219.406 115.463C216.538 110.383 212.589 105.797 207.503 102.967C204.186 101.046 200.408 100.067 196.576 100.137C192.728 100.228 189.04 101.693 186.179 104.267C184.536 105.791 182.817 107.391 183.68 109.446" fill="#263238" />
	<path d="M218.33 130.177C218.461 129.821 224.953 127.478 225.04 134.382C225.122 141.086 218.355 139.767 218.343 139.574C218.33 139.38 218.33 130.177 218.33 130.177Z" fill="#FFBE9D" />
	<path d="M220.385 137.012C220.416 137.012 220.504 137.093 220.704 137.181C220.985 137.293 221.298 137.293 221.578 137.181C222.285 136.912 222.872 135.781 222.891 134.575C222.905 133.998 222.787 133.426 222.547 132.901C222.482 132.692 222.367 132.503 222.213 132.348C222.058 132.193 221.868 132.079 221.66 132.014C221.525 131.985 221.384 132.002 221.26 132.062C221.135 132.122 221.034 132.222 220.972 132.345C220.885 132.532 220.929 132.664 220.897 132.676C220.866 132.689 220.748 132.564 220.804 132.289C220.836 132.121 220.927 131.971 221.06 131.864C221.239 131.729 221.462 131.667 221.685 131.689C221.964 131.738 222.225 131.857 222.444 132.037C222.663 132.217 222.832 132.45 222.934 132.714C223.228 133.294 223.374 133.938 223.359 134.588C223.359 135.938 222.647 137.212 221.678 137.5C221.499 137.553 221.31 137.566 221.125 137.537C220.94 137.508 220.764 137.437 220.61 137.331C220.404 137.175 220.366 137.025 220.385 137.012Z" fill="#EB996E" />
	<path d="M220.998 126.728C220.855 126.667 220.719 126.591 220.592 126.503C220.336 126.341 219.936 126.122 219.467 125.791C218.147 124.82 216.933 123.715 215.843 122.492C214.262 120.658 212.785 118.737 211.42 116.737C209.767 114.298 207.915 111.999 205.884 109.865C204.798 108.799 203.599 107.855 202.31 107.047C201.099 106.306 199.803 105.717 198.449 105.291C196.157 104.554 193.746 104.26 191.345 104.423C189.723 104.519 188.122 104.833 186.584 105.353C186.034 105.522 185.628 105.703 185.334 105.816C185.191 105.88 185.043 105.93 184.891 105.966C185.025 105.887 185.165 105.818 185.309 105.76C185.714 105.56 186.131 105.387 186.559 105.241C188.097 104.67 189.708 104.321 191.345 104.204C193.776 104.013 196.222 104.291 198.549 105.022C199.925 105.448 201.245 106.04 202.479 106.784C203.788 107.606 205.005 108.565 206.109 109.646C208.155 111.798 210.011 114.122 211.657 116.594C213.012 118.594 214.472 120.521 216.031 122.367C217.095 123.594 218.278 124.713 219.561 125.709C220.023 126.059 220.404 126.291 220.648 126.472C220.771 126.548 220.888 126.633 220.998 126.728Z" fill="#455A64" />
	<path d="M221.155 138.199C221.484 138.142 221.823 138.212 222.103 138.395C222.383 138.578 222.583 138.86 222.662 139.185C222.741 139.51 222.695 139.852 222.531 140.144C222.367 140.435 222.099 140.654 221.78 140.755C221.457 140.867 221.104 140.85 220.794 140.707C220.484 140.564 220.241 140.306 220.117 139.988C219.993 139.67 219.998 139.316 220.13 139.001C220.261 138.686 220.51 138.434 220.824 138.299" fill="white" />
	<path d="M220.837 138.299C220.54 138.527 220.322 138.842 220.212 139.199C220.164 139.383 220.162 139.576 220.208 139.761C220.254 139.945 220.346 140.115 220.475 140.255C220.625 140.431 220.824 140.558 221.047 140.621C221.269 140.684 221.505 140.68 221.725 140.609C221.946 140.538 222.14 140.404 222.284 140.223C222.429 140.042 222.516 139.823 222.536 139.593C222.559 139.406 222.535 139.216 222.467 139.04C222.398 138.865 222.287 138.709 222.143 138.587C221.85 138.358 221.495 138.223 221.124 138.199C221.124 138.199 221.231 138.131 221.443 138.125C221.634 138.127 221.822 138.169 221.996 138.248C222.171 138.326 222.327 138.439 222.456 138.58C222.584 138.721 222.683 138.887 222.745 139.068C222.807 139.248 222.832 139.44 222.818 139.63C222.797 139.918 222.69 140.193 222.512 140.42C222.333 140.647 222.09 140.815 221.815 140.903C221.54 140.99 221.245 140.993 220.968 140.911C220.691 140.829 220.445 140.666 220.262 140.443C220.11 140.267 220.006 140.055 219.96 139.827C219.914 139.6 219.928 139.364 220 139.143C220.089 138.853 220.268 138.599 220.512 138.418C220.718 138.299 220.831 138.281 220.837 138.299Z" fill="#263238" />
	<path d="M219.311 128.627C219.417 130.458 219.499 132.376 218.655 134.019C217.812 135.663 215.669 136.756 214.082 135.844C212.782 135.106 212.388 133.438 212.17 131.958C211.545 127.69 211.245 123.367 210.57 119.099L219.311 128.627Z" fill="#263238" />
	<path d="M185.342 106.26C185.342 106.297 185.935 106.147 187.01 106.11C188.528 106.085 190.035 106.361 191.446 106.922C192.42 107.3 193.352 107.78 194.226 108.353C195.226 109.027 196.186 109.76 197.101 110.546C199.21 112.332 201.098 114.365 202.724 116.6C203.58 117.793 204.336 119.024 205.148 120.168C205.922 121.277 206.826 122.29 207.841 123.185C209.576 124.665 211.478 125.938 213.508 126.978C215.226 127.89 216.632 128.521 217.65 128.965L218.794 129.452C218.925 129.516 219.063 129.564 219.206 129.596C219.089 129.508 218.961 129.437 218.825 129.383L217.713 128.827C216.738 128.353 215.326 127.678 213.633 126.747C211.647 125.679 209.782 124.399 208.072 122.929C207.085 122.042 206.207 121.042 205.454 119.949C204.648 118.824 203.892 117.593 203.036 116.381C201.394 114.119 199.478 112.068 197.332 110.277C196.405 109.489 195.43 108.759 194.414 108.09C193.515 107.513 192.556 107.038 191.552 106.672C190.106 106.121 188.561 105.881 187.016 105.966C186.596 105.988 186.178 106.045 185.767 106.135C185.62 106.159 185.478 106.201 185.342 106.26Z" fill="#455A64" />
	<path d="M219.492 124.485C219.684 124.642 219.894 124.777 220.117 124.885L221.816 125.884L222.391 126.209C222.615 126.342 222.864 126.425 223.122 126.453C223.282 126.468 223.442 126.431 223.578 126.347C223.649 126.294 223.708 126.228 223.751 126.151C223.794 126.075 223.82 125.99 223.828 125.903C223.812 125.594 223.7 125.297 223.51 125.053C222.885 124.085 222.26 123.023 221.542 121.898L221.273 122.148C222.587 123.116 224.198 123.596 225.828 123.504C226.04 123.503 226.251 123.467 226.452 123.398C226.567 123.365 226.672 123.308 226.762 123.23C226.851 123.152 226.923 123.056 226.971 122.948C227.01 122.834 227.02 122.712 227 122.593C226.981 122.474 226.932 122.362 226.859 122.267C226.744 122.116 226.617 121.976 226.477 121.848C225.593 120.991 224.824 120.023 224.191 118.968C223.634 117.973 223.15 116.939 222.741 115.875C222.77 116.185 222.841 116.49 222.954 116.781C223.212 117.585 223.549 118.361 223.96 119.099C224.575 120.199 225.34 121.208 226.234 122.098C226.484 122.335 226.734 122.604 226.634 122.817C226.534 123.029 226.178 123.135 225.821 123.135C224.278 123.21 222.755 122.756 221.504 121.848L220.704 121.261L221.242 122.098L223.253 125.222C223.404 125.4 223.501 125.616 223.535 125.847C223.531 125.892 223.518 125.935 223.497 125.975C223.475 126.014 223.445 126.048 223.409 126.075C223.372 126.102 223.331 126.12 223.287 126.129C223.243 126.138 223.197 126.138 223.154 126.128C222.723 126.046 222.313 125.878 221.948 125.634L220.192 124.735C219.97 124.622 219.735 124.538 219.492 124.485Z" fill="#455A64" />
	<path d="M199.661 142.367C199.535 141.857 199.234 141.406 198.811 141.095C198.387 140.783 197.868 140.63 197.343 140.661C196.961 140.711 196.596 140.854 196.281 141.078C195.967 141.301 195.711 141.598 195.538 141.942C195.373 142.291 195.28 142.669 195.263 143.054C195.245 143.439 195.305 143.823 195.438 144.185L195.475 144.348C195.831 144.735 196.299 145.003 196.813 145.115C197.328 145.227 197.864 145.177 198.349 144.972C198.824 144.743 199.211 144.364 199.448 143.893C199.685 143.422 199.76 142.885 199.661 142.367Z" fill="#EB996E" />
	<path d="M194.225 144.385C194.225 144.122 195.962 144.204 197.274 142.779C198.586 141.355 198.48 139.493 198.723 139.493C198.836 139.493 199.042 139.924 199.023 140.705C198.987 141.723 198.593 142.697 197.911 143.454C197.258 144.189 196.343 144.637 195.362 144.704C194.631 144.716 194.212 144.504 194.225 144.385Z" fill="#263238" />
	<path d="M174.608 237.686L175.42 242.416L174.658 244.99C174.658 244.99 166.804 254.987 164.286 262.347C161.768 269.707 161.574 289.095 161.574 289.095L251.046 289.038C251.046 289.038 247.922 260.241 236.675 251.175V249.107L239.456 244.99C239.456 244.99 240.393 241.803 236.332 242.278C234.72 242.466 174.608 237.686 174.608 237.686Z" fill="#455A64" />
	<path d="M237.174 248.408H236.549L234.731 248.364C233.157 248.327 230.876 248.296 228.052 248.314C225.228 248.333 221.873 248.396 218.143 248.471C214.413 248.546 210.314 248.62 206.003 248.552C201.95 248.497 197.902 248.238 193.875 247.777C190.587 247.398 187.327 246.803 184.116 245.996C181.952 245.457 179.822 244.789 177.737 243.997C176.993 243.728 176.437 243.466 176.05 243.31L175.619 243.116C175.519 243.072 175.469 243.047 175.475 243.041L175.631 243.085L176.075 243.247C176.469 243.385 177.031 243.628 177.781 243.872C179.877 244.607 182.011 245.232 184.172 245.746C187.38 246.517 190.634 247.084 193.913 247.446C197.612 247.877 201.704 248.114 206.009 248.196C210.314 248.277 214.406 248.196 218.136 248.139C221.867 248.083 225.228 248.033 228.052 248.052C230.876 248.071 233.163 248.127 234.737 248.208C235.525 248.239 236.137 248.283 236.549 248.314L237.024 248.352C237.124 248.389 237.18 248.402 237.174 248.408Z" fill="#263238" />
	<path d="M237.175 252.556C237.123 252.566 237.07 252.566 237.018 252.556H236.543L234.725 252.513C233.151 252.475 230.87 252.444 228.046 252.463C225.222 252.482 221.867 252.544 218.137 252.619C214.407 252.694 210.308 252.769 205.997 252.7C201.686 252.631 197.581 252.369 193.87 251.925C190.581 251.547 187.321 250.952 184.11 250.145C181.946 249.604 179.816 248.934 177.731 248.139C176.988 247.87 176.431 247.614 176.044 247.458L175.613 247.264C175.513 247.221 175.463 247.196 175.469 247.189L175.625 247.233L176.069 247.396C176.463 247.533 177.025 247.771 177.775 248.02C179.871 248.756 182.005 249.381 184.166 249.895C187.375 250.665 190.628 251.233 193.907 251.594C197.606 252.025 201.698 252.263 206.003 252.344C210.308 252.425 214.401 252.344 218.131 252.288C221.861 252.232 225.222 252.182 228.046 252.2C230.87 252.219 233.157 252.275 234.732 252.357C235.519 252.388 236.131 252.432 236.543 252.463L237.018 252.5C237.125 252.544 237.181 252.55 237.175 252.556Z" fill="#263238" />
	<path d="M178.438 257.418C178.487 256.975 178.605 256.543 178.787 256.137C179.158 255.131 179.631 254.165 180.199 253.256C180.762 252.345 181.415 251.493 182.149 250.713C182.433 250.371 182.768 250.074 183.142 249.833C183.217 249.901 181.768 251.32 180.474 253.425C179.181 255.531 178.531 257.418 178.438 257.418Z" fill="#263238" />
	<path d="M181.618 263.172C181.579 263 181.568 262.822 181.587 262.647C181.592 262.169 181.623 261.691 181.681 261.216C181.872 259.649 182.21 258.103 182.693 256.599C183.165 255.097 183.754 253.635 184.455 252.225C184.717 251.626 185.042 251.057 185.423 250.526C185.206 251.139 184.951 251.737 184.661 252.319C184.033 253.747 183.48 255.207 183.005 256.693C182.53 258.182 182.164 259.704 181.912 261.247C181.718 262.416 181.668 263.178 181.618 263.172Z" fill="#263238" />
	<path d="M183.735 240.548C183.828 240.832 183.889 241.125 183.916 241.423C184.063 242.119 184.259 242.804 184.504 243.472C185.06 245.046 185.803 246.202 185.753 246.252C185.047 245.491 184.526 244.579 184.229 243.584C183.969 242.899 183.799 242.183 183.723 241.454C183.651 241.156 183.655 240.844 183.735 240.548Z" fill="#263238" />
	<path d="M186.385 242.422C186.704 243.074 186.927 243.768 187.047 244.484C187.274 245.174 187.394 245.895 187.403 246.621C186.854 245.281 186.51 243.865 186.385 242.422Z" fill="#263238" />
	<path d="M202.373 241.797C202.59 243.916 202.59 246.052 202.373 248.17C202.157 246.052 202.157 243.916 202.373 241.797Z" fill="#263238" />
	<path d="M204.372 243.428C204.84 245.026 204.796 246.73 204.247 248.302C204.154 248.302 204.335 247.202 204.366 245.865C204.397 244.528 204.285 243.441 204.372 243.428Z" fill="#263238" />
	<path d="M209.777 258.18C209.546 257.279 209.371 256.365 209.252 255.443C209.024 254.539 208.857 253.62 208.752 252.694C209.174 253.537 209.45 254.445 209.57 255.38C209.8 256.295 209.869 257.242 209.777 258.18Z" fill="#263238" />
	<path d="M156.175 195.881C156 195.313 162.573 176.512 166.472 173.663C170.371 170.814 187.971 166.734 187.971 166.734C187.971 166.734 195.381 174.044 205.316 172.526C215.25 171.008 222.879 163.998 222.879 163.998C222.879 163.998 241.679 166.459 244.872 168.734C248.065 171.008 256.743 191.62 256.743 191.62L241.423 204.385L240.067 215.943C240.067 215.943 240.779 240.017 239.18 242.485C237.58 244.953 174.976 238.674 174.976 238.674C174.976 238.674 171.783 238.105 174.263 232.426C176.744 226.746 178.524 222.947 178.524 222.947C178.524 222.947 174.088 218.018 173.376 209.296C172.664 200.573 170.921 199.636 170.921 199.636L156.175 195.881Z" fill="#25A5B4" />
	<path d="M239.987 215.5C239.893 215.5 240.837 207.652 242.092 198.005C243.348 188.358 244.429 180.511 244.517 180.542C244.604 180.573 243.648 188.383 242.399 198.061C241.149 207.74 240.074 215.512 239.987 215.5Z" fill="#263238" />
	<path d="M172.882 202.835C172.801 202.866 171.632 200.055 170.264 196.55C168.896 193.044 167.865 190.183 167.946 190.152C168.027 190.12 169.196 192.932 170.57 196.431C171.945 199.93 172.969 202.804 172.882 202.835Z" fill="#263238" />
	<g opacity="0.3">
		<path d="M192.733 212.85C192.45 211.222 191.772 209.688 190.759 208.383C189.291 206.721 186.966 206.015 184.754 206.028C182.537 206.146 180.347 206.577 178.25 207.308L174.258 213.556C174.388 213.934 174.602 214.277 174.883 214.56C175.164 214.844 175.506 215.06 175.882 215.193C176.634 215.455 177.423 215.596 178.219 215.612C182.351 215.912 186.483 216.085 190.615 216.131C191.148 216.186 191.686 216.086 192.165 215.843C193.039 215.231 192.977 213.9 192.733 212.85Z" fill="black" />
	</g>
	<path d="M165.447 184.203C165.58 184.409 165.689 184.629 165.772 184.859C165.966 185.284 166.228 185.909 166.541 186.69C167.165 188.246 168.003 190.439 168.846 192.832C169.69 195.225 170.389 197.461 170.858 199.08C171.095 199.879 171.283 200.535 171.395 200.991C171.476 201.221 171.526 201.461 171.545 201.704C171.433 201.489 171.343 201.263 171.277 201.029L170.652 199.155C170.127 197.561 169.402 195.362 168.553 192.95C167.703 190.539 166.916 188.358 166.341 186.784C166.072 186.046 165.847 185.421 165.666 184.909C165.565 184.683 165.492 184.446 165.447 184.203Z" fill="#263238" />
	<path d="M165.415 186.19L172.419 211.738C172.542 212.157 172.798 212.523 173.149 212.78C173.501 213.038 173.927 213.172 174.362 213.163H189.551C189.844 213.173 190.135 213.116 190.402 212.997C190.669 212.878 190.906 212.7 191.094 212.476C191.283 212.253 191.418 211.989 191.489 211.705C191.561 211.421 191.567 211.125 191.507 210.839L185.365 185.303C185.253 184.873 184.999 184.492 184.644 184.224C184.289 183.955 183.855 183.814 183.41 183.822H167.352C167.056 183.812 166.762 183.871 166.493 183.993C166.223 184.115 165.985 184.298 165.798 184.527C165.611 184.756 165.479 185.026 165.412 185.314C165.346 185.603 165.347 185.902 165.415 186.19Z" fill="#263238" />
	<path d="M170.69 190.964C170.69 190.964 168.878 190.102 167.447 190.964C166.016 191.826 163.698 195.637 163.698 195.637L162.268 201.698L163.249 209.933L163.636 213.75L172.883 214.8V211.745L183.473 203.828C183.473 203.828 187.191 202.797 186.903 201.692C186.616 200.586 186.141 199.817 185.092 200.017C184.042 200.217 172.695 203.141 172.695 203.141C172.695 203.141 170.884 203.522 170.977 203.041C171.071 202.56 176.319 200.086 177.175 199.511C178.031 198.936 182.042 197.987 181.549 196.175C181.489 195.848 181.356 195.539 181.16 195.271C180.964 195.003 180.71 194.783 180.416 194.627C180.123 194.471 179.798 194.384 179.466 194.372C179.134 194.36 178.804 194.423 178.5 194.556L169.34 197.893L167.816 198.274L168.009 195.887L169.628 193.694C169.772 193.74 169.925 193.756 170.076 193.742C170.227 193.727 170.374 193.683 170.508 193.61C170.641 193.538 170.759 193.44 170.853 193.321C170.948 193.202 171.018 193.066 171.059 192.919C171.187 192.592 171.22 192.234 171.155 191.889C171.09 191.543 170.929 191.222 170.69 190.964Z" fill="#FFBE9D" />
	<path d="M169.459 197.849C168.756 198.252 168.001 198.559 167.216 198.761C166.468 199.076 165.679 199.287 164.873 199.386C165.578 198.986 166.332 198.68 167.116 198.474C167.866 198.162 168.654 197.952 169.459 197.849Z" fill="#EB996E" />
	<path d="M171.546 203.354C170.889 203.716 170.184 203.983 169.452 204.147C168.751 204.415 168.014 204.579 167.266 204.634C168.623 204.008 170.065 203.587 171.546 203.385V203.354Z" fill="#EB996E" />
	<path d="M182.891 203.922C182.729 204.051 182.55 204.158 182.36 204.241C182.004 204.428 181.485 204.684 180.829 204.984C179.13 205.752 177.393 206.431 175.625 207.021C173.855 207.615 172.055 208.114 170.232 208.514C169.533 208.67 168.983 208.777 168.564 208.839C168.359 208.887 168.15 208.91 167.939 208.908C168.67 208.656 169.415 208.447 170.17 208.283C171.551 207.927 173.45 207.396 175.512 206.708C177.574 206.021 179.411 205.303 180.735 204.765C181.437 204.444 182.157 204.162 182.891 203.922Z" fill="#EB996E" />
	<path d="M166.121 208.402C166.09 208.483 165.497 208.171 165.309 207.446C165.122 206.721 165.434 206.152 165.503 206.196C165.571 206.24 165.447 206.746 165.621 207.346C165.796 207.946 166.171 208.327 166.121 208.402Z" fill="#EB996E" />
	<path d="M164.297 203.585C164.297 203.622 164.128 203.585 163.916 203.478C163.65 203.296 163.45 203.032 163.347 202.727C163.243 202.422 163.241 202.092 163.341 201.785C163.428 201.554 163.541 201.448 163.578 201.466C163.616 201.485 163.441 202.023 163.66 202.622C163.878 203.222 164.297 203.497 164.297 203.585Z" fill="#EB996E" />
	<path d="M163.243 197.687C163.248 197.788 163.237 197.889 163.211 197.986C163.168 198.218 163.111 198.493 163.049 198.836C162.893 199.623 162.674 200.711 162.424 201.998V201.96C162.83 204.859 163.386 209.058 163.992 213.769V213.806V213.85C163.874 214.169 163.742 214.506 163.617 214.85C162.254 218.704 161.619 222.778 161.743 226.865C161.778 228.102 161.88 229.337 162.049 230.563C162.105 230.97 162.149 231.301 162.187 231.563C162.212 231.68 162.223 231.8 162.218 231.919C162.176 231.808 162.145 231.693 162.124 231.576C162.074 231.351 161.993 231.02 161.918 230.582C161.706 229.355 161.57 228.115 161.512 226.871C161.317 222.748 161.929 218.626 163.311 214.737C163.436 214.394 163.567 214.05 163.686 213.731V213.813C163.061 209.095 162.562 204.897 162.224 201.985L162.968 198.861C163.055 198.524 163.124 198.236 163.18 198.024C163.192 197.91 163.213 197.797 163.243 197.687Z" fill="#EB996E" />
	<path d="M174.407 210.851C173.807 211.47 173.086 211.959 172.289 212.288C171.536 212.71 170.704 212.972 169.846 213.057C169.846 212.969 170.895 212.607 172.145 211.994C173.395 211.382 174.351 210.77 174.407 210.851Z" fill="#EB996E" />
	<path d="M233.025 223.835C233.025 223.835 235.443 224.459 235.681 226.034C235.918 227.608 233.988 254.775 233.988 254.775H236.287C236.287 254.775 237.205 227.865 237.168 225.94C237.13 224.016 236.218 223.891 235.874 223.753C234.939 223.484 233.944 223.512 233.025 223.835Z" fill="#263238" />
	<path d="M231.808 223.784L242.873 224.209L240.668 210.851L241.424 204.384L256.088 192.138C256.088 192.138 261.217 221.891 261.68 225.328C262.229 229.451 261.43 234.918 259.43 236.874C257.725 238.536 245.435 236.874 240.686 236.874C238.062 236.874 231.789 236.918 231.789 236.918L229.59 226.658L231.808 223.784Z" fill="#FFBE9D" />
	<path d="M259.431 224.247C259.387 224.303 258.637 223.622 257.194 222.997C255.324 222.152 253.274 221.783 251.227 221.923C250.106 221.998 249.001 222.233 247.947 222.622C246.978 222.972 246.141 223.435 245.398 223.722C244.812 223.972 244.193 224.136 243.561 224.209C243.332 224.253 243.096 224.253 242.867 224.209C243.71 224.116 244.533 223.888 245.304 223.535C246.029 223.222 246.847 222.747 247.841 222.366C248.919 221.949 250.055 221.699 251.208 221.623C253.306 221.478 255.405 221.887 257.294 222.81C257.859 223.091 258.399 223.421 258.906 223.797C259.098 223.926 259.274 224.077 259.431 224.247Z" fill="#EB996E" />
	<path d="M220.398 248.42C219.992 248.939 215.318 289.201 215.318 289.201L263.884 289.039L256.187 248.545L220.398 248.42Z" fill="#25A5B4" />
	<path d="M228.453 289.095C228.365 289.095 227.859 280.048 227.328 268.876C226.797 257.705 226.441 248.67 226.535 248.67C226.628 248.67 227.122 257.718 227.653 268.889C228.184 280.06 228.54 289.089 228.453 289.095Z" fill="#263238" />
	<path d="M208.659 224.459C210.001 224.264 211.328 223.983 212.633 223.616C213.244 223.318 213.835 222.98 214.401 222.604L220.649 222.098L231.802 223.785C231.802 223.785 233.676 225.134 233.408 229.277C233.179 232.051 232.582 234.782 231.633 237.399C231.633 237.399 226.635 241.466 225.298 241.716C223.961 241.966 216.338 241.541 215.582 240.948C215.135 240.61 214.761 240.185 214.482 239.698C214.075 239.49 213.747 239.155 213.549 238.743C213.35 238.331 213.292 237.866 213.383 237.418C213.383 237.418 210.765 234.038 210.427 232.601C210.09 231.164 210.509 230.826 210.509 230.826C210.509 230.826 209.753 228.883 210.34 228.208C210.488 228.044 210.667 227.91 210.868 227.817C211.068 227.723 211.285 227.671 211.507 227.663C211.728 227.656 211.948 227.693 212.155 227.773C212.361 227.852 212.549 227.973 212.708 228.127C213.301 228.802 217.019 228.296 217.019 228.296L220.312 226.096C218.617 226.527 216.895 226.838 215.157 227.027C213.389 227.077 208.066 228.264 208.659 224.459Z" fill="#FFBE9D" />
	<path d="M221.585 232.425C221.585 232.475 220.904 232.594 219.842 232.963C219.311 233.144 218.68 233.381 217.967 233.587C217.185 233.85 216.368 233.998 215.543 234.025C214.698 234.051 213.863 233.834 213.138 233.4C212.564 233.037 212.055 232.581 211.632 232.05C211.348 231.701 211.088 231.334 210.851 230.951C210.682 230.682 210.601 230.526 210.62 230.513C210.639 230.501 211.063 231.063 211.807 231.9C212.233 232.391 212.732 232.813 213.288 233.15C213.972 233.539 214.751 233.729 215.537 233.7C217.224 233.656 218.661 233.013 219.779 232.725C220.359 232.521 220.97 232.42 221.585 232.425Z" fill="#EB996E" />
	<path d="M223.86 229.451C223.891 229.451 224.01 229.526 224.097 229.757C224.204 230.059 224.204 230.387 224.097 230.688C223.996 230.993 223.79 231.251 223.516 231.419C223.304 231.544 223.154 231.544 223.135 231.507C223.117 231.469 223.591 231.176 223.791 230.582C223.991 229.988 223.779 229.489 223.86 229.451Z" fill="#EB996E" />
	<path d="M223.611 236.843C223.099 236.99 222.574 237.085 222.042 237.124C221.068 237.261 219.718 237.424 218.231 237.58C217.527 237.674 216.817 237.729 216.107 237.742C215.516 237.754 214.928 237.661 214.37 237.467C213.835 237.324 213.373 236.988 213.07 236.524C213.487 236.837 213.951 237.082 214.445 237.249C214.985 237.404 215.546 237.469 216.107 237.442C216.732 237.442 217.45 237.336 218.194 237.261C219.687 237.099 221.037 236.974 222.017 236.899C222.545 236.827 223.079 236.808 223.611 236.843Z" fill="#EB996E" />
	<path d="M226.497 234.168C226.535 234.168 226.653 234.293 226.735 234.575C226.841 234.942 226.841 235.332 226.735 235.699C226.63 236.067 226.427 236.4 226.147 236.661C225.929 236.849 225.754 236.905 225.735 236.874C225.716 236.843 226.216 236.374 226.422 235.624C226.506 235.144 226.531 234.655 226.497 234.168Z" fill="#EB996E" />
	<path d="M224.704 240.248C224.221 240.39 223.721 240.465 223.217 240.473C220.8 240.665 218.369 240.514 215.994 240.023C215.495 239.955 215.007 239.818 214.545 239.617C215.045 239.632 215.543 239.693 216.032 239.798C216.944 239.935 218.206 240.092 219.606 240.179C221.005 240.266 222.28 240.266 223.205 240.248C223.703 240.2 224.205 240.2 224.704 240.248Z" fill="#EB996E" />
	<path d="M235.275 223.603C235.275 223.603 237.462 225.24 237.868 226.234C238.274 227.227 242.642 248.414 242.642 248.414H244.516C244.516 248.414 240.061 225.459 238.974 224.572C238.583 224.256 238.165 223.976 237.725 223.735C237.357 223.54 236.952 223.427 236.537 223.402C236.123 223.377 235.707 223.442 235.319 223.591L235.275 223.603Z" fill="#263238" />
	<path d="M192.608 227.765C191.986 227.847 191.356 227.847 190.734 227.765C187.762 227.486 184.896 226.514 182.368 224.928C181.83 224.622 181.332 224.251 180.887 223.822C180.918 223.778 181.512 224.178 182.486 224.728C183.765 225.454 185.11 226.057 186.504 226.527C187.897 226.994 189.329 227.333 190.784 227.54C191.908 227.677 192.608 227.715 192.608 227.765Z" fill="#263238" />
	<g opacity="0.3">
		<path d="M203.561 227.427C202.414 227.327 201.26 227.371 200.124 227.558C194.282 228.183 188.253 228.183 182.898 225.19C183.667 226.797 184.983 228.077 186.61 228.802C188.462 229.435 190.407 229.754 192.364 229.745C197.064 229.937 201.771 229.728 206.435 229.12C206.111 228.643 205.685 228.244 205.188 227.951C204.691 227.658 204.135 227.479 203.561 227.427Z" fill="black" />
	</g>
	<path d="M185.721 167.447C185.721 165.23 184.841 163.103 183.273 161.535C181.705 159.968 179.579 159.087 177.362 159.087H126.465C124.289 159.146 122.221 160.053 120.702 161.614C119.184 163.174 118.334 165.266 118.334 167.444C118.334 169.621 119.184 171.713 120.702 173.274C122.221 174.834 124.289 175.741 126.465 175.8H156.887C159.742 178.556 164.622 182.273 164.622 182.273V175.494L177.974 175.763C182.541 175.625 185.721 171.82 185.721 167.447Z" fill="white" />
	<path d="M185.721 167.447C185.721 167.447 185.721 167.596 185.721 167.903C185.71 168.352 185.66 168.799 185.572 169.24C185.434 169.959 185.207 170.658 184.897 171.32C184.458 172.224 183.861 173.043 183.135 173.738C182.215 174.603 181.097 175.23 179.88 175.563C179.54 175.653 179.196 175.726 178.849 175.781C178.486 175.823 178.121 175.846 177.755 175.85L175.45 175.813L164.628 175.619L164.747 175.5C164.747 177.637 164.747 179.905 164.747 182.267V182.535L164.541 182.373C162.042 180.442 159.374 178.343 156.781 175.9L156.881 175.944H138.449H128.421C127.559 175.944 126.715 175.975 125.828 175.913C124.125 175.778 122.502 175.137 121.166 174.073C119.83 173.009 118.842 171.569 118.331 169.939C118.126 169.257 118.004 168.552 117.968 167.84C117.937 167.133 117.987 166.424 118.118 165.728C118.265 165.039 118.493 164.37 118.799 163.735C119.398 162.486 120.294 161.403 121.408 160.581C122.522 159.759 123.821 159.222 125.191 159.018C125.855 158.927 126.526 158.892 127.196 158.912H140.555L166.54 158.949H176.537C177.249 158.926 177.962 158.964 178.667 159.062C179.323 159.165 179.964 159.343 180.579 159.593C181.651 160.04 182.619 160.704 183.422 161.542C184.066 162.205 184.59 162.975 184.972 163.816C185.127 164.152 185.262 164.496 185.378 164.847C185.465 165.172 185.54 165.472 185.596 165.735C185.674 166.147 185.718 166.565 185.728 166.984C185.728 167.265 185.728 167.409 185.728 167.409C185.728 167.409 185.728 167.265 185.69 166.984C185.664 166.565 185.61 166.147 185.528 165.735C185.465 165.472 185.384 165.179 185.29 164.86C185.176 164.514 185.038 164.175 184.878 163.848C184.493 163.019 183.967 162.264 183.322 161.617C182.524 160.808 181.57 160.17 180.517 159.743C179.913 159.503 179.285 159.333 178.642 159.237C177.945 159.142 177.24 159.109 176.537 159.137H166.54H140.555H127.196C126.543 159.113 125.889 159.147 125.241 159.237C123.586 159.497 122.048 160.254 120.833 161.408C119.618 162.562 118.782 164.058 118.437 165.697C118.178 167.045 118.246 168.436 118.637 169.752C118.848 170.409 119.138 171.038 119.499 171.626C120.173 172.731 121.102 173.658 122.207 174.33C123.313 175.003 124.563 175.402 125.853 175.494C126.69 175.556 127.571 175.494 128.421 175.525H138.455H156.887H156.943L156.987 175.563C159.555 177.993 162.216 180.099 164.703 182.036L164.491 182.136C164.491 179.774 164.491 177.506 164.491 175.369V175.25H164.616L175.431 175.494C177.018 175.494 178.518 175.688 179.805 175.275C181 174.995 182.11 174.431 183.041 173.632C183.762 172.955 184.357 172.156 184.797 171.27C185.311 170.215 185.612 169.068 185.684 167.896C185.703 167.59 185.721 167.447 185.721 167.447Z" fill="#263238" />
	<path d="M174.737 170.052C174.604 170.061 174.47 170.061 174.337 170.052C173.737 169.972 173.173 169.715 172.718 169.315C172.263 168.915 171.936 168.389 171.78 167.803C171.623 167.217 171.644 166.599 171.839 166.025C172.034 165.451 172.394 164.947 172.875 164.578C173.355 164.209 173.935 163.99 174.54 163.95C175.144 163.91 175.747 164.05 176.273 164.352C176.798 164.654 177.222 165.105 177.492 165.648C177.761 166.191 177.864 166.802 177.786 167.403C177.682 168.138 177.317 168.81 176.757 169.297C176.196 169.784 175.479 170.052 174.737 170.052ZM174.737 164.535C174.144 164.535 173.571 164.751 173.126 165.143C172.681 165.536 172.394 166.077 172.319 166.665C172.238 167.308 172.413 167.957 172.807 168.47C173.202 168.984 173.783 169.321 174.425 169.408C175.069 169.492 175.719 169.316 176.233 168.92C176.748 168.524 177.084 167.94 177.168 167.297C177.21 166.978 177.189 166.655 177.106 166.344C177.023 166.034 176.879 165.743 176.684 165.488C176.488 165.234 176.244 165.02 175.966 164.86C175.688 164.699 175.381 164.595 175.062 164.554C174.952 164.541 174.842 164.535 174.731 164.535H174.737Z" fill="#263238" />
	<path d="M178.91 170.771C178.837 170.769 178.766 170.743 178.71 170.696L176.705 169.021C176.673 168.995 176.647 168.963 176.628 168.926C176.609 168.89 176.597 168.85 176.593 168.809C176.589 168.768 176.594 168.727 176.606 168.688C176.618 168.649 176.638 168.612 176.664 168.581C176.69 168.549 176.723 168.523 176.759 168.504C176.795 168.485 176.835 168.473 176.876 168.469C176.917 168.465 176.958 168.47 176.997 168.482C177.036 168.494 177.073 168.514 177.105 168.54L179.11 170.214C179.174 170.268 179.214 170.344 179.222 170.427C179.231 170.51 179.206 170.593 179.154 170.658C179.124 170.694 179.087 170.722 179.045 170.742C179.003 170.761 178.957 170.771 178.91 170.771Z" fill="#263238" />
	<path d="M126.433 164.014C127.028 164.014 127.547 164.129 127.992 164.359C128.442 164.584 128.788 164.911 129.029 165.34C129.276 165.763 129.399 166.259 129.399 166.827C129.399 167.395 129.276 167.888 129.029 168.306C128.788 168.724 128.442 169.045 127.992 169.271C127.547 169.49 127.028 169.6 126.433 169.6H124.608V164.014H126.433ZM126.433 168.853C127.087 168.853 127.588 168.676 127.936 168.322C128.284 167.968 128.458 167.47 128.458 166.827C128.458 166.179 128.284 165.672 127.936 165.308C127.588 164.943 127.087 164.761 126.433 164.761H125.525V168.853H126.433ZM131.223 165.814C131.357 165.589 131.534 165.415 131.754 165.292C131.979 165.163 132.244 165.099 132.55 165.099V166.047H132.317C131.958 166.047 131.684 166.138 131.497 166.321C131.314 166.503 131.223 166.819 131.223 167.269V169.6H130.307V165.171H131.223V165.814ZM137.451 167.277C137.451 167.443 137.44 167.593 137.419 167.727H134.035C134.062 168.081 134.193 168.365 134.429 168.579C134.665 168.794 134.954 168.901 135.297 168.901C135.79 168.901 136.138 168.694 136.342 168.282H137.331C137.197 168.689 136.953 169.024 136.599 169.287C136.251 169.544 135.817 169.672 135.297 169.672C134.874 169.672 134.493 169.579 134.156 169.391C133.823 169.198 133.561 168.93 133.368 168.587C133.18 168.239 133.086 167.837 133.086 167.382C133.086 166.926 133.178 166.527 133.36 166.184C133.547 165.836 133.807 165.568 134.139 165.38C134.477 165.193 134.863 165.099 135.297 165.099C135.715 165.099 136.087 165.19 136.414 165.372C136.741 165.554 136.996 165.811 137.178 166.144C137.36 166.471 137.451 166.848 137.451 167.277ZM136.495 166.988C136.489 166.65 136.369 166.38 136.133 166.176C135.897 165.972 135.605 165.87 135.257 165.87C134.941 165.87 134.67 165.972 134.445 166.176C134.22 166.374 134.086 166.645 134.043 166.988H136.495ZM139.961 169.672C139.612 169.672 139.299 169.611 139.02 169.488C138.747 169.359 138.53 169.187 138.369 168.973C138.208 168.753 138.122 168.51 138.112 168.242H139.06C139.076 168.429 139.165 168.587 139.326 168.716C139.492 168.839 139.698 168.901 139.944 168.901C140.202 168.901 140.4 168.853 140.539 168.756C140.684 168.654 140.756 168.526 140.756 168.37C140.756 168.204 140.676 168.081 140.515 168.001C140.36 167.92 140.111 167.832 139.768 167.735C139.435 167.644 139.165 167.556 138.956 167.47C138.747 167.384 138.565 167.253 138.409 167.076C138.259 166.899 138.184 166.666 138.184 166.377C138.184 166.141 138.254 165.927 138.393 165.734C138.532 165.536 138.731 165.38 138.988 165.268C139.251 165.155 139.551 165.099 139.888 165.099C140.392 165.099 140.796 165.227 141.102 165.485C141.413 165.736 141.579 166.082 141.6 166.522H140.684C140.668 166.323 140.587 166.165 140.443 166.047C140.298 165.929 140.103 165.87 139.856 165.87C139.615 165.87 139.43 165.916 139.301 166.007C139.173 166.098 139.108 166.219 139.108 166.369C139.108 166.487 139.151 166.586 139.237 166.666C139.323 166.747 139.427 166.811 139.551 166.859C139.674 166.902 139.856 166.958 140.097 167.028C140.419 167.114 140.681 167.202 140.885 167.293C141.094 167.379 141.273 167.508 141.423 167.679C141.573 167.85 141.651 168.078 141.657 168.362C141.657 168.614 141.587 168.839 141.448 169.037C141.308 169.236 141.11 169.391 140.853 169.504C140.601 169.616 140.303 169.672 139.961 169.672ZM144.254 169.672C143.906 169.672 143.592 169.611 143.314 169.488C143.041 169.359 142.824 169.187 142.663 168.973C142.502 168.753 142.416 168.51 142.406 168.242H143.354C143.37 168.429 143.459 168.587 143.619 168.716C143.785 168.839 143.992 168.901 144.238 168.901C144.495 168.901 144.694 168.853 144.833 168.756C144.978 168.654 145.05 168.526 145.05 168.37C145.05 168.204 144.97 168.081 144.809 168.001C144.654 167.92 144.404 167.832 144.061 167.735C143.729 167.644 143.459 167.556 143.25 167.47C143.041 167.384 142.858 167.253 142.703 167.076C142.553 166.899 142.478 166.666 142.478 166.377C142.478 166.141 142.548 165.927 142.687 165.734C142.826 165.536 143.024 165.38 143.282 165.268C143.544 165.155 143.844 165.099 144.182 165.099C144.686 165.099 145.09 165.227 145.396 165.485C145.706 165.736 145.873 166.082 145.894 166.522H144.978C144.962 166.323 144.881 166.165 144.737 166.047C144.592 165.929 144.396 165.87 144.15 165.87C143.909 165.87 143.724 165.916 143.595 166.007C143.467 166.098 143.402 166.219 143.402 166.369C143.402 166.487 143.445 166.586 143.531 166.666C143.617 166.747 143.721 166.811 143.844 166.859C143.968 166.902 144.15 166.958 144.391 167.028C144.712 167.114 144.975 167.202 145.179 167.293C145.388 167.379 145.567 167.508 145.717 167.679C145.867 167.85 145.945 168.078 145.95 168.362C145.95 168.614 145.881 168.839 145.741 169.037C145.602 169.236 145.404 169.391 145.147 169.504C144.895 169.616 144.597 169.672 144.254 169.672ZM151 167.277C151 167.443 150.989 167.593 150.968 167.727H147.583C147.61 168.081 147.742 168.365 147.977 168.579C148.213 168.794 148.503 168.901 148.845 168.901C149.338 168.901 149.687 168.694 149.89 168.282H150.879C150.745 168.689 150.501 169.024 150.148 169.287C149.799 169.544 149.365 169.672 148.845 169.672C148.422 169.672 148.042 169.579 147.704 169.391C147.372 169.198 147.109 168.93 146.916 168.587C146.729 168.239 146.635 167.837 146.635 167.382C146.635 166.926 146.726 166.527 146.908 166.184C147.096 165.836 147.356 165.568 147.688 165.38C148.026 165.193 148.411 165.099 148.845 165.099C149.263 165.099 149.636 165.19 149.963 165.372C150.29 165.554 150.544 165.811 150.726 166.144C150.909 166.471 151 166.848 151 167.277ZM150.043 166.988C150.038 166.65 149.917 166.38 149.681 166.176C149.446 165.972 149.154 165.87 148.805 165.87C148.489 165.87 148.218 165.972 147.993 166.176C147.768 166.374 147.634 166.645 147.592 166.988H150.043ZM153.509 169.672C153.161 169.672 152.847 169.611 152.569 169.488C152.295 169.359 152.078 169.187 151.917 168.973C151.757 168.753 151.671 168.51 151.66 168.242H152.609C152.625 168.429 152.713 168.587 152.874 168.716C153.04 168.839 153.246 168.901 153.493 168.901C153.75 168.901 153.948 168.853 154.088 168.756C154.232 168.654 154.305 168.526 154.305 168.37C154.305 168.204 154.224 168.081 154.064 168.001C153.908 167.92 153.659 167.832 153.316 167.735C152.984 167.644 152.713 167.556 152.504 167.47C152.295 167.384 152.113 167.253 151.958 167.076C151.808 166.899 151.733 166.666 151.733 166.377C151.733 166.141 151.802 165.927 151.942 165.734C152.081 165.536 152.279 165.38 152.536 165.268C152.799 165.155 153.099 165.099 153.437 165.099C153.94 165.099 154.345 165.227 154.65 165.485C154.961 165.736 155.127 166.082 155.149 166.522H154.232C154.216 166.323 154.136 166.165 153.991 166.047C153.847 165.929 153.651 165.87 153.405 165.87C153.163 165.87 152.979 165.916 152.85 166.007C152.721 166.098 152.657 166.219 152.657 166.369C152.657 166.487 152.7 166.586 152.786 166.666C152.871 166.747 152.976 166.811 153.099 166.859C153.222 166.902 153.405 166.958 153.646 167.028C153.967 167.114 154.23 167.202 154.433 167.293C154.642 167.379 154.822 167.508 154.972 167.679C155.122 167.85 155.2 168.078 155.205 168.362C155.205 168.614 155.135 168.839 154.996 169.037C154.857 169.236 154.658 169.391 154.401 169.504C154.149 169.616 153.852 169.672 153.509 169.672Z" fill="black" />
</svg>
