<svg width="35" height="30" viewBox="0 0 35 30" fill="none" xmlns="http://www.w3.org/2000/svg">
<path d="M22.0786 8.44269L12.7556 16.119C12.6485 16.2072 12.5664 16.3222 12.5178 16.4522C12.4691 16.5822 12.4555 16.7228 12.4784 16.8597L14.4228 28.4419C14.5892 29.5146 15.9879 29.8211 16.5861 28.915L34.1227 2.35461C34.2442 2.17076 34.3121 1.95669 34.3188 1.7364C34.3255 1.51611 34.2706 1.29832 34.1604 1.10746C34.0502 0.916601 33.889 0.760212 33.6949 0.65584C33.5008 0.551467 33.2815 0.50324 33.0615 0.516562L1.29117 2.42351C0.207446 2.48856 -0.225687 3.85443 0.619279 4.53352L9.67892 12.0077C9.78602 12.0964 9.91461 12.1552 10.0517 12.1783C10.1888 12.2015 10.3296 12.188 10.4599 12.1394L21.7684 7.90226C21.8383 7.87673 21.9149 7.87666 21.9849 7.90208C22.0548 7.92749 22.1136 7.97676 22.1508 8.04122C22.188 8.10567 22.2013 8.18118 22.1883 8.25447C22.1754 8.32775 22.1356 8.39491 22.0786 8.44269Z" fill="#25A5B4"/>
</svg>
