<svg width="113" height="113" viewBox="0 0 113 113" fill="none" xmlns="http://www.w3.org/2000/svg">
<rect x="1.82009" y="1.52126" width="109.531" height="109.531" rx="54.7653" fill="white"/>
<rect x="1.82009" y="1.52126" width="109.531" height="109.531" rx="54.7653" stroke="#999999" stroke-width="3.04251"/>
<path d="M76.8694 78.0933H36.3025C35.4709 78.0933 34.7812 77.4037 34.7812 76.572C34.7812 75.7404 35.4709 75.0508 36.3025 75.0508H76.8694C77.701 75.0508 78.3906 75.7404 78.3906 76.572C78.3906 77.4037 77.701 78.0933 76.8694 78.0933Z" fill="#999999"/>
<path opacity="0.4" d="M74.8381 52.19V76.5707H38.2266L38.328 52.1697C38.328 50.9324 38.8959 49.7561 39.8898 48.9853L54.0882 37.9511C55.5486 36.7949 57.6175 36.7949 59.0779 37.9511L61.7959 40.0605L70.7814 47.0381L73.2763 48.9853C74.2702 49.7561 74.8381 50.9324 74.8381 52.19Z" fill="#999999"/>
<path d="M58.6129 66.4277H54.5562C52.8727 66.4277 51.5137 67.7867 51.5137 69.4702V76.5694H61.6554V69.4702C61.6554 67.7867 60.2964 66.4277 58.6129 66.4277Z" fill="#999999"/>
<path d="M51.5147 59.8355H47.458C46.3424 59.8355 45.4297 58.9228 45.4297 57.8072V54.7647C45.4297 53.6491 46.3424 52.7363 47.458 52.7363H51.5147C52.6303 52.7363 53.5431 53.6491 53.5431 54.7647V57.8072C53.5431 58.9228 52.6303 59.8355 51.5147 59.8355Z" fill="#999999"/>
<path d="M65.7139 59.8355H61.6572C60.5417 59.8355 59.6289 58.9228 59.6289 57.8072V54.7647C59.6289 53.6491 60.5417 52.7363 61.6572 52.7363H65.7139C66.8295 52.7363 67.7423 53.6491 67.7423 54.7647V57.8072C67.7423 58.9228 66.8295 59.8355 65.7139 59.8355Z" fill="#999999"/>
<path d="M70.7863 47.038L61.8008 40.0605H68.7174C69.833 40.0605 70.7458 40.953 70.7458 42.0686L70.7863 47.038Z" fill="#999999"/>
</svg>
