<svg width="114" height="114" viewBox="0 0 114 114" fill="none" xmlns="http://www.w3.org/2000/svg">
<rect x="2.36696" y="2.0486" width="109.531" height="109.531" rx="54.7653" fill="#25A5B4" fill-opacity="0.08"/>
<rect x="2.36696" y="2.0486" width="109.531" height="109.531" rx="54.7653" stroke="#25A5B4" stroke-width="3.04251"/>
<g clip-path="url(#clip0_935_968)">
<path d="M69.303 36.5312H59.1613C59.1613 37.6468 58.2486 38.5596 57.133 38.5596C56.0174 38.5596 55.1046 37.6468 55.1046 36.5312H44.9629C42.7318 36.5312 40.9062 38.3568 40.9062 40.5879V73.0414C40.9062 75.2726 42.7318 77.0981 44.9629 77.0981H69.303C71.5342 77.0981 73.3597 75.2726 73.3597 73.0414V40.5879C73.3597 38.3568 71.5342 36.5313 69.303 36.5312Z" fill="#25A5B4"/>
<path d="M69.3035 74.0541H44.9634C44.3549 74.0541 43.9492 73.6484 43.9492 73.0399V40.5864C43.9492 39.9779 44.3549 39.5723 44.9634 39.5723H69.3035C69.912 39.5723 70.3177 39.9779 70.3177 40.5864V73.0399C70.3177 73.6484 69.912 74.0541 69.3035 74.0541Z" fill="#EEF8F9"/>
<path d="M59.1598 36.5312C59.1598 37.6468 58.247 38.5596 57.1314 38.5596C56.0159 38.5596 55.1031 37.6468 55.1031 36.5312H48.0039V40.5879C48.0039 41.7035 48.9167 42.6163 50.0322 42.6163H64.2306C65.3462 42.6163 66.259 41.7035 66.259 40.5879V36.5312H59.1598Z" fill="#90A4AE"/>
<path d="M57.1329 32.4746C54.9017 32.4746 53.0762 34.3001 53.0762 36.5313C53.0762 38.7625 54.9017 40.588 57.1329 40.588C59.364 40.588 61.1895 38.7625 61.1895 36.5313C61.1895 34.3001 59.364 32.4746 57.1329 32.4746ZM57.1329 38.5596C56.0173 38.5596 55.1045 37.6469 55.1045 36.5313C55.1045 35.4157 56.0173 34.503 57.1329 34.503C58.2484 34.503 59.1612 35.4157 59.1612 36.5313C59.1612 37.6469 58.2484 38.5596 57.1329 38.5596Z" fill="#90A4AE"/>
<path d="M63.8268 51.3398L54.6992 60.4674L50.4397 56.1065L47.9043 58.6419L54.8007 65.4368L66.3622 53.8753L63.8268 51.3398Z" fill="#25A5B4"/>
</g>
<defs>
<clipPath id="clip0_935_968">
<rect width="48.6802" height="48.6802" fill="white" transform="translate(32.793 32.4746)"/>
</clipPath>
</defs>
</svg>
