<svg width="114" height="113" viewBox="0 0 114 113" fill="none" xmlns="http://www.w3.org/2000/svg">
<rect x="2.15407" y="1.52126" width="109.531" height="109.531" rx="54.7653" fill="#6B7280" fill-opacity="0.08"/>
<rect x="2.15407" y="1.52126" width="109.531" height="109.531" rx="54.7653" stroke="#6B7280" stroke-width="3.04251"/>
<path d="M74.2739 68.208H60.3652V46.3516H70.8961C71.7902 46.3516 72.4856 46.9476 72.7837 47.7424L76.2608 58.2732V66.221C76.2608 67.3139 75.3667 68.208 74.2739 68.208Z" fill="#6B7280" fill-opacity="0.5"/>
<path d="M60.3635 68.2092H36.5202C35.4273 68.2092 34.5332 67.3151 34.5332 66.2222V41.3854C34.5332 40.2926 35.4273 39.3984 36.5202 39.3984H58.3766C59.4694 39.3984 60.3635 40.2926 60.3635 41.3854V68.2092Z" fill="#6B7280"/>
<path d="M68.315 73.1729C71.0583 73.1729 73.2822 70.9489 73.2822 68.2056C73.2822 65.4622 71.0583 63.2383 68.315 63.2383C65.5716 63.2383 63.3477 65.4622 63.3477 68.2056C63.3477 70.9489 65.5716 73.1729 68.315 73.1729Z" fill="#37474F"/>
<path d="M44.4712 73.1729C47.2146 73.1729 49.4385 70.9489 49.4385 68.2056C49.4385 65.4622 47.2146 63.2383 44.4712 63.2383C41.7278 63.2383 39.5039 65.4622 39.5039 68.2056C39.5039 70.9489 41.7278 73.1729 44.4712 73.1729Z" fill="#37474F"/>
<path d="M68.3131 70.1965C69.4104 70.1965 70.3 69.3069 70.3 68.2096C70.3 67.1122 69.4104 66.2227 68.3131 66.2227C67.2157 66.2227 66.3262 67.1122 66.3262 68.2096C66.3262 69.3069 67.2157 70.1965 68.3131 70.1965Z" fill="#B0BEC5"/>
<path d="M44.4693 70.1965C45.5667 70.1965 46.4563 69.3069 46.4563 68.2096C46.4563 67.1122 45.5667 66.2227 44.4693 66.2227C43.372 66.2227 42.4824 67.1122 42.4824 68.2096C42.4824 69.3069 43.372 70.1965 44.4693 70.1965Z" fill="#B0BEC5"/>
<path d="M72.2857 57.2811H65.3314C64.7353 57.2811 64.3379 56.8837 64.3379 56.2876V49.3333C64.3379 48.7372 64.7353 48.3398 65.3314 48.3398H70.5968C70.9942 48.3398 71.3916 48.6379 71.4909 49.0353L73.1798 54.2013C73.1798 54.3007 73.2792 54.4 73.2792 54.4994V56.2876C73.2792 56.8837 72.8818 57.2811 72.2857 57.2811Z" fill="#37474F"/>
<path d="M39.502 52.4112L45.3634 58.2727L55.3975 48.2386L53.2119 46.1523L45.3634 54.0008L41.6876 50.2256L39.502 52.4112Z" fill="white"/>
</svg>
