<svg width="24" height="24" viewBox="0 0 24 24" fill="none" xmlns="http://www.w3.org/2000/svg">
<path d="M6.75 3.75V24H10.125V19.875C10.125 19.6676 10.2926 19.5 10.5 19.5H13.5C13.7074 19.5 13.875 19.6676 13.875 19.875V24H17.25V7.5V1.5C17.25 0.670875 16.5791 0 15.75 0H8.25C7.42088 0 6.75 0.670875 6.75 1.5V3.75ZM12.75 3.375C12.75 3.16762 12.9176 3 13.125 3H14.625C14.8324 3 15 3.16762 15 3.375V4.875C15 5.08238 14.8324 5.25 14.625 5.25H13.125C12.9176 5.25 12.75 5.08238 12.75 4.875V3.375ZM12.75 7.125C12.75 6.91762 12.9176 6.75 13.125 6.75H14.625C14.8324 6.75 15 6.91762 15 7.125V8.625C15 8.83237 14.8324 9 14.625 9H13.125C12.9176 9 12.75 8.83237 12.75 8.625V7.125ZM12.75 10.875C12.75 10.6676 12.9176 10.5 13.125 10.5H14.625C14.8324 10.5 15 10.6676 15 10.875V12.375C15 12.5824 14.8324 12.75 14.625 12.75H13.125C12.9176 12.75 12.75 12.5824 12.75 12.375V10.875ZM12.75 14.625C12.75 14.4176 12.9176 14.25 13.125 14.25H14.625C14.8324 14.25 15 14.4176 15 14.625V16.125C15 16.3324 14.8324 16.5 14.625 16.5H13.125C12.9176 16.5 12.75 16.3324 12.75 16.125V14.625ZM9 3.375C9 3.16762 9.16762 3 9.375 3H10.875C11.0824 3 11.25 3.16762 11.25 3.375V4.875C11.25 5.08238 11.0824 5.25 10.875 5.25H9.375C9.16762 5.25 9 5.08238 9 4.875V3.375ZM9 7.125C9 6.91762 9.16762 6.75 9.375 6.75H10.875C11.0824 6.75 11.25 6.91762 11.25 7.125V8.625C11.25 8.83237 11.0824 9 10.875 9H9.375C9.16762 9 9 8.83237 9 8.625V7.125ZM9 10.875C9 10.6676 9.16762 10.5 9.375 10.5H10.875C11.0824 10.5 11.25 10.6676 11.25 10.875V12.375C11.25 12.5824 11.0824 12.75 10.875 12.75H9.375C9.16762 12.75 9 12.5824 9 12.375V10.875ZM9 14.625C9 14.4176 9.16762 14.25 9.375 14.25H10.875C11.0824 14.25 11.25 14.4176 11.25 14.625V16.125C11.25 16.3324 11.0824 16.5 10.875 16.5H9.375C9.16762 16.5 9 16.3324 9 16.125V14.625Z" fill="#9334E9"/>
<path d="M10.5 11.25H9.75V12H10.5V11.25Z" fill="#9334E9"/>
<path d="M10.5 15H9.75V15.75H10.5V15Z" fill="#9334E9"/>
<path d="M13.125 20.25H10.875V24H13.125V20.25Z" fill="#9334E9"/>
<path d="M3.75 18.75H3V19.5H3.75V18.75Z" fill="#9334E9"/>
<path d="M10.5 3.75H9.75V4.5H10.5V3.75Z" fill="#9334E9"/>
<path d="M10.5 7.5H9.75V8.25H10.5V7.5Z" fill="#9334E9"/>
<path d="M14.25 7.5H13.5V8.25H14.25V7.5Z" fill="#9334E9"/>
<path d="M14.25 3.75H13.5V4.5H14.25V3.75Z" fill="#9334E9"/>
<path d="M14.25 11.25H13.5V12H14.25V11.25Z" fill="#9334E9"/>
<path d="M14.25 15H13.5V15.75H14.25V15Z" fill="#9334E9"/>
<path d="M3.75 15H3V15.75H3.75V15Z" fill="#9334E9"/>
<path d="M6 3.75H1.5C0.670875 3.75 0 4.42088 0 5.25V22.5C0 23.3291 0.670875 24 1.5 24H6V3.75ZM4.5 19.875C4.5 20.0824 4.33238 20.25 4.125 20.25H2.625C2.41762 20.25 2.25 20.0824 2.25 19.875V18.375C2.25 18.1676 2.41762 18 2.625 18H4.125C4.33238 18 4.5 18.1676 4.5 18.375V19.875ZM4.5 16.125C4.5 16.3324 4.33238 16.5 4.125 16.5H2.625C2.41762 16.5 2.25 16.3324 2.25 16.125V14.625C2.25 14.4176 2.41762 14.25 2.625 14.25H4.125C4.33238 14.25 4.5 14.4176 4.5 14.625V16.125ZM4.5 12.375C4.5 12.5824 4.33238 12.75 4.125 12.75H2.625C2.41762 12.75 2.25 12.5824 2.25 12.375V10.875C2.25 10.6676 2.41762 10.5 2.625 10.5H4.125C4.33238 10.5 4.5 10.6676 4.5 10.875V12.375ZM4.125 9H2.625C2.41762 9 2.25 8.83238 2.25 8.625V7.125C2.25 6.91762 2.41762 6.75 2.625 6.75H4.125C4.33238 6.75 4.5 6.91762 4.5 7.125V8.625C4.5 8.83238 4.33238 9 4.125 9Z" fill="#9334E9"/>
<path d="M21 18.75H20.25V19.5H21V18.75Z" fill="#9334E9"/>
<path d="M21 15H20.25V15.75H21V15Z" fill="#9334E9"/>
<path d="M21 11.25H20.25V12H21V11.25Z" fill="#9334E9"/>
<path d="M22.5 7.5H18V24H22.5C23.3291 24 24 23.3291 24 22.5V9C24 8.17088 23.3291 7.5 22.5 7.5ZM21.75 19.875C21.75 20.0824 21.5824 20.25 21.375 20.25H19.875C19.6676 20.25 19.5 20.0824 19.5 19.875V18.375C19.5 18.1676 19.6676 18 19.875 18H21.375C21.5824 18 21.75 18.1676 21.75 18.375V19.875ZM21.75 16.125C21.75 16.3324 21.5824 16.5 21.375 16.5H19.875C19.6676 16.5 19.5 16.3324 19.5 16.125V14.625C19.5 14.4176 19.6676 14.25 19.875 14.25H21.375C21.5824 14.25 21.75 14.4176 21.75 14.625V16.125ZM21.75 12.375C21.75 12.5824 21.5824 12.75 21.375 12.75H19.875C19.6676 12.75 19.5 12.5824 19.5 12.375V10.875C19.5 10.6676 19.6676 10.5 19.875 10.5H21.375C21.5824 10.5 21.75 10.6676 21.75 10.875V12.375Z" fill="#9334E9"/>
<path d="M3.75 11.25H3V12H3.75V11.25Z" fill="#9334E9"/>
<path d="M3.75 7.5H3V8.25H3.75V7.5Z" fill="#9334E9"/>
</svg>
