<svg width="24" height="24" viewBox="0 0 24 24" fill="none" xmlns="http://www.w3.org/2000/svg">
<path d="M23.6204 10.4633L12.7114 1.08204C12.3021 0.730465 11.6979 0.730465 11.2886 1.08204L0.379624 10.4633C-0.0777233 10.8564 -0.128671 11.5451 0.264003 12.0019C0.656677 12.4589 1.34636 12.5097 1.80211 12.1177L12 3.3479L22.198 12.1177C22.4037 12.2948 22.6563 12.3812 22.9085 12.3812C23.2153 12.3812 23.5205 12.2526 23.7361 12.0018C24.1287 11.5451 24.0777 10.8563 23.6204 10.4633Z" fill="#17A34A"/>
<path d="M8.93851 23.1823V20.5117L8.34424 23.1823H8.93851Z" fill="#17A34A"/>
<path d="M15.0615 23.1823H15.6558L15.0615 20.5117V23.1823Z" fill="#17A34A"/>
<path d="M12.3562 4.87737C12.152 4.70103 11.8479 4.70103 11.6437 4.87737L3.42282 11.9686C3.30299 12.072 3.23376 12.2227 3.23376 12.3813V22.6363C3.23376 22.9376 3.47798 23.1819 3.77953 23.1819H6.10358L7.44261 17.1936C7.50871 16.9056 7.68278 16.6444 7.96025 16.4863C8.02854 16.4475 9.56446 15.6017 11.5806 15.491L11.8525 16.0366H11.8619L11.1249 21.772L11.9322 23.182H12.0675L12.8749 21.772L12.1378 16.0366H12.1447L12.4181 15.491C14.4333 15.6017 15.9712 16.4475 16.0395 16.4863C16.317 16.6444 16.491 16.9056 16.5571 17.1936L17.8962 23.1819H20.2202C20.5218 23.1819 20.766 22.9377 20.766 22.6363V12.3814C20.766 12.2228 20.6968 12.072 20.5769 11.9687L12.3562 4.87737ZM12 15.2449C10.4729 15.2449 9.23376 13.4743 9.23376 11.9473C9.23376 10.4202 10.4729 9.18221 12 9.18221C13.5261 9.18221 14.7646 10.4202 14.7646 11.9473C14.7646 13.4743 13.5261 15.2449 12 15.2449Z" fill="#17A34A"/>
</svg>
