<svg width="1392" height="200" viewBox="0 0 1392 200" fill="none" xmlns="http://www.w3.org/2000/svg">
	<g clipPath="url(#clip0_595_12261)">
		<rect width="1392" height="952" rx="30" fill="#25A5B4" fill-opacity="0.2" />
		<path fill-rule="evenodd" clip-rule="evenodd" d="M4.22593 144.147C49.4796 164.279 95.5791 190.819 145.175 181.458C194.57 172.136 226.695 123.669 268.931 94.1874C319.239 59.0719 388.17 46.7715 417.18 -8.40562C447.163 -65.4315 447.181 -139.251 421.479 -195.957C396.73 -250.563 328.784 -261.998 284.66 -300.795C240.907 -339.266 220.742 -411.199 163.721 -422.599C106.601 -434.018 52.6056 -387.662 0.245571 -357.654C-49.1297 -329.357 -102.986 -303.396 -132.043 -253.095C-160.684 -203.513 -158.354 -143.751 -155.972 -87.2266C-153.714 -33.6721 -148.235 21.3877 -118.675 64.0806C-89.8743 105.678 -41.3117 123.889 4.22593 144.147Z" fill="#25A5B4" fill-opacity="0.1" />
		<path d="M898 612H1301V298.5C1301 187.215 1210.79 97 1099.5 97C988.215 97 898 187.215 898 298.5V612Z" fill="#E9F6F7" />
	</g>
	<defs>
		<clipPath id="clip0_595_12261">
			<rect width="1392" height="200" rx="30" fill="white" />
		</clipPath>
	</defs>
</svg>
