<svg width="720" height="900" viewBox="0 0 720 900" fill="none" xmlns="http://www.w3.org/2000/svg">
	<rect width="720" height="900" fill="#D3EDF0" />
	<path d="M650.5 899.5C650.5 911.63 640.223 921.5 627.5 921.5C614.777 921.5 604.5 911.63 604.5 899.5C604.5 887.37 614.777 877.5 627.5 877.5C640.223 877.5 650.5 887.37 650.5 899.5Z" stroke="#25A5B4" stroke-opacity="0.3" />
	<path d="M660.5 567.5C660.5 584.599 645.971 598.5 628 598.5C610.029 598.5 595.5 584.599 595.5 567.5C595.5 550.401 610.029 536.5 628 536.5C645.971 536.5 660.5 550.401 660.5 567.5Z" stroke="#25A5B4" stroke-opacity="0.3" />
	<path d="M460.5 863C460.5 869.886 454.698 875.5 447.5 875.5C440.302 875.5 434.5 869.886 434.5 863C434.5 856.114 440.302 850.5 447.5 850.5C454.698 850.5 460.5 856.114 460.5 863Z" stroke="#25A5B4" stroke-opacity="0.3" />
	<path d="M673.5 57C673.5 63.8859 667.698 69.5 660.5 69.5C653.302 69.5 647.5 63.8859 647.5 57C647.5 50.1141 653.302 44.5 660.5 44.5C667.698 44.5 673.5 50.1141 673.5 57Z" stroke="#25A5B4" stroke-opacity="0.3" />
	<path d="M361.5 80.5C361.5 90.9701 352.57 99.5 341.5 99.5C330.43 99.5 321.5 90.9701 321.5 80.5C321.5 70.0299 330.43 61.5 341.5 61.5C352.57 61.5 361.5 70.0299 361.5 80.5Z" stroke="#25A5B4" stroke-opacity="0.3" />
	<path d="M276.5 843.5C276.5 846.779 273.625 849.5 270 849.5C266.375 849.5 263.5 846.779 263.5 843.5C263.5 840.221 266.375 837.5 270 837.5C273.625 837.5 276.5 840.221 276.5 843.5Z" stroke="#25A5B4" stroke-opacity="0.3" />
</svg>
