<svg width="38" height="40" viewBox="0 0 38 40" fill="none" xmlns="http://www.w3.org/2000/svg">
<path fill-rule="evenodd" clip-rule="evenodd" d="M19.0424 0.5C14.149 0.5 9.69104 2.11633 7.05312 3.43692C6.81479 3.55608 6.59235 3.67236 6.38579 3.78575C5.97629 4.00892 5.62746 4.21692 5.35012 4.4L8.35096 8.81783L9.76362 9.38008C15.2843 12.1653 22.6878 12.1653 28.2095 9.38008L29.8129 8.54808L32.6501 4.4C32.0618 4.0177 31.4507 3.67148 30.8204 3.36325C28.1955 2.05675 23.8437 0.5 19.0435 0.5M12.0646 5.50067C11.0022 5.30073 9.95278 5.03737 8.92187 4.712C11.393 3.61458 15.0752 2.45 19.0435 2.45C21.7919 2.45 24.3908 3.009 26.5401 3.7175C24.0214 4.07175 21.3336 4.673 18.7726 5.41292C16.7576 5.99575 14.4025 5.93292 12.0646 5.50067ZM29.3546 10.9867L29.0881 11.121C23.015 14.1847 14.9593 14.1847 8.88612 11.121L8.63371 10.9932C-0.49121 21.0042 -7.45704 39.4967 19.0424 39.4967C45.5418 39.4967 38.407 20.6608 29.3546 10.9867ZM17.9168 20C17.3422 20 16.7911 20.2283 16.3847 20.6346C15.9784 21.0409 15.7501 21.592 15.7501 22.1667C15.7501 22.7413 15.9784 23.2924 16.3847 23.6987C16.7911 24.1051 17.3422 24.3333 17.9168 24.3333V20ZM20.0835 17.8333V16.75H17.9168V17.8333C16.7675 17.8333 15.6653 18.2899 14.8527 19.1025C14.04 19.9152 13.5835 21.0174 13.5835 22.1667C13.5835 23.3159 14.04 24.4181 14.8527 25.2308C15.6653 26.0435 16.7675 26.5 17.9168 26.5V30.8333C16.9743 30.8333 16.1715 30.2321 15.8725 29.3892C15.8282 29.2514 15.7566 29.1238 15.6621 29.014C15.5675 28.9043 15.452 28.8146 15.3222 28.7503C15.1924 28.686 15.051 28.6484 14.9064 28.6396C14.7618 28.6309 14.6169 28.6513 14.4804 28.6996C14.3438 28.7478 14.2183 28.823 14.1112 28.9206C14.0042 29.0182 13.9179 29.1363 13.8573 29.2678C13.7967 29.3994 13.7631 29.5418 13.7585 29.6866C13.7539 29.8314 13.7783 29.9756 13.8305 30.1107C14.1291 30.9558 14.6825 31.6875 15.4144 32.2049C16.1462 32.7224 17.0205 33.0001 17.9168 33V34.0833H20.0835V33C21.2327 33 22.3349 32.5434 23.1476 31.7308C23.9602 30.9181 24.4168 29.8159 24.4168 28.6667C24.4168 27.5174 23.9602 26.4152 23.1476 25.6025C22.3349 24.7899 21.2327 24.3333 20.0835 24.3333V20C21.026 20 21.8287 20.6012 22.1277 21.4441C22.1721 21.582 22.2436 21.7096 22.3382 21.8193C22.4327 21.9291 22.5483 22.0188 22.6781 22.0831C22.8079 22.1474 22.9493 22.185 23.0938 22.1937C23.2384 22.2024 23.3833 22.182 23.5199 22.1338C23.6565 22.0855 23.782 22.0104 23.889 21.9127C23.996 21.8151 24.0824 21.6971 24.143 21.5655C24.2036 21.4339 24.2372 21.2915 24.2418 21.1467C24.2464 21.002 24.2219 20.8577 24.1698 20.7226C23.8711 19.8775 23.3177 19.1459 22.5859 18.6284C21.854 18.111 20.9798 17.8332 20.0835 17.8333ZM20.0835 26.5V30.8333C20.6581 30.8333 21.2092 30.6051 21.6155 30.1987C22.0219 29.7924 22.2501 29.2413 22.2501 28.6667C22.2501 28.092 22.0219 27.5409 21.6155 27.1346C21.2092 26.7283 20.6581 26.5 20.0835 26.5Z" fill="#25A5B4"/>
</svg>
