<svg width="40" height="33" viewBox="0 0 40 33" fill="none" xmlns="http://www.w3.org/2000/svg">
<path fill-rule="evenodd" clip-rule="evenodd" d="M5.28208 1.88698C5.47455 1.56579 5.74696 1.29996 6.07277 1.11541C6.39857 0.930868 6.76664 0.833906 7.14108 0.833984H32.8529C33.2274 0.833906 33.5954 0.930868 33.9212 1.11541C34.247 1.29996 34.5195 1.56579 34.7119 1.88698L39.5956 10.0272C39.6941 10.1916 39.7472 10.3792 39.7496 10.5708C39.7519 10.7625 39.7033 10.9514 39.6088 11.1181C39.5143 11.2849 39.3773 11.4236 39.2116 11.5201C39.046 11.6165 38.8578 11.6674 38.6661 11.6673H36.2503V30.084C36.2503 30.6586 36.022 31.2097 35.6157 31.616C35.2093 32.0224 34.6582 32.2506 34.0836 32.2506H18.9169C18.3423 32.2506 17.7912 32.0224 17.3849 31.616C16.9785 31.2097 16.7502 30.6586 16.7502 30.084V18.6006C16.7502 18.4857 16.7046 18.3755 16.6233 18.2942C16.5421 18.213 16.4318 18.1673 16.3169 18.1673H9.60025C9.48532 18.1673 9.3751 18.213 9.29384 18.2942C9.21257 18.3755 9.16692 18.4857 9.16692 18.6006V30.084C9.16692 30.6586 8.93864 31.2097 8.53231 31.616C8.12599 32.0224 7.57489 32.2506 7.00025 32.2506H5.91692C5.34228 32.2506 4.79118 32.0224 4.38485 31.616C3.97852 31.2097 3.75025 30.6586 3.75025 30.084V11.6673H1.32792C1.13606 11.6677 0.947526 11.6172 0.781601 11.5209C0.615677 11.4245 0.478311 11.2859 0.383549 11.1191C0.288787 10.9522 0.240029 10.7632 0.242261 10.5714C0.244492 10.3795 0.297633 10.1917 0.396249 10.0272L5.28208 1.88698ZM21.0836 18.527C21.0836 18.0287 21.4887 17.6257 21.9871 17.6257H31.0134C31.5118 17.6257 31.9169 18.0308 31.9169 18.5292V24.8471C31.9169 25.3455 31.5139 25.7506 31.0134 25.7506H21.9871C21.8684 25.7506 21.7509 25.7273 21.6413 25.6819C21.5317 25.6365 21.4321 25.5699 21.3482 25.486C21.2643 25.4021 21.1978 25.3025 21.1524 25.1929C21.107 25.0833 21.0836 24.9658 21.0836 24.8471V18.527Z" fill="#25A5B4"/>
</svg>
