<svg width="153" height="153" viewBox="0 0 153 153" fill="none" xmlns="http://www.w3.org/2000/svg">
	<path d="M12.7691 120.525C11.6759 119.84 10.4403 119.415 9.15723 119.282C8.56591 119.224 7.93802 119.239 7.4473 119.586C7.39324 119.617 7.34846 119.661 7.31783 119.715C7.2872 119.768 7.27189 119.829 7.27356 119.891C7.30035 119.98 7.35894 120.056 7.43815 120.105C8.20624 120.65 9.10844 120.976 10.0477 121.046C10.987 121.117 11.9279 120.931 12.7691 120.507" fill="#E0E0E0" />
	<path d="M12.6774 120.425C11.8401 119.81 11.0588 119.123 10.3426 118.37C9.625 117.614 9.12024 116.681 8.87958 115.667C8.83141 115.515 8.81682 115.355 8.83682 115.197C8.85682 115.039 8.91093 114.887 8.9954 114.752C10.8547 116.203 12.3177 118.084 12.6774 120.416" fill="#E0E0E0" />
	<path d="M12.751 120.513C12.5776 119.498 12.592 118.46 12.7937 117.45C13.0025 116.433 13.5841 115.531 14.4244 114.92C14.7474 115.673 14.6072 116.539 14.3817 117.322C14.0299 118.538 13.4833 119.689 12.7632 120.73" fill="#E0E0E0" />
	<path d="M14.5732 123.781C13.4789 123.956 12.4666 124.469 11.6776 125.247C10.8455 126.002 10.2664 126.995 10.0195 128.091C11.1046 128.024 12.0251 127.259 12.6926 126.399C13.3601 125.539 13.8234 124.598 14.558 123.796" fill="#E0E0E0" />
	<path d="M14.9698 124.302C14.5339 123.197 14.3811 122 14.5254 120.82C14.6697 119.641 15.1064 118.516 15.7958 117.548C16.4237 119.788 16.1921 122.324 14.9698 124.305" fill="#E0E0E0" />
	<path d="M17.3774 127.17C16.366 127.109 15.3589 127.346 14.4808 127.851C13.6026 128.357 12.8919 129.109 12.4366 130.014C12.3973 130.07 12.3737 130.135 12.3684 130.203C12.363 130.271 12.376 130.34 12.4061 130.401C12.4487 130.442 12.5005 130.473 12.5573 130.49C12.614 130.507 12.6741 130.51 12.7323 130.498C13.7046 130.434 14.5611 129.849 15.2804 129.182C15.9997 128.514 16.6124 127.743 17.414 127.167" fill="#E0E0E0" />
	<path d="M17.3027 127.015C16.7837 125.345 16.752 123.562 17.2112 121.876C17.3911 121.214 17.6959 120.516 18.3085 120.205C18.3332 120.19 18.3608 120.179 18.3896 120.175C18.4184 120.17 18.4478 120.171 18.4762 120.178C18.5264 120.203 18.5647 120.247 18.5828 120.3C18.7882 120.763 18.8761 121.27 18.8389 121.775C18.8039 122.277 18.7275 122.776 18.6103 123.266C18.4152 124.18 18.3055 125.158 17.8147 125.945C17.7014 126.136 17.5996 126.333 17.5099 126.536C17.4155 126.734 17.4155 126.804 17.3271 126.963" fill="#E0E0E0" />
	<path d="M23.6794 127.963C23.4655 127.025 23.4586 126.052 23.6591 125.111C23.8597 124.171 24.2629 123.285 24.8407 122.516C24.923 122.406 25.0358 122.29 25.1699 122.303C25.3802 122.324 25.432 122.607 25.4229 122.809C25.3401 124.657 24.7356 126.444 23.6794 127.963Z" fill="#E0E0E0" />
	<path d="M24.2539 128.356C25.3687 128.62 26.5275 128.638 27.6501 128.41C28.7727 128.181 29.8322 127.712 30.7553 127.033C29.6672 126.486 28.4227 126.334 27.2349 126.603C26.0583 126.872 24.9854 127.399 24.2539 128.356Z" fill="#E0E0E0" />
	<path d="M24.7383 127.161C25.3832 126.167 26.254 125.34 27.2795 124.746C28.305 124.153 29.4562 123.811 30.6392 123.747C30.4803 124.216 30.2271 124.647 29.8953 125.013C29.5635 125.38 29.16 125.676 28.7098 125.881C27.808 126.287 26.8539 126.566 25.8752 126.71C25.4972 126.783 24.9821 126.865 24.7383 127.161Z" fill="#E0E0E0" />
	<path d="M23.7998 121.355C24.1695 120.232 24.4218 119.073 24.5526 117.898C24.6827 116.715 24.4432 115.52 23.8668 114.479C23.2847 115.549 22.9714 116.745 22.9539 117.964C22.9364 119.182 23.2152 120.387 23.7663 121.474" fill="#E0E0E0" />
	<path d="M27.6445 119.41C28.9826 116.972 31.7075 115.045 34.4629 114.774C33.3992 117.423 30.5005 119.468 27.6445 119.41Z" fill="#E0E0E0" />
	<path d="M26.8066 119.885C28.797 120.19 30.4947 121.461 32.357 122.232C32.7459 122.422 33.1782 122.505 33.6098 122.473C33.8253 122.455 34.0304 122.372 34.1987 122.237C34.3671 122.101 34.491 121.918 34.5547 121.711C34.5835 121.534 34.5685 121.353 34.5112 121.182C34.4538 121.012 34.3557 120.859 34.2255 120.736C33.9613 120.492 33.6502 120.304 33.3111 120.184C31.2842 119.34 29.1109 119.318 26.9743 119.83" fill="#E0E0E0" />
	<path d="M25.6523 121.284C26.1004 121.412 26.2619 121.647 26.6125 121.952C27.831 122.986 29.2713 123.725 30.8218 124.113C30.9833 124.152 31.1936 124.168 31.2729 124.024C31.3521 123.881 31.2546 123.744 31.1662 123.628C30.4879 122.837 29.6102 122.241 28.6241 121.903C27.6518 121.543 26.7953 121.107 25.6523 121.199" fill="#E0E0E0" />
	<path d="M24.3509 112.844C25.1663 113.596 26.1297 114.17 27.1794 114.528C28.2292 114.885 29.3421 115.02 30.4469 114.923C30.5496 114.925 30.6494 114.889 30.7274 114.823C30.8798 114.658 30.6969 114.399 30.517 114.259C28.7218 112.86 26.5546 112.278 24.3418 112.844" fill="#E0E0E0" />
	<path d="M25.8945 112.281C26.9759 111.486 28.2298 110.958 29.554 110.739C30.8782 110.521 32.2353 110.619 33.5145 111.025C32.5173 111.948 31.2389 112.509 29.8844 112.619C28.5449 112.741 27.1943 112.627 25.8945 112.281Z" fill="#E0E0E0" />
	<path d="M25.2812 108.404C25.1044 106.612 25.2172 105.197 25.0952 103.396C25.0952 103.253 25.0526 103.091 24.9185 103.027C24.7325 102.957 24.574 103.186 24.5131 103.378C24.2524 104.212 24.1857 105.095 24.3183 105.959C24.4509 106.824 24.7792 107.646 25.2781 108.364" fill="#E0E0E0" />
	<path d="M25.1504 108.602C26.328 107.849 27.3426 106.867 28.1344 105.715C28.7226 104.914 29.2164 103.954 29.0823 102.972C28.6706 102.983 28.2663 103.084 27.8977 103.268C27.5291 103.451 27.2052 103.714 26.9487 104.036C26.436 104.684 26.0634 105.431 25.8545 106.23C25.6167 107.02 25.4521 107.831 25.1717 108.605" fill="#E0E0E0" />
	<path d="M28.0665 107.794C30.7426 106.807 33.2202 105.348 35.3817 103.487C34.51 103.137 33.5102 103.347 32.6385 103.698C30.6576 104.448 29.021 105.899 28.0391 107.776" fill="#E0E0E0" />
	<path d="M25.9707 109.583C27.3158 109.775 28.6808 109.782 30.0276 109.602C31.3352 109.331 32.6068 108.909 33.8163 108.343C33.9231 108.312 34.0145 108.243 34.0723 108.148C34.0904 108.091 34.0913 108.03 34.0751 107.973C34.0588 107.915 34.0261 107.864 33.9808 107.825C33.8858 107.751 33.7754 107.698 33.6578 107.672C32.2992 107.345 30.8737 107.431 29.5643 107.919C28.3115 108.347 27.1071 108.905 25.9707 109.583Z" fill="#E0E0E0" />
	<path d="M18.2722 112.908C17.8382 111.98 17.6077 110.97 17.5962 109.945C17.5846 108.921 17.7922 107.906 18.2052 106.968C18.766 107.821 18.8331 108.906 18.7325 109.921C18.6319 110.936 18.321 111.979 18.2997 113" fill="#E0E0E0" />
	<path d="M14.5945 111.052C13.4421 111.038 12.2994 111.264 11.2393 111.715C10.1791 112.167 9.2249 112.835 8.4375 113.677C9.59858 113.816 10.7745 113.598 11.8086 113.052C12.8341 112.505 13.8021 111.857 14.6981 111.116" fill="#E0E0E0" />
	<path d="M12.1232 110.232C10.9985 110.141 9.91953 110.004 8.83749 110.333C8.29139 110.488 7.78506 110.759 7.35279 111.127C6.92052 111.495 6.57241 111.952 6.33203 112.466C7.3928 112.552 8.45702 112.351 9.41356 111.884C10.3645 111.416 11.2714 110.863 12.1232 110.232Z" fill="#E0E0E0" />
	<path d="M15.7838 110.266C14.7718 109.602 13.7325 108.928 12.5559 108.654C11.3794 108.379 10.0139 108.58 9.20312 109.467C10.1571 110.028 11.3123 110.095 12.4157 110.092C13.5191 110.089 14.8755 110.092 15.9179 110.449" fill="#E0E0E0" />
	<path d="M15.7897 110.318C14.0585 108.62 13.4031 105.572 14.1011 103.252C15.4641 105.341 16.0609 107.838 15.7897 110.318Z" fill="#E0E0E0" />
	<path d="M20.543 105.508C20.8691 104.752 21.0977 103.957 21.3903 103.185C21.661 102.405 22.0744 101.681 22.6095 101.052C23.1482 100.417 23.9142 100.019 24.7431 99.9424C24.4774 101.111 23.9707 102.212 23.2553 103.174C22.54 104.136 21.6317 104.938 20.5887 105.529" fill="#E0E0E0" />
	<path d="M19.6824 106.511C19.1429 105.767 18.518 104.761 17.7865 104.207C17.4325 103.913 17.0187 103.7 16.5738 103.582C16.129 103.465 15.6638 103.446 15.2109 103.527C15.6735 104.337 16.3184 105.028 17.0945 105.546C17.8707 106.063 18.7567 106.392 19.6824 106.508" fill="#E0E0E0" />
	<path d="M19.8531 105.572C19.4658 104.687 19.1795 103.76 18.9997 102.811C18.8224 101.852 18.975 100.861 19.4325 100C20.3804 101.796 20.6883 103.719 19.9019 105.591" fill="#E0E0E0" />
	<path d="M20.5508 100C21.0872 98.2235 22.7149 96.9159 24.4736 96.3154C24.6903 96.2256 24.9257 96.19 25.1594 96.2118C25.2756 96.2256 25.3855 96.2726 25.4757 96.3472C25.566 96.4218 25.6329 96.5208 25.6684 96.6324C25.7324 96.9372 25.4824 97.2085 25.2477 97.4097C23.8738 98.5826 22.2758 99.4641 20.5508 100Z" fill="#E0E0E0" />
	<path d="M20.5695 98.5463C20.5861 97.3966 20.7584 96.2544 21.0816 95.1509C21.4565 94.0658 22.1728 93.0478 23.2152 92.5723C23.395 93.7305 22.883 94.8826 22.2673 95.8763C21.6516 96.8699 20.9079 97.8148 20.5391 98.9243" fill="#E0E0E0" />
	<path d="M20.5422 99.3357C20.0972 98.0403 20.0515 96.3944 19.2742 95.2666C18.7347 94.4772 17.8661 93.9407 17.3967 93.1025C17.1155 93.905 17.1548 94.785 17.5064 95.5592C17.8603 96.3232 18.3463 97.0186 18.942 97.6136C19.515 98.2232 20.0088 98.6865 20.5422 99.3357Z" fill="#E0E0E0" />
	<path d="M20.5517 137.497C20.5151 137.497 20.4877 128.853 20.4846 118.191C20.4816 107.529 20.509 98.8848 20.5425 98.8848C20.576 98.8848 20.6065 107.526 20.6096 118.191C20.6126 128.856 20.5852 137.497 20.5517 137.497Z" fill="#E0E0E0" />
	<path d="M28.1046 111.604C27.999 111.653 27.89 111.693 27.7785 111.726L26.8854 112.031C26.1295 112.287 25.0962 112.659 23.9715 113.119C22.8468 113.579 21.8074 113.984 21.21 114.503C20.9717 114.702 20.782 114.953 20.6553 115.237C20.57 115.438 20.5547 115.563 20.5425 115.56C20.5303 115.557 20.5425 115.53 20.5425 115.472C20.5551 115.386 20.5765 115.301 20.6065 115.219C20.7204 114.917 20.9067 114.648 21.1491 114.436C21.5085 114.129 21.9111 113.878 22.3439 113.689C22.8224 113.466 23.3528 113.232 23.9167 113C25.0444 112.54 26.0899 112.177 26.8519 111.942C27.2329 111.823 27.5438 111.735 27.7663 111.677C27.8764 111.642 27.9897 111.617 28.1046 111.604Z" fill="#E0E0E0" />
	<path d="M30.5718 105.52C30.546 105.557 30.5152 105.589 30.4804 105.618L30.203 105.88L29.1698 106.818L25.7286 109.888C24.3844 111.086 23.2201 112.229 22.4154 113.091C22.01 113.521 21.693 113.878 21.4766 114.128L21.2267 114.414C21.1959 114.447 21.1611 114.475 21.123 114.499C21.1421 114.459 21.1667 114.421 21.1962 114.387C21.2511 114.32 21.3273 114.216 21.4309 114.082C21.6351 113.823 21.943 113.454 22.3453 113.015C23.3872 111.879 24.488 110.799 25.6432 109.778C26.9935 108.583 28.2218 107.51 29.1149 106.73C29.5508 106.352 29.9104 106.044 30.1756 105.816L30.4804 105.572C30.5091 105.552 30.5398 105.534 30.5718 105.52Z" fill="#E0E0E0" />
	<path d="M24.2762 111.107C24.2426 111.089 24.5231 110.44 24.8035 109.62C25.0839 108.8 25.218 108.096 25.2546 108.114C25.2267 108.644 25.1145 109.165 24.9223 109.659C24.803 110.014 24.6636 110.361 24.5048 110.699C24.4475 110.845 24.3706 110.982 24.2762 111.107Z" fill="#E0E0E0" />
	<path d="M20.5567 116.328C20.4794 116.255 20.4099 116.175 20.3494 116.087L19.8191 115.414C19.3741 114.835 18.7553 114.039 18.0665 113.171C17.3776 112.302 16.7375 111.515 16.2773 110.952L15.7348 110.278C15.663 110.2 15.6006 110.114 15.5488 110.022C15.6302 110.09 15.7047 110.165 15.7713 110.248C15.9115 110.397 16.1066 110.619 16.3444 110.894C16.8229 111.445 17.4691 112.22 18.1732 113.091C18.8772 113.963 19.4716 114.768 19.8983 115.359C20.1147 115.664 20.2824 115.895 20.3982 116.066C20.4615 116.147 20.5147 116.235 20.5567 116.328Z" fill="#E0E0E0" />
	<path d="M18.9023 114.21C18.5659 113.842 18.327 113.395 18.2073 112.911C18.0774 112.488 18.0247 112.046 18.0519 111.604H18.1067C18.0824 111.704 18.0641 111.756 18.0519 111.756C18.0397 111.756 18.0519 111.698 18.0519 111.595H18.1067C18.1331 112.026 18.2077 112.454 18.3292 112.869C18.4851 113.33 18.6767 113.778 18.9023 114.21Z" fill="#E0E0E0" />
	<path d="M16.7614 111.522C16.6121 111.408 16.4493 111.314 16.2767 111.241C15.8411 111.112 15.3832 111.076 14.9326 111.135C14.4762 111.169 14.0236 111.241 13.5793 111.351C13.3969 111.409 13.2105 111.454 13.0215 111.485C13.1874 111.386 13.3672 111.312 13.5549 111.266C13.9999 111.129 14.459 111.043 14.9234 111.01C15.391 110.946 15.8671 110.997 16.3103 111.159C16.4991 111.222 16.6591 111.351 16.7614 111.522Z" fill="#E0E0E0" />
	<path d="M16.2467 110.87C16.2467 110.888 15.9663 110.757 15.506 110.598C14.9083 110.403 14.2891 110.28 13.662 110.233C13.0305 110.188 12.3958 110.22 11.7722 110.33C11.2937 110.416 11.0041 110.504 10.998 110.486C11.0585 110.446 11.1256 110.417 11.1962 110.4C11.3795 110.335 11.5668 110.282 11.757 110.242C13.0202 109.968 14.3357 110.069 15.5426 110.531C15.7244 110.6 15.9015 110.681 16.073 110.772C16.1344 110.798 16.1927 110.831 16.2467 110.87Z" fill="#E0E0E0" />
	<path d="M20.5413 108.114C20.3202 107.499 20.139 106.871 19.9987 106.233C19.8184 105.606 19.678 104.968 19.5781 104.322C19.7997 104.937 19.9809 105.565 20.1207 106.203C20.3013 106.83 20.4418 107.469 20.5413 108.114Z" fill="#E0E0E0" />
	<path d="M20.5745 108.114C20.399 107.724 20.1953 107.347 19.9649 106.986C19.7102 106.646 19.4143 106.339 19.084 106.072C19.2088 106.104 19.3246 106.164 19.4223 106.249C19.6738 106.432 19.8923 106.656 20.0685 106.913C20.3404 107.262 20.515 107.676 20.5745 108.114Z" fill="#E0E0E0" />
	<path d="M20.551 132.888C20.5358 132.888 20.5114 132.681 20.4139 132.312C20.2701 131.796 20.0761 131.294 19.8348 130.815C19.0037 129.251 17.9741 127.8 16.7715 126.5C16.0888 125.716 15.4243 124.976 14.8604 124.274C14.3602 123.652 13.9068 122.992 13.5041 122.302C13.2332 121.835 13.0028 121.346 12.8152 120.839C12.7512 120.66 12.7055 120.516 12.6811 120.422C12.6647 120.373 12.6525 120.323 12.6445 120.272C12.6445 120.272 12.7177 120.468 12.8609 120.821C13.0651 121.317 13.3055 121.797 13.5803 122.257C13.9934 122.937 14.4548 123.587 14.961 124.201C15.5279 124.899 16.1802 125.634 16.8782 126.417C18.0875 127.726 19.113 129.193 19.9262 130.779C20.162 131.266 20.344 131.777 20.4687 132.303C20.5114 132.492 20.5358 132.638 20.548 132.739C20.5536 132.788 20.5546 132.838 20.551 132.888Z" fill="#E0E0E0" />
	<path d="M27.3748 125.167C27.2606 125.243 27.1415 125.31 27.0182 125.369C26.7001 125.551 26.3946 125.755 26.1038 125.978C25.6693 126.317 25.2617 126.689 24.8846 127.091C24.4548 127.542 24.0159 128.066 23.5648 128.615C22.6504 129.743 21.8244 130.748 21.3215 131.538C21.0654 131.934 20.8795 132.266 20.7576 132.501C20.6999 132.625 20.6347 132.745 20.5625 132.861C20.5625 132.861 20.5625 132.824 20.596 132.757C20.6296 132.69 20.657 132.599 20.7149 132.48C20.8715 132.138 21.0496 131.808 21.2483 131.489C21.9316 130.463 22.6725 129.477 23.4672 128.536C23.9183 127.972 24.3634 127.447 24.7992 126.996C25.1846 126.595 25.6026 126.226 26.0489 125.893C26.3503 125.67 26.6705 125.474 27.006 125.308C27.1248 125.25 27.2224 125.213 27.2864 125.186C27.3151 125.177 27.3448 125.17 27.3748 125.167Z" fill="#E0E0E0" />
	<path d="M27.5249 127.679C27.2758 127.733 27.0232 127.77 26.769 127.789C26.162 127.851 25.562 127.969 24.9768 128.142C24.3975 128.33 23.8543 128.614 23.3705 128.984C22.9987 129.27 22.8249 129.508 22.8066 129.493C22.834 129.429 22.8722 129.37 22.9194 129.319C23.0372 129.172 23.1689 129.038 23.3126 128.917C23.7921 128.518 24.3435 128.215 24.9372 128.024C25.5327 127.847 26.1462 127.739 26.766 127.7C27.0179 127.671 27.2718 127.664 27.5249 127.679Z" fill="#E0E0E0" />
	<path d="M23.0129 129.218C22.9733 129.197 23.3177 128.676 23.5768 127.975C23.8359 127.274 23.8816 126.649 23.9273 126.658C23.9535 126.792 23.9535 126.929 23.9273 127.063C23.8914 127.389 23.8177 127.709 23.7078 128.017C23.5901 128.325 23.4389 128.62 23.2567 128.895C23.1937 129.015 23.1113 129.124 23.0129 129.218Z" fill="#E0E0E0" />
	<path d="M29.5848 118.462C29.5848 118.462 29.5452 118.489 29.4659 118.526L29.1093 118.687C28.9539 118.755 28.7649 118.84 28.5515 118.953C28.3382 119.065 28.0882 119.175 27.8292 119.331L27.4177 119.565C27.2744 119.648 27.1342 119.745 26.9818 119.84C26.677 120.026 26.3722 120.251 26.0491 120.483C25.3579 121.006 24.7059 121.58 24.0984 122.199C23.5006 122.826 22.9504 123.498 22.4525 124.207C22.23 124.54 22.0136 124.851 21.8429 125.161C21.7545 125.314 21.6631 125.466 21.5838 125.606L21.3644 126.027C21.2181 126.289 21.1114 126.542 21.0108 126.762C20.9102 126.981 20.8249 127.17 20.7639 127.325L20.6146 127.688C20.6008 127.731 20.5813 127.772 20.5566 127.81C20.5566 127.81 20.5566 127.764 20.5932 127.679C20.6298 127.594 20.6664 127.46 20.7182 127.31C20.77 127.161 20.8462 126.954 20.9437 126.734C21.0413 126.515 21.1419 126.256 21.2851 125.987L21.4985 125.561C21.5747 125.411 21.6661 125.256 21.7545 125.11C21.9252 124.805 22.1416 124.479 22.3641 124.14C22.8594 123.425 23.4097 122.749 24.01 122.12C24.6213 121.497 25.2796 120.922 25.979 120.4C26.3082 120.169 26.6191 119.943 26.927 119.763C27.0794 119.669 27.2318 119.574 27.3689 119.492L27.7865 119.264C28.0517 119.111 28.3047 119.004 28.5211 118.898C28.7065 118.806 28.8968 118.725 29.091 118.654L29.4568 118.514L29.5848 118.462Z" fill="#E0E0E0" />
	<path d="M24.1719 122.083C24.2227 121.906 24.3297 121.751 24.4767 121.641C24.8095 121.352 25.2336 121.189 25.6745 121.181C26.1063 121.18 26.534 121.264 26.9334 121.428C27.1036 121.48 27.2649 121.558 27.4119 121.659C27.2424 121.623 27.0763 121.573 26.9151 121.51C26.5224 121.376 26.1107 121.307 25.6959 121.306C25.2819 121.315 24.8816 121.456 24.5529 121.708C24.4167 121.823 24.2894 121.949 24.1719 122.083Z" fill="#E0E0E0" />
	<path d="M23.377 122.915C23.5379 122.565 23.6526 122.195 23.7183 121.815C23.7413 121.429 23.7157 121.042 23.6421 120.663C23.7129 120.757 23.7609 120.867 23.7823 120.983C23.8547 121.259 23.8743 121.546 23.8403 121.83C23.8082 122.114 23.7223 122.389 23.5873 122.641C23.4836 122.827 23.3891 122.924 23.377 122.915Z" fill="#E0E0E0" />
	<path d="M14.5801 134.125C14.766 137.43 15.7627 140.788 17.2928 144.184H23.9527C25.4127 140.831 26.3393 137.478 26.5039 134.125H14.5801Z" fill="#E0E0E0" />
	<path d="M25.4258 139.472C25.4258 139.505 23.2312 139.533 20.5277 139.533C17.8241 139.533 15.6387 139.493 15.6387 139.472C15.6387 139.45 17.8302 139.408 20.5338 139.408C23.2373 139.408 25.4258 139.438 25.4258 139.472Z" fill="#FAFAFA" />
	<path d="M25.2763 140.667C25.2763 140.703 23.2219 140.731 20.686 140.731C18.1501 140.731 16.0957 140.713 16.0957 140.667C16.0957 140.621 18.1501 140.606 20.686 140.606C23.2219 140.606 25.2763 140.633 25.2763 140.667Z" fill="#FAFAFA" />
	<path d="M17.3989 136.296C17.4842 137.316 17.4842 138.342 17.3989 139.362C17.3176 138.342 17.3176 137.316 17.3989 136.296Z" fill="#FAFAFA" />
	<path d="M20.9683 136.296C21.0495 137.353 21.0495 138.415 20.9683 139.472C20.883 138.415 20.883 137.353 20.9683 136.296Z" fill="#FAFAFA" />
	<path d="M24.3149 136.269C24.4002 137.347 24.4002 138.43 24.3149 139.509C24.2336 138.43 24.2336 137.347 24.3149 136.269Z" fill="#FAFAFA" />
	<path d="M26.3052 136.296C26.3052 136.329 23.7357 136.357 20.5627 136.357C17.3898 136.357 14.8203 136.329 14.8203 136.296C14.8203 136.262 17.3928 136.232 20.5627 136.232C23.7327 136.232 26.3052 136.259 26.3052 136.296Z" fill="#FAFAFA" />
	<path d="M137.274 118.569C137.259 118.569 137.244 118.337 137.161 117.929C137.055 117.351 136.884 116.786 136.652 116.246C136.318 115.444 135.823 114.718 135.199 114.113C134.441 113.36 133.417 112.937 132.349 112.933C131.282 112.93 130.255 113.347 129.493 114.094C128.864 114.698 128.366 115.424 128.03 116.228C127.794 116.766 127.62 117.33 127.511 117.907C127.429 118.316 127.414 118.547 127.396 118.544C127.389 118.489 127.389 118.432 127.396 118.377C127.396 118.267 127.417 118.105 127.447 117.898C127.535 117.31 127.695 116.735 127.923 116.185C128.254 115.361 128.753 114.614 129.389 113.994C129.778 113.607 130.239 113.301 130.747 113.093C131.254 112.885 131.797 112.779 132.345 112.781C132.894 112.783 133.436 112.893 133.942 113.105C134.448 113.316 134.907 113.626 135.293 114.015C135.928 114.636 136.424 115.384 136.75 116.21C136.977 116.76 137.135 117.336 137.219 117.926C137.245 118.084 137.262 118.244 137.271 118.404C137.279 118.459 137.28 118.514 137.274 118.569Z" fill="#E0E0E0" />
	<path d="M138.981 118.569C138.966 118.569 138.947 118.337 138.868 117.929C138.761 117.351 138.591 116.786 138.359 116.246C138.023 115.444 137.527 114.718 136.902 114.113C136.144 113.36 135.121 112.937 134.053 112.933C132.985 112.93 131.959 113.347 131.196 114.094C130.568 114.699 130.071 115.425 129.733 116.228C129.5 116.767 129.327 117.33 129.218 117.907C129.136 118.316 129.117 118.547 129.102 118.544C129.094 118.489 129.094 118.432 129.102 118.377C129.111 118.216 129.128 118.057 129.154 117.898C129.241 117.31 129.4 116.734 129.63 116.185C129.96 115.361 130.46 114.614 131.096 113.994C131.485 113.607 131.946 113.301 132.453 113.093C132.96 112.885 133.504 112.779 134.052 112.781C134.6 112.783 135.143 112.893 135.649 113.105C136.154 113.316 136.614 113.626 137 114.015C137.633 114.637 138.13 115.384 138.457 116.21C138.681 116.761 138.839 117.337 138.926 117.926C138.951 118.084 138.967 118.244 138.975 118.404C138.985 118.458 138.987 118.514 138.981 118.569Z" fill="#E0E0E0" />
	<path d="M122.514 117.959L141.778 117.813L142.198 144.072H120.582L122.514 117.959Z" fill="#EBEBEB" />
	<path d="M141.779 117.813H144.199L146.281 144.072H142.2L141.779 117.813Z" fill="#E0E0E0" />
	<path d="M137.699 128.152H125.086V130.264H137.699V128.152Z" fill="white" />
	<path d="M30.2322 17.939H8.25V54.326H30.2322V17.939Z" fill="#E0E0E0" />
	<path d="M29.4998 17.939H7.51758V54.326H29.4998V17.939Z" fill="#EBEBEB" />
	<path d="M28.5638 18.6768H8.45312V53.5886H28.5638V18.6768Z" fill="white" />
	<path d="M24.647 23.2119H12.2812V49.0498H24.647V23.2119Z" fill="#EBEBEB" />
	<path d="M12.2835 39.9091C12.256 37.4951 14.4171 35.139 16.8158 34.8007C17.9558 34.6422 19.1658 34.8678 20.2326 34.4319C22.1315 33.6516 22.7381 31.1248 24.6492 30.375L24.7376 49.0531H12.2835V39.9091Z" fill="#E0E0E0" />
	<path d="M144.272 39.9546H125.99V59.0137H144.272V39.9546Z" fill="#E0E0E0" />
	<path d="M143.034 39.9546H124.752V59.0137H143.034V39.9546Z" fill="#F5F5F5" />
	<path d="M143.044 59.0262H124.756V39.9487H143.044V59.0262ZM124.756 59.0262H143.044V39.9609H124.756V59.0262Z" fill="#E0E0E0" />
	<path d="M140.578 42.5181H127.209V56.4535H140.578V42.5181Z" fill="white" />
	<path d="M127.21 56.5449C127.116 56.6858 127.006 56.8147 126.881 56.929C126.667 57.1545 126.369 57.4593 126.03 57.7885C125.692 58.1177 125.387 58.4164 125.159 58.6237C125.043 58.7466 124.913 58.8551 124.771 58.9467C124.866 58.8072 124.976 58.6793 125.101 58.5657C125.314 58.3402 125.613 58.0354 125.951 57.7032C126.289 57.3709 126.597 57.0753 126.826 56.865C126.941 56.7437 127.07 56.6363 127.21 56.5449Z" fill="#E0E0E0" />
	<path d="M140.578 56.5112C140.719 56.605 140.848 56.7155 140.962 56.8404C141.188 57.0538 141.493 57.3525 141.822 57.6908C142.151 58.0291 142.45 58.3339 142.66 58.5625C142.781 58.6785 142.889 58.8084 142.98 58.9496C142.84 58.8553 142.713 58.7448 142.599 58.6204C142.373 58.4071 142.069 58.1053 141.736 57.7701C141.404 57.4348 141.108 57.1208 140.898 56.8953C140.777 56.7801 140.669 56.6513 140.578 56.5112Z" fill="#E0E0E0" />
	<path d="M140.541 42.5668C140.636 42.4268 140.746 42.298 140.87 42.1827C141.084 41.9572 141.385 41.6524 141.721 41.3201C142.056 40.9879 142.367 40.6953 142.592 40.485C142.708 40.3677 142.838 40.2653 142.979 40.1802C142.886 40.3194 142.776 40.4473 142.653 40.5612C142.44 40.7867 142.138 41.0915 141.8 41.4238C141.462 41.756 141.154 42.0516 140.925 42.262C140.809 42.3779 140.68 42.4801 140.541 42.5668Z" fill="#E0E0E0" />
	<path d="M127.173 42.5883C127.032 42.4945 126.903 42.384 126.789 42.2591C126.567 42.0458 126.262 41.744 125.93 41.4087C125.597 41.0734 125.302 40.7625 125.095 40.537C124.972 40.4215 124.863 40.2915 124.771 40.1499C124.911 40.2425 125.039 40.352 125.152 40.476C125.378 40.6894 125.686 40.9911 126.015 41.3295C126.344 41.6678 126.646 41.9757 126.853 42.2043C126.975 42.3194 127.082 42.4483 127.173 42.5883Z" fill="#E0E0E0" />
	<path d="M140.542 56.4506C140.541 56.4283 140.541 56.4059 140.542 56.3835C140.542 56.3378 140.542 56.2738 140.542 56.1885C140.542 56.0147 140.542 55.7648 140.542 55.4387C140.542 54.7772 140.542 53.8171 140.542 52.5979C140.542 50.1595 140.542 46.6787 140.515 42.5182L140.566 42.57H127.237L127.298 42.5121C127.298 47.6266 127.298 52.4089 127.298 56.4445L127.247 56.3957L136.9 56.4201L139.612 56.4354H140.301H139.591H136.894L127.207 56.4597H127.158V56.4079C127.158 52.3724 127.158 47.5901 127.158 42.4755V42.4146H127.219H140.548H140.606V42.4664C140.606 46.6421 140.585 50.129 140.579 52.5796C140.579 53.7988 140.579 54.7498 140.579 55.4082C140.579 55.713 140.579 55.9782 140.579 56.1488C140.579 56.2311 140.579 56.2921 140.579 56.3378C140.572 56.3771 140.56 56.4152 140.542 56.4506Z" fill="#E0E0E0" />
	<path d="M136.121 47.2544H131.662V51.7136H136.121V47.2544Z" fill="#EBEBEB" />
	<path d="M139.293 144.066C139.293 144.108 111.221 144.145 76.5989 144.145C41.9766 144.145 13.8984 144.114 13.8984 144.066C13.8984 144.017 41.9644 143.986 76.5989 143.986C111.233 143.986 139.293 144.029 139.293 144.066Z" fill="#263238" />
	<path d="M134.404 65.8599H120.389C118.034 65.8599 116.125 67.769 116.125 70.124V84.1387C116.125 86.4937 118.034 88.4029 120.389 88.4029H134.404C136.759 88.4029 138.668 86.4937 138.668 84.1387V70.124C138.668 67.769 136.759 65.8599 134.404 65.8599Z" fill="#25A5B4" />
	<path d="M130.454 80.0576H129.094C129.054 80.0576 129.015 80.0416 128.986 80.013C128.958 79.9844 128.942 79.9456 128.942 79.9052C128.942 79.8648 128.958 79.826 128.986 79.7975C129.015 79.7689 129.054 79.7528 129.094 79.7528H130.298L130.121 74.5316C130.12 74.4966 130.131 74.4622 130.152 74.4344C130.173 74.4065 130.203 74.387 130.237 74.3792C130.271 74.3706 130.307 74.3745 130.338 74.3902C130.37 74.4059 130.394 74.4322 130.408 74.4645L130.999 75.8057L132.868 74.8699C132.179 73.477 131.402 71.9774 131.27 71.8433C131.122 71.7183 130.955 71.6156 130.777 71.5385C130.671 71.4856 130.562 71.4388 130.451 71.3982C129.945 71.2123 129.231 71.0233 128.942 70.9502C128.796 71.226 128.576 71.4559 128.307 71.6141C128.038 71.7723 127.73 71.8527 127.418 71.8463C126.394 71.7945 125.994 71.2184 125.863 70.9502C125.58 71.0233 124.867 71.2093 124.379 71.3891C124.263 71.429 124.15 71.4769 124.041 71.5324C123.86 71.609 123.692 71.7117 123.541 71.8372C123.407 71.9713 122.626 73.4709 121.941 74.8638L123.812 75.7996L124.4 74.4584C124.415 74.4269 124.44 74.4013 124.471 74.3857C124.502 74.3702 124.537 74.3658 124.571 74.3731C124.605 74.3814 124.635 74.4009 124.657 74.4286C124.679 74.4562 124.69 74.4904 124.69 74.5255L124.528 79.7528H127.272C127.312 79.7528 127.351 79.7689 127.379 79.7975C127.408 79.826 127.424 79.8648 127.424 79.9052C127.424 79.9456 127.408 79.9844 127.379 80.013C127.351 80.0416 127.312 80.0576 127.272 80.0576H124.373C124.332 80.0575 124.292 80.0411 124.263 80.0119C124.236 79.9818 124.221 79.9428 124.22 79.9022L124.348 75.2966L124.007 76.0739C123.999 76.0928 123.986 76.1098 123.971 76.124C123.956 76.1381 123.938 76.149 123.919 76.1562C123.9 76.1645 123.88 76.1688 123.859 76.1688C123.839 76.1688 123.819 76.1645 123.8 76.1562L121.666 75.0833C121.631 75.0644 121.604 75.0327 121.592 74.9946C121.579 74.9566 121.582 74.9152 121.599 74.8791C121.846 74.3792 123.09 71.8707 123.321 71.639C123.494 71.491 123.688 71.3707 123.897 71.2824C124.011 71.2246 124.128 71.1737 124.248 71.13C124.906 70.8862 125.876 70.6515 125.915 70.6423C125.934 70.6373 125.953 70.6359 125.972 70.6384C125.991 70.6409 126.01 70.6471 126.027 70.6567C126.043 70.6664 126.058 70.6792 126.07 70.6945C126.081 70.7098 126.09 70.7273 126.095 70.746C126.095 70.7765 126.342 71.5049 127.415 71.5598C128.482 71.5049 128.716 70.7521 128.716 70.746C128.721 70.7273 128.73 70.7098 128.742 70.6945C128.753 70.6792 128.768 70.6664 128.785 70.6567C128.801 70.6471 128.82 70.6409 128.839 70.6384C128.858 70.6359 128.877 70.6373 128.896 70.6423C128.939 70.6423 129.905 70.8862 130.539 71.1209H130.557C130.682 71.1666 130.804 71.2195 130.923 71.2794C131.13 71.3672 131.322 71.4865 131.493 71.6329C131.725 71.8646 132.968 74.3761 133.215 74.873C133.224 74.891 133.229 74.9105 133.23 74.9306C133.232 74.9506 133.229 74.9707 133.222 74.9896C133.216 75.0086 133.206 75.0261 133.192 75.0411C133.179 75.0562 133.163 75.0684 133.145 75.0772L131.011 76.1501C130.993 76.1584 130.972 76.1627 130.952 76.1627C130.932 76.1627 130.911 76.1584 130.893 76.1501C130.873 76.1429 130.856 76.1319 130.841 76.1178C130.827 76.1036 130.815 76.0866 130.807 76.0678L130.469 75.2997L130.624 79.8961C130.626 79.9164 130.622 79.9367 130.615 79.9556C130.608 79.9746 130.596 79.9917 130.582 80.0058C130.566 80.0237 130.546 80.0377 130.524 80.0467C130.502 80.0557 130.478 80.0594 130.454 80.0576Z" fill="white" />
	<path d="M128.313 80.0572H127.883C127.842 80.0572 127.804 80.0412 127.775 80.0126C127.747 79.984 127.73 79.9453 127.73 79.9048C127.73 79.8644 127.747 79.8257 127.775 79.7971C127.804 79.7685 127.842 79.7524 127.883 79.7524H128.313C128.353 79.7524 128.392 79.7685 128.42 79.7971C128.449 79.8257 128.465 79.8644 128.465 79.9048C128.465 79.9453 128.449 79.984 128.42 80.0126C128.392 80.0412 128.353 80.0572 128.313 80.0572Z" fill="white" />
	<path d="M121.099 82.0784H120.318V81.6182H122.452V82.0784H121.672V84.0596H121.099V82.0784Z" fill="white" />
	<path d="M122.514 82.8584H123.498V83.2943H122.514V82.8584Z" fill="white" />
	<path d="M123.727 83.8189L123.919 83.3922C124.155 83.5563 124.435 83.6455 124.723 83.6482C125.059 83.6482 125.193 83.5354 125.193 83.3861C125.193 82.9289 123.775 83.2428 123.775 82.3345C123.775 81.92 124.108 81.5756 124.803 81.5756C125.099 81.5692 125.392 81.644 125.65 81.792L125.476 82.2217C125.271 82.0992 125.038 82.033 124.799 82.0297C124.464 82.0297 124.336 82.1547 124.336 82.3071C124.336 82.7582 125.757 82.4473 125.757 83.3434C125.757 83.7518 125.418 84.0993 124.72 84.0993C124.368 84.1087 124.022 84.0109 123.727 83.8189Z" fill="white" />
	<path d="M128.38 81.6182V84.0566H127.804V83.0538H126.695V84.0566H126.131V81.6182H126.695V82.5783H127.804V81.6182H128.38Z" fill="white" />
	<path d="M128.957 81.6182H129.521V84.0566H128.957V81.6182Z" fill="white" />
	<path d="M131.654 84.0595L131.185 83.3767H130.667V84.0595H130.1V81.6211H131.157C131.81 81.6211 132.218 81.9594 132.218 82.505C132.224 82.6698 132.179 82.8326 132.089 82.9707C131.999 83.1089 131.868 83.2156 131.715 83.2762L132.264 84.0625L131.654 84.0595ZM131.127 82.0783H130.667V82.9287H131.127C131.471 82.9287 131.645 82.7671 131.645 82.502C131.645 82.2368 131.462 82.0783 131.127 82.0783Z" fill="white" />
	<path d="M133.134 82.0784H132.354V81.6182H134.487V82.0784H133.707V84.0596H133.14L133.134 82.0784Z" fill="white" />
	<path d="M127.678 127.606C127.577 126.94 127.399 126.289 127.147 125.664C126.866 124.994 126.451 124.388 125.928 123.884C125.297 123.255 124.443 122.901 123.551 122.897C122.66 122.894 121.803 123.242 121.167 123.866C120.643 124.369 120.228 124.974 119.948 125.643C119.693 126.266 119.512 126.917 119.408 127.582C119.4 127.535 119.4 127.488 119.408 127.441C119.414 127.307 119.429 127.172 119.451 127.039C119.521 126.545 119.653 126.062 119.844 125.6C120.119 124.913 120.534 124.29 121.063 123.772C121.39 123.446 121.778 123.189 122.204 123.013C122.63 122.838 123.087 122.749 123.548 122.75C124.009 122.751 124.465 122.844 124.89 123.022C125.315 123.2 125.701 123.46 126.026 123.787C126.555 124.311 126.97 124.939 127.245 125.631C127.433 126.093 127.563 126.576 127.632 127.07C127.653 127.203 127.667 127.337 127.671 127.472C127.681 127.516 127.683 127.561 127.678 127.606Z" fill="#263238" />
	<path d="M129.108 127.606C129.007 126.94 128.829 126.289 128.578 125.664C128.297 124.994 127.882 124.388 127.359 123.884C126.727 123.255 125.873 122.901 124.982 122.897C124.091 122.894 123.234 123.242 122.598 123.866C122.075 124.37 121.66 124.974 121.378 125.643C121.125 126.266 120.945 126.917 120.842 127.582C120.834 127.535 120.834 127.488 120.842 127.441C120.848 127.307 120.862 127.172 120.882 127.039C120.955 126.545 121.088 126.062 121.278 125.6C121.553 124.913 121.968 124.29 122.497 123.772C122.824 123.446 123.211 123.189 123.637 123.013C124.064 122.838 124.52 122.749 124.981 122.75C125.442 122.751 125.898 122.844 126.323 123.022C126.749 123.2 127.135 123.46 127.459 123.787C127.99 124.31 128.405 124.938 128.678 125.631C128.867 126.093 128.998 126.576 129.069 127.07C129.09 127.203 129.103 127.337 129.108 127.472C129.115 127.516 129.115 127.562 129.108 127.606Z" fill="#263238" />
	<path d="M114.599 126.749L130.738 126.652L131.089 144.169H112.98L114.599 126.749Z" fill="#455A64" />
	<path d="M130.738 126.652H132.762L134.509 144.169H131.089L130.738 126.652Z" fill="#263238" />
	<path d="M127.986 132.602H117.422V134.372H127.986V132.602Z" fill="white" />
	<path d="M115.495 137.213H39.8554C39.3603 137.205 38.8716 137.099 38.4173 136.902C37.9631 136.705 37.5521 136.42 37.2079 136.064C36.8638 135.708 36.5931 135.287 36.4114 134.827C36.2297 134.366 36.1406 133.874 36.149 133.379V17.756C36.1402 17.2605 36.229 16.768 36.4105 16.3068C36.5919 15.8456 36.8625 15.4246 37.2067 15.068C37.5508 14.7113 37.9619 14.426 38.4164 14.2283C38.8709 14.0305 39.3599 13.9243 39.8554 13.9155H115.498C115.993 13.9243 116.482 14.0305 116.937 14.2283C117.391 14.426 117.802 14.7113 118.146 15.068C118.491 15.4246 118.761 15.8456 118.943 16.3068C119.124 16.768 119.213 17.2605 119.204 17.756V133.379C119.22 134.379 118.839 135.345 118.143 136.064C117.448 136.783 116.495 137.196 115.495 137.213Z" fill="#E0E0E0" />
	<path d="M115.493 137.214L115.758 137.195C115.867 137.19 115.975 137.177 116.081 137.156C116.232 137.133 116.381 137.099 116.526 137.055C116.938 136.928 117.323 136.73 117.666 136.47C118.142 136.111 118.525 135.644 118.785 135.107C118.941 134.787 119.053 134.446 119.117 134.095C119.176 133.703 119.198 133.306 119.181 132.91C119.181 132.075 119.181 131.16 119.181 130.167C119.181 128.188 119.181 125.899 119.181 123.336C119.181 113.058 119.166 98.1839 119.154 79.8075C119.154 70.6178 119.154 60.5533 119.154 49.7481C119.154 44.3471 119.154 38.7662 119.154 33.0054C119.154 30.1261 119.154 27.2061 119.154 24.2455V19.7802C119.154 19.0334 119.154 18.2745 119.154 17.5277C119.137 17.1568 119.063 16.7907 118.934 16.4426C118.744 15.9146 118.438 15.436 118.038 15.0424C117.638 14.6488 117.155 14.3502 116.624 14.1688C116.265 14.058 115.893 13.9995 115.517 13.9951H39.8631C38.9979 13.9982 38.1632 14.3143 37.5131 14.8851C36.8695 15.4571 36.4395 16.231 36.2939 17.0796C36.2351 17.5067 36.2147 17.9382 36.2329 18.3689V52.7656C36.2329 65.9879 36.2329 78.7437 36.2329 90.8961C36.2329 103.048 36.2329 114.591 36.2329 125.396C36.2329 128.101 36.2329 130.756 36.2329 133.361C36.2366 133.998 36.3923 134.625 36.6871 135.19C37.1358 136.035 37.8937 136.673 38.8024 136.973C39.0992 137.064 39.4065 137.117 39.7168 137.131C40.3447 137.149 40.9786 137.131 41.6035 137.131H56.0266L99.5521 137.156L111.387 137.171L99.5521 137.186L56.0266 137.21H41.6035C40.9756 137.21 40.3508 137.21 39.7107 137.21C39.388 137.198 39.0684 137.144 38.7597 137.049C37.8202 136.739 37.0364 136.078 36.5712 135.205C36.2638 134.619 36.1028 133.968 36.1018 133.306C36.1018 130.699 36.1018 128.044 36.1018 125.342C36.1018 114.536 36.1018 102.991 36.1018 90.8412C36.1018 78.6919 36.1018 65.933 36.1018 52.7108V18.375C36.0839 17.9351 36.1053 17.4944 36.1658 17.0583C36.3183 16.1729 36.769 15.3663 37.443 14.7723C38.1208 14.1866 38.9856 13.8624 39.8814 13.8579H115.481C115.872 13.8621 116.26 13.9238 116.633 14.0408C117.374 14.2889 118.021 14.7593 118.486 15.388C118.721 15.6954 118.905 16.038 119.032 16.403C119.166 16.7648 119.244 17.1452 119.263 17.5307C119.285 18.2927 119.263 19.0547 119.263 19.7893V24.2485C119.263 27.2071 119.263 30.1271 119.263 33.0085C119.263 38.7631 119.263 44.344 119.263 49.7512C119.263 60.5563 119.263 70.6208 119.263 79.8105C119.263 98.1869 119.245 113.061 119.239 123.339C119.239 125.908 119.239 128.191 119.239 130.17C119.239 131.157 119.239 132.072 119.239 132.913C119.255 133.311 119.232 133.711 119.169 134.105C119.104 134.459 118.99 134.803 118.831 135.126C118.566 135.665 118.178 136.134 117.697 136.494C117.343 136.749 116.947 136.939 116.526 137.055C116.381 137.099 116.232 137.133 116.081 137.156C115.974 137.175 115.865 137.187 115.755 137.192L115.493 137.214Z" fill="#263238" />
	<path d="M79.1206 131.605C79.1333 132.305 78.9375 132.992 78.558 133.58C78.1785 134.168 77.6325 134.63 76.9898 134.906C76.347 135.182 75.6364 135.261 74.9487 135.132C74.2609 135.003 73.6272 134.673 73.1281 134.182C72.629 133.692 72.2873 133.064 72.1464 132.379C72.0055 131.693 72.0719 130.981 72.337 130.334C72.6022 129.686 73.0542 129.132 73.6353 128.743C74.2165 128.353 74.9005 128.145 75.6002 128.146C76.0585 128.142 76.5131 128.228 76.9381 128.4C77.363 128.571 77.75 128.825 78.0769 129.146C78.4038 129.467 78.6643 129.85 78.8433 130.272C79.0224 130.694 79.1166 131.147 79.1206 131.605Z" fill="white" />
	<path d="M86.1838 20.4384H69.2217C68.9047 20.4289 68.6039 20.2962 68.3831 20.0686C68.1623 19.841 68.0389 19.5363 68.0391 19.2192C68.0389 18.9021 68.1623 18.5974 68.3831 18.3698C68.6039 18.1422 68.9047 18.0095 69.2217 18H86.1838C86.5008 18.0095 86.8016 18.1422 87.0224 18.3698C87.2432 18.5974 87.3666 18.9021 87.3664 19.2192C87.3666 19.5363 87.2432 19.841 87.0224 20.0686C86.8016 20.2962 86.5008 20.4289 86.1838 20.4384Z" fill="#263238" />
	<path d="M116.512 22.7183H38.6934V125.68H116.512V22.7183Z" fill="white" />
	<path d="M116.526 125.683C116.526 125.058 116.495 83.7423 116.456 22.7183L116.526 22.7884H38.7164L38.7956 22.7091C38.7956 61.0347 38.7956 96.5683 38.7804 125.674L38.7164 125.607L116.535 125.674L38.7164 125.738H38.6523V125.674C38.6523 96.5683 38.6523 61.0347 38.6523 22.7091V22.6299H38.7377H116.547H116.617V22.7C116.526 83.7423 116.526 125.058 116.526 125.683Z" fill="#263238" />
	<path d="M32.707 28.415H47.752V38.4734C47.752 40.3182 47.0191 42.0873 45.7147 43.3917C44.4103 44.6962 42.6411 45.429 40.7964 45.429H39.6626C37.8189 45.429 36.0507 44.697 34.7464 43.3939C33.4422 42.0908 32.7086 40.3232 32.707 38.4795V28.4211V28.415Z" fill="#25A5B4" />
	<path d="M47.6426 28.415H62.6875V38.4734C62.6875 40.3182 61.9547 42.0873 60.6503 43.3917C59.3459 44.6962 57.5767 45.429 55.732 45.429H54.5981C52.7544 45.429 50.9862 44.697 49.682 43.3939C48.3777 42.0908 47.6442 40.3232 47.6426 38.4795V28.4211V28.415Z" fill="#25A5B4" />
	<path d="M62.5781 28.415H77.6231V38.4734C77.6231 40.3182 76.8902 42.0873 75.5858 43.3917C74.2814 44.6962 72.5122 45.429 70.6675 45.429H69.5337C67.69 45.429 65.9217 44.697 64.6175 43.3939C63.3133 42.0908 62.5797 40.3232 62.5781 38.4795V28.4211V28.415Z" fill="#25A5B4" />
	<path d="M77.5117 28.415H92.5536V38.4734C92.5536 40.3182 91.8208 42.0873 90.5164 43.3917C89.2119 44.6962 87.4428 45.429 85.5981 45.429H84.4642C82.6211 45.4282 80.8536 44.6958 79.55 43.3928C78.2464 42.0898 77.5133 40.3227 77.5117 38.4795V28.4211V28.415Z" fill="#25A5B4" />
	<path d="M92.4238 28.415H107.469V38.4734C107.469 40.3182 106.736 42.0873 105.432 43.3917C104.127 44.6962 102.358 45.429 100.513 45.429H99.3794C97.5346 45.429 95.7655 44.6962 94.4611 43.3917C93.1566 42.0873 92.4238 40.3182 92.4238 38.4734V28.415Z" fill="#25A5B4" />
	<path d="M107.35 28.415H122.395V38.4734C122.395 40.3182 121.662 42.0873 120.357 43.3917C119.053 44.6962 117.284 45.429 115.439 45.429H114.305C112.46 45.429 110.691 44.6962 109.387 43.3917C108.082 42.0873 107.35 40.3182 107.35 38.4734V28.415Z" fill="#25A5B4" />
	<g opacity="0.3">
		<path d="M47.6426 28.415H62.6875V38.4734C62.6875 40.3182 61.9547 42.0873 60.6503 43.3917C59.3459 44.6962 57.5767 45.429 55.732 45.429H54.5981C52.7544 45.429 50.9862 44.697 49.682 43.3939C48.3777 42.0908 47.6442 40.3232 47.6426 38.4795V28.4211V28.415Z" fill="white" />
	</g>
	<g opacity="0.3">
		<path d="M77.5117 28.415H92.5536V38.4734C92.5536 40.3182 91.8208 42.0873 90.5164 43.3917C89.2119 44.6962 87.4428 45.429 85.5981 45.429H84.4642C82.6211 45.4282 80.8536 44.6958 79.55 43.3928C78.2464 42.0898 77.5133 40.3227 77.5117 38.4795V28.4211V28.415Z" fill="white" />
	</g>
	<g opacity="0.3">
		<path d="M107.35 28.415H122.395V38.4734C122.395 40.3182 121.662 42.0873 120.357 43.3917C119.053 44.6962 117.284 45.429 115.439 45.429H114.305C112.46 45.429 110.691 44.6962 109.387 43.3917C108.082 42.0873 107.35 40.3182 107.35 38.4734V28.415Z" fill="white" />
	</g>
	<path d="M47.7668 28.2412C47.8094 28.2412 47.846 30.8808 47.846 34.136C47.846 37.3913 47.8094 40.0309 47.7668 40.0309C47.7241 40.0309 47.6875 37.3913 47.6875 34.136C47.6875 30.8808 47.7241 28.2412 47.7668 28.2412Z" fill="#263238" />
	<path d="M62.6945 28.2412C62.7372 28.2412 62.7707 30.8808 62.7707 34.136C62.7707 37.3913 62.7372 40.0309 62.6945 40.0309C62.6518 40.0309 62.6152 37.3913 62.6152 34.136C62.6152 30.8808 62.6488 28.2412 62.6945 28.2412Z" fill="#263238" />
	<path d="M77.6203 28.2412C77.6629 28.2412 77.6965 30.8808 77.6965 34.136C77.6965 37.3913 77.6629 40.0309 77.6203 40.0309C77.5776 40.0309 77.541 37.3913 77.541 34.136C77.541 30.8808 77.5745 28.2412 77.6203 28.2412Z" fill="#263238" />
	<path d="M92.541 28.2412C92.5868 28.2412 92.6203 30.8808 92.6203 34.136C92.6203 37.3913 92.5868 40.0309 92.541 40.0309C92.4953 40.0309 92.4648 37.3913 92.4648 34.136C92.4648 30.8808 92.4984 28.2412 92.541 28.2412Z" fill="#263238" />
	<path d="M107.468 28.2412C107.514 28.2412 107.547 30.8808 107.547 34.136C107.547 37.3913 107.514 40.0309 107.468 40.0309C107.422 40.0309 107.383 37.3852 107.383 34.1239C107.383 30.8625 107.425 28.2412 107.468 28.2412Z" fill="#263238" />
	<path d="M122.395 28.4455L116.567 22.7183H38.7211L32.7227 28.4455H122.395Z" fill="#25A5B4" />
	<path d="M120.261 28.3665C120.261 28.4092 100.663 28.461 76.495 28.4854C52.3274 28.5098 32.7227 28.4854 32.7227 28.4457C32.7227 28.4061 52.3152 28.3482 76.495 28.3269C100.675 28.3055 120.261 28.3208 120.261 28.3665Z" fill="#263238" />
	<path d="M57.0755 79.7007H47.3341C46.7634 79.7007 46.3008 80.1633 46.3008 80.734V81.0814C46.3008 81.6521 46.7634 82.1147 47.3341 82.1147H57.0755C57.6461 82.1147 58.1087 81.6521 58.1087 81.0814V80.734C58.1087 80.1633 57.6461 79.7007 57.0755 79.7007Z" fill="#E0E0E0" />
	<path d="M71.4172 79.5391H67.7657C67.195 79.5391 66.7324 80.0017 66.7324 80.5723V80.7369C66.7324 81.3076 67.195 81.7702 67.7657 81.7702H71.4172C71.9879 81.7702 72.4505 81.3076 72.4505 80.7369V80.5723C72.4505 80.0017 71.9879 79.5391 71.4172 79.5391Z" fill="#25A5B4" />
	<path d="M57.0755 119.398H47.3341C46.7634 119.398 46.3008 119.861 46.3008 120.431V120.779C46.3008 121.349 46.7634 121.812 47.3341 121.812H57.0755C57.6461 121.812 58.1087 121.349 58.1087 120.779V120.431C58.1087 119.861 57.6461 119.398 57.0755 119.398Z" fill="#E0E0E0" />
	<path d="M70.4402 119.398H66.3223C65.7517 119.398 65.2891 119.861 65.2891 120.431V120.779C65.2891 121.349 65.7517 121.812 66.3223 121.812H70.4402C71.0108 121.812 71.4735 121.349 71.4735 120.779V120.431C71.4735 119.861 71.0108 119.398 70.4402 119.398Z" fill="#25A5B4" />
	<path d="M95.9387 80.0483H86.1973C85.6267 80.0483 85.1641 80.5109 85.1641 81.0816V81.4291C85.1641 81.9997 85.6267 82.4624 86.1973 82.4624H95.9387C96.5094 82.4624 96.972 81.9997 96.972 81.4291V81.0816C96.972 80.5109 96.5094 80.0483 95.9387 80.0483Z" fill="#E0E0E0" />
	<path d="M109.343 80.0483H105.225C104.654 80.0483 104.191 80.5109 104.191 81.0816V81.4291C104.191 81.9997 104.654 82.4624 105.225 82.4624H109.343C109.913 82.4624 110.376 81.9997 110.376 81.4291V81.0816C110.376 80.5109 109.913 80.0483 109.343 80.0483Z" fill="#25A5B4" />
	<path d="M96.0716 119.749H86.3301C85.7595 119.749 85.2969 120.211 85.2969 120.782V121.129C85.2969 121.7 85.7595 122.163 86.3301 122.163H96.0716C96.6422 122.163 97.1048 121.7 97.1048 121.129V120.782C97.1048 120.211 96.6422 119.749 96.0716 119.749Z" fill="#E0E0E0" />
	<path d="M109.477 119.749H105.359C104.789 119.749 104.326 120.211 104.326 120.782V121.129C104.326 121.7 104.789 122.163 105.359 122.163H109.477C110.048 122.163 110.511 121.7 110.511 121.129V120.782C110.511 120.211 110.048 119.749 109.477 119.749Z" fill="#25A5B4" />
	<path d="M68.4429 48.4346H47.7775C45.8164 48.4346 44.2266 50.0244 44.2266 51.9855V72.6509C44.2266 74.612 45.8164 76.2019 47.7775 76.2019H68.4429C70.404 76.2019 71.9938 74.612 71.9938 72.6509V51.9855C71.9938 50.0244 70.404 48.4346 68.4429 48.4346Z" fill="#FAFAFA" />
	<path d="M68.4443 76.2047C68.4443 76.2047 68.5357 76.2047 68.7125 76.1834C68.9757 76.1568 69.2359 76.1058 69.4897 76.031C69.8982 75.8948 70.2798 75.6885 70.6175 75.4214C71.0772 75.0573 71.4395 74.585 71.6721 74.0467C71.8075 73.7256 71.8968 73.387 71.9373 73.0409C71.9678 72.6782 71.9556 72.2911 71.9556 71.8857C71.9556 71.078 71.9556 70.2002 71.9556 69.2583C71.9556 67.3716 71.9556 65.2228 71.9556 62.8575C71.9556 60.4923 71.9556 57.8832 71.9556 55.0912C71.9556 54.3922 71.9556 53.681 71.9556 52.9576C71.9556 52.2383 72.0196 51.4946 71.7453 50.8088C71.4931 50.1073 71.0232 49.505 70.4041 49.0897C69.7615 48.6715 69.0028 48.4676 68.237 48.5075H47.8154C46.9303 48.5083 46.0787 48.8468 45.4347 49.4541C44.7907 50.0613 44.4026 50.8914 44.3498 51.775C44.3285 53.5306 44.3498 55.2741 44.3498 56.981C44.3498 60.3978 44.3498 63.6866 44.3498 66.8352C44.3498 68.4059 44.3498 69.935 44.3498 71.4224C44.3498 71.7943 44.3498 72.1631 44.3498 72.5319C44.3433 72.889 44.3885 73.2453 44.484 73.5895C44.6721 74.2662 45.0611 74.8698 45.5995 75.3208C46.1176 75.7591 46.754 76.0338 47.4283 76.1102C47.7579 76.1351 48.0885 76.1433 48.4189 76.1346H53.1281L64.3782 76.162H67.4262L64.3782 76.1773L53.1281 76.2017H49.4034H48.4189C48.0897 76.2017 47.7575 76.2017 47.4131 76.1773C47.0694 76.1343 46.7331 76.0451 46.4133 75.9121C46.0908 75.7695 45.7885 75.585 45.5142 75.3635C44.9569 74.8941 44.5525 74.2689 44.3529 73.5682C44.254 73.2121 44.2077 72.8434 44.2157 72.474C44.2157 72.1052 44.2157 71.7363 44.2157 71.3645C44.2157 69.8771 44.2157 68.348 44.2157 66.7773C44.2157 63.6378 44.2157 60.3399 44.2157 56.9231C44.2157 55.2131 44.2157 53.4819 44.2157 51.7079C44.2841 50.8055 44.6877 49.9614 45.3471 49.3415C46.0065 48.7216 46.8739 48.3708 47.7788 48.3582H68.2004C68.9949 48.3185 69.7814 48.532 70.4468 48.9678C71.0889 49.4016 71.5767 50.0281 71.8398 50.757C71.9685 51.1111 72.0395 51.4837 72.0501 51.8603C72.0501 52.2291 72.0501 52.5888 72.0501 52.9515V55.0851C72.0501 57.8771 72.0501 60.477 72.0501 62.8514C72.0501 65.2258 72.0501 67.3747 72.0501 69.2522C72.0501 70.1941 72.0501 71.081 72.0501 71.8796C72.0501 72.285 72.0501 72.6721 72.0226 73.0439C71.9787 73.3953 71.8864 73.7389 71.7483 74.065C71.5068 74.609 71.1352 75.0853 70.6663 75.4519C70.322 75.721 69.9331 75.9274 69.5172 76.0615C69.2615 76.1342 68.999 76.1802 68.7338 76.1986L68.4443 76.2047Z" fill="#25A5B4" />
	<path d="M69.1913 61.5316C69.1913 61.5316 66.3231 55.7221 65.8842 55.2802C65.5667 55.0184 65.2137 54.8029 64.8357 54.6401C64.6219 54.5299 64.4009 54.4342 64.1743 54.3536L64.1286 54.3353C62.8911 53.8781 60.9526 53.4209 60.9526 53.4209C60.9526 53.4209 60.4588 55.1034 58.1088 55.2253C55.7618 55.1034 55.268 53.4209 55.268 53.4209C55.268 53.4209 53.3265 53.8903 52.092 54.3353L52.0433 54.3536C51.8176 54.4341 51.5976 54.5298 51.3849 54.6401C51.0062 54.8014 50.653 55.017 50.3364 55.2802C49.8944 55.7221 47.0293 61.5316 47.0293 61.5316L51.2203 63.6287L52.4944 60.73L52.2139 71.2182H64.1011L63.7445 60.7178L65.0186 63.6165L69.1913 61.5316Z" fill="#25A5B4" />
	<path d="M52.4946 63.3302C52.4608 63.0113 52.4507 62.6904 52.4641 62.3701C52.4641 61.7605 52.4641 60.9436 52.4885 60.0079V60.0384L52.3209 59.6238C51.9368 58.6546 51.5955 57.7767 51.3547 57.1397C51.2358 56.8197 51.1413 56.5606 51.0803 56.3777C51.0418 56.2868 51.0141 56.1917 50.998 56.0942C51.0559 56.1747 51.102 56.263 51.1352 56.3564C51.2175 56.5301 51.3272 56.7831 51.4583 57.097C51.7235 57.7249 52.0679 58.5966 52.4672 59.5629C52.522 59.7061 52.58 59.8463 52.6318 59.9804V59.9957C52.6104 60.9314 52.583 61.7605 52.5556 62.3579C52.561 62.6831 52.5406 63.0082 52.4946 63.3302Z" fill="#263238" />
	<path d="M63.699 63.3299C63.652 63.013 63.6286 62.6931 63.6289 62.3728C63.6015 61.7632 63.5741 60.9463 63.5527 60.0106V59.9954C63.6046 59.8613 63.6594 59.721 63.7173 59.5778C64.1014 58.6116 64.458 57.749 64.7262 57.112C64.8573 56.8072 64.967 56.545 65.0463 56.3713C65.1255 56.1976 65.1743 56.1031 65.1865 56.1092C65.1704 56.2066 65.1428 56.3017 65.1042 56.3926C65.0432 56.5755 64.9487 56.8346 64.8268 57.1546C64.5891 57.7917 64.2477 58.6786 63.8636 59.6387L63.696 60.0533V60.0228C63.7143 60.9585 63.7204 61.7876 63.7204 62.385C63.7373 62.7 63.7302 63.0159 63.699 63.3299Z" fill="#263238" />
	<path d="M61.3792 62.3182C61.3792 62.3182 61.498 62.3182 61.6992 62.2542C61.9449 62.1877 62.1675 62.0546 62.3423 61.8696C62.5171 61.6845 62.6374 61.4548 62.6898 61.2057C62.7174 60.9598 62.7246 60.7121 62.7111 60.465C62.7111 59.9255 62.7111 59.3281 62.7111 58.688L62.7873 58.7612H59.4742L59.5504 58.685C59.5504 59.3891 59.5504 60.0505 59.5504 60.6479C59.5504 60.7972 59.5504 60.9527 59.5504 61.0746C59.5693 61.2541 59.6248 61.4278 59.7134 61.5851C59.8019 61.7423 59.9218 61.8798 60.0655 61.989C60.3346 62.1967 60.6675 62.3045 61.0073 62.2938C61.1328 62.2896 61.2583 62.2978 61.3822 62.3182C61.2586 62.3409 61.1329 62.3501 61.0073 62.3456C60.6525 62.381 60.297 62.2856 60.0076 62.0774C59.8034 61.9298 59.6415 61.7311 59.5382 61.5013C59.481 61.3713 59.4431 61.2338 59.4254 61.0929C59.4102 60.9435 59.4254 60.7881 59.4102 60.6509C59.4102 60.0413 59.4102 59.3921 59.4102 58.688V58.6118H62.8513V58.688C62.8513 59.3281 62.8513 59.9255 62.8513 60.465C62.8616 60.7197 62.8483 60.9748 62.8117 61.227C62.7601 61.4516 62.6556 61.6606 62.5069 61.8366C62.3055 62.0824 62.0257 62.2513 61.7144 62.3151C61.6334 62.3331 61.5505 62.3413 61.4676 62.3395C61.4096 62.3273 61.3792 62.3243 61.3792 62.3182Z" fill="#263238" />
	<path d="M68.4429 87.772H47.7775C45.8164 87.772 44.2266 89.3618 44.2266 91.3229V111.988C44.2266 113.949 45.8164 115.539 47.7775 115.539H68.4429C70.404 115.539 71.9938 113.949 71.9938 111.988V91.3229C71.9938 89.3618 70.404 87.772 68.4429 87.772Z" fill="#FAFAFA" />
	<path d="M68.4458 115.542C68.4458 115.542 68.5372 115.542 68.714 115.518C68.9774 115.494 69.2378 115.444 69.4912 115.369C69.8997 115.232 70.2814 115.026 70.619 114.759C71.0787 114.395 71.441 113.923 71.6736 113.384C71.809 113.063 71.8983 112.725 71.9388 112.379C71.9693 112.016 71.9571 111.629 71.9571 111.223C71.9571 110.416 71.9571 109.538 71.9571 108.596C71.9571 106.709 71.9571 104.56 71.9571 102.195C71.9571 99.8299 71.9571 97.2208 71.9571 94.4289C71.9571 93.7319 71.9571 93.0207 71.9571 92.2953C71.9571 91.5759 72.0211 90.8322 71.7468 90.1617C71.4946 89.4602 71.0247 88.8579 70.4056 88.4426C69.763 88.0244 69.0043 87.8205 68.2385 87.8604H47.8169C46.9318 87.8612 46.0803 88.1997 45.4362 88.807C44.7922 89.4142 44.4041 90.2443 44.3513 91.1279C44.33 92.8805 44.3513 94.627 44.3513 96.3339C44.3513 99.7507 44.3513 103.039 44.3513 106.188C44.3513 107.759 44.3513 109.288 44.3513 110.775C44.3513 111.147 44.3513 111.516 44.3513 111.885C44.3448 112.242 44.39 112.598 44.4855 112.942C44.6745 113.619 45.0633 114.222 45.601 114.674C46.1191 115.112 46.7555 115.387 47.4298 115.463C47.7594 115.488 48.09 115.496 48.4204 115.488H53.1296L64.3798 115.515L53.1296 115.539H48.3625C48.0333 115.539 47.7011 115.539 47.3567 115.515C47.013 115.472 46.6767 115.383 46.3569 115.25C46.0344 115.107 45.7321 114.923 45.4578 114.701C44.9097 114.251 44.5041 113.652 44.2904 112.976C44.1915 112.62 44.1452 112.251 44.1532 111.882C44.1532 111.513 44.1532 111.144 44.1532 110.772C44.1532 109.285 44.1532 107.756 44.1532 106.185C44.1532 103.046 44.1532 99.7476 44.1532 96.3308C44.1532 94.6209 44.1532 92.8866 44.1532 91.1157C44.2069 90.192 44.6119 89.3238 45.2852 88.689C45.9584 88.0543 46.849 87.7012 47.7742 87.7019H68.1958C68.9903 87.6623 69.7768 87.8757 70.4422 88.3115C71.0843 88.7453 71.5721 89.3718 71.8352 90.1007C71.9641 90.4548 72.0351 90.8274 72.0455 91.2041C72.0455 91.5729 72.0455 91.9326 72.0455 92.2953V94.4289C72.0455 97.2208 72.0455 99.8208 72.0455 102.195C72.0455 104.57 72.0455 106.718 72.0455 108.596C72.0455 109.538 72.0455 110.425 72.0455 111.223C72.0455 111.629 72.0455 112.016 72.018 112.388C71.9745 112.738 71.8822 113.081 71.7437 113.406C71.5029 113.951 71.1313 114.428 70.6617 114.796C70.3174 115.065 69.9285 115.271 69.5126 115.405C69.2569 115.478 68.9944 115.524 68.7292 115.542H68.4458Z" fill="#E0E0E0" />
	<path d="M60.9534 92.7461C60.9534 92.7461 62.8919 93.2155 64.1294 93.6605L64.1752 93.6787C64.4018 93.7594 64.6228 93.8551 64.8366 93.9653C65.2145 94.1281 65.5675 94.3436 65.8851 94.6053C66.324 95.0473 69.1922 100.857 69.1922 100.857L64.9981 102.954L63.724 100.055L64.0807 110.556H52.2148L52.5044 100.055L51.2303 102.954L47.0332 100.869C47.0332 100.869 49.8983 95.0595 50.3403 94.6175C50.6569 94.3544 51.0101 94.1388 51.3888 93.9775C51.6015 93.8672 51.8215 93.7715 52.0472 93.6909L52.0959 93.6727C53.3304 93.2155 55.2719 92.7583 55.2719 92.7583L55.6042 91.6274L58.009 93.2307L60.7004 91.6274L60.9534 92.7461Z" fill="#E0E0E0" />
	<path d="M52.4946 102.667C52.4608 102.348 52.4507 102.027 52.4641 101.707C52.4641 101.098 52.4641 100.281 52.4885 99.3449V99.3754L52.3209 98.9578C51.9368 97.9916 51.5955 97.1138 51.3547 96.4767C51.2358 96.1567 51.1413 95.8976 51.0803 95.7147C51.0411 95.623 51.0134 95.5268 50.998 95.4282C51.0545 95.5107 51.1005 95.5997 51.1352 95.6934C51.2175 95.8671 51.3272 96.1201 51.4583 96.4341C51.7235 97.062 52.0679 97.9337 52.4672 98.8999C52.522 99.0432 52.58 99.1834 52.6318 99.3175V99.3327V99.348C52.6104 100.284 52.583 101.113 52.5556 101.71C52.5602 102.03 52.5398 102.35 52.4946 102.667Z" fill="#263238" />
	<path d="M63.8149 102.753C63.7549 102.429 63.7193 102.1 63.7082 101.771C63.6625 101.162 63.6076 100.308 63.5527 99.351V99.3327V99.3175L63.699 98.9426C64.0892 97.9642 64.4519 97.0833 64.7201 96.4463C64.8542 96.1415 64.964 95.8732 65.0463 95.6964C65.0791 95.6004 65.1264 95.51 65.1865 95.4282C65.1719 95.5332 65.1432 95.6357 65.1011 95.733C65.0402 95.9129 64.9426 96.178 64.8237 96.5011C64.5799 97.1473 64.2355 98.0251 63.8453 99.0127L63.696 99.3876V99.354C63.7448 100.311 63.7813 101.165 63.8027 101.792C63.8306 102.112 63.8346 102.433 63.8149 102.753Z" fill="#263238" />
	<path d="M61.3792 101.656C61.3792 101.656 61.498 101.656 61.6992 101.592C61.9449 101.525 62.1675 101.392 62.3423 101.207C62.5171 101.022 62.6374 100.792 62.6898 100.543C62.7174 100.297 62.7246 100.049 62.7111 99.8024C62.7111 99.2629 62.7111 98.6655 62.7111 98.0254L62.7873 98.0986H59.4742L59.5504 98.0224C59.5504 98.7265 59.5504 99.3879 59.5504 99.9853C59.5504 100.135 59.5504 100.29 59.5504 100.412C59.5693 100.591 59.6248 100.765 59.7134 100.922C59.8019 101.08 59.9218 101.217 60.0655 101.326C60.3346 101.534 60.6675 101.642 61.0073 101.631C61.1328 101.627 61.2583 101.635 61.3822 101.656C61.2586 101.678 61.1329 101.687 61.0073 101.683C60.6525 101.718 60.297 101.623 60.0076 101.415C59.8034 101.267 59.6415 101.069 59.5382 100.839C59.481 100.709 59.4431 100.571 59.4254 100.43C59.4102 100.281 59.4254 100.125 59.4102 99.9883C59.4102 99.3787 59.4102 98.7295 59.4102 98.0254V97.9492H62.8513V98.0407C62.8513 98.6807 62.8513 99.2781 62.8513 99.8176C62.8616 100.072 62.8483 100.327 62.8117 100.58C62.7594 100.804 62.655 101.013 62.5069 101.189C62.3055 101.435 62.0257 101.604 61.7144 101.668C61.6334 101.686 61.5505 101.694 61.4676 101.692C61.4096 101.665 61.3792 101.662 61.3792 101.656Z" fill="#263238" />
	<path d="M51.6864 101.905C50.9651 101.623 50.2644 101.291 49.5894 100.912C48.8891 100.58 48.2119 100.201 47.5625 99.7778C48.2847 100.06 48.9864 100.392 49.6626 100.771C50.361 101.105 51.0371 101.484 51.6864 101.905Z" fill="#263238" />
	<path d="M107.63 48.8672H86.965C85.0039 48.8672 83.4141 50.457 83.4141 52.4181V73.0835C83.4141 75.0447 85.0039 76.6345 86.965 76.6345H107.63C109.592 76.6345 111.181 75.0447 111.181 73.0835V52.4181C111.181 50.457 109.592 48.8672 107.63 48.8672Z" fill="#FAFAFA" />
	<path d="M107.631 76.6347L107.902 76.6133C108.165 76.5897 108.424 76.5386 108.676 76.4609C109.085 76.3267 109.467 76.1202 109.804 75.8513C110.265 75.4879 110.628 75.0155 110.862 74.4767C110.994 74.1559 111.082 73.8185 111.124 73.4739C111.157 73.1112 111.142 72.7241 111.145 72.3187C111.145 71.511 111.145 70.6332 111.145 69.6913C111.145 67.8016 111.145 65.6558 111.145 63.2905C111.145 60.9253 111.145 58.3131 111.145 55.5212C111.145 54.8222 111.145 54.111 111.145 53.3876C111.145 52.6652 111.206 51.9245 110.935 51.254C110.682 50.5518 110.211 49.9492 109.591 49.5349C108.949 49.1149 108.189 48.9109 107.423 48.9527H87.0018C86.1172 48.9527 85.2661 49.2907 84.6225 49.8975C83.9788 50.5043 83.5913 51.3341 83.5393 52.2171C83.5179 53.9728 83.5393 55.7193 83.5393 57.4262C83.5393 60.843 83.5393 64.1318 83.5393 67.2804C83.5393 68.8511 83.5393 70.3802 83.5393 71.8676V72.974C83.5319 73.332 83.5761 73.6893 83.6703 74.0347C83.8618 74.709 84.2503 75.3108 84.7859 75.7629C85.0482 75.9802 85.3396 76.1597 85.6515 76.2963C85.9591 76.4262 86.2833 76.5124 86.6147 76.5524C86.9452 76.5783 87.2769 76.5875 87.6083 76.5798H88.5898H92.3175L103.565 76.6042L106.613 76.6194L103.565 76.6347L92.3175 76.6621H87.5504C87.2213 76.6621 86.886 76.6621 86.5415 76.6347C86.1978 76.5938 85.8614 76.5056 85.5418 76.3725C85.2192 76.2307 84.9176 76.045 84.6457 75.8208C84.0872 75.3538 83.6825 74.7292 83.4844 74.0286C83.3858 73.6714 83.3386 73.3019 83.3442 72.9313V71.8249C83.3442 70.3375 83.3442 68.8084 83.3442 67.2377C83.3442 64.0952 83.3442 60.8003 83.3442 57.3835C83.3442 55.6736 83.3442 53.9393 83.3442 52.1653C83.4082 51.2491 83.8171 50.3913 84.4885 49.7646C85.1598 49.1379 86.0438 48.789 86.9622 48.7881H107.384C108.178 48.7495 108.964 48.9629 109.63 49.3977C110.28 49.8302 110.775 50.4593 111.041 51.193C111.173 51.5465 111.244 51.9194 111.252 52.2964C111.252 52.6682 111.252 53.0279 111.252 53.3906C111.252 54.1099 111.252 54.8201 111.252 55.5242C111.252 58.3162 111.252 60.9192 111.252 63.2936C111.252 65.668 111.252 67.8138 111.252 69.6944C111.252 70.6362 111.252 71.5232 111.252 72.3217C111.252 72.7271 111.252 73.1112 111.224 73.483C111.181 73.8346 111.089 74.1783 110.95 74.5041C110.711 75.0497 110.339 75.5265 109.868 75.891C109.526 76.1617 109.138 76.3682 108.722 76.5006C108.466 76.5761 108.202 76.6222 107.935 76.6377C107.722 76.6377 107.631 76.6347 107.631 76.6347Z" fill="#E0E0E0" />
	<path d="M100.086 53.8447C100.086 53.8447 102.024 54.3141 103.262 54.7591L103.308 54.7774C103.534 54.858 103.755 54.9537 103.969 55.0639C104.348 55.2244 104.701 55.4401 105.018 55.704C105.456 56.1429 108.325 61.9554 108.325 61.9554L104.131 64.0524L102.856 61.1599L103.213 71.6633H91.3259L91.6155 61.1599L90.3414 64.0616L86.1504 61.9646C86.1504 61.9646 89.0155 56.152 89.4575 55.7131C89.7725 55.4479 90.1261 55.2321 90.506 55.073C90.7187 54.9628 90.9387 54.8671 91.1644 54.7865L91.2284 54.7591C92.4628 54.3019 94.4044 53.8447 94.4044 53.8447L94.3587 51.833H100.031L100.086 53.8447Z" fill="#455A64" />
	<path d="M94.2331 71.401L86.5126 66.6004C85.975 66.2103 85.5916 65.6437 85.4294 64.9996C85.2673 64.3555 85.3367 63.675 85.6256 63.0769L86.162 61.9644L90.353 64.0614L96.1442 68.3956L94.2331 71.401Z" fill="#455A64" />
	<path d="M88.8484 63.1836C88.8858 63.1956 88.9216 63.2119 88.9551 63.2324L89.2599 63.3909L90.3846 64.0218C91.6709 64.9636 93.7709 66.5212 96.1758 68.3317L96.2337 68.3743L96.1971 68.4353L95.5875 69.4076C95.1395 70.1117 94.7067 70.7945 94.2952 71.4376L94.2556 71.5016L94.1916 71.462L89.5129 68.5206L88.1535 67.6489L87.7908 67.4081C87.7483 67.3827 87.7084 67.3531 87.6719 67.3197C87.6719 67.3197 87.7206 67.338 87.806 67.3868L88.1809 67.6032L89.5647 68.4383L94.2769 71.3339L94.1733 71.3583C94.5817 70.7152 95.0145 70.0294 95.4626 69.3284L96.0722 68.353L96.0935 68.4597C93.6764 66.6309 91.5916 65.0673 90.3267 64.0949L89.2233 63.4305L88.9368 63.2476C88.9044 63.2306 88.8746 63.2091 88.8484 63.1836Z" fill="#263238" />
	<path d="M100.196 71.3095L107.917 66.5089C108.454 66.119 108.837 65.553 108.999 64.9096C109.161 64.2661 109.092 63.5862 108.804 62.9885L108.267 61.876L104.076 63.973L98.2852 68.3103L100.196 71.3095Z" fill="#455A64" />
	<path d="M105.582 63.0923C105.554 63.1198 105.522 63.1434 105.488 63.1624L105.201 63.3422L104.098 64.0097C102.833 64.979 100.745 66.5579 98.3311 68.3714L98.3494 68.2678L98.959 69.2401L100.248 71.2731L100.145 71.2487L104.851 68.3531L106.235 67.521L106.61 67.3016C106.651 67.2738 106.696 67.2513 106.744 67.2345C106.707 67.27 106.666 67.3007 106.622 67.326L106.262 67.5637L104.903 68.4354L100.224 71.3768L100.16 71.4164L100.12 71.3524L98.8493 69.3224C98.639 68.9871 98.4287 68.6579 98.2397 68.347L98.2031 68.2861L98.261 68.2434C100.681 66.4329 102.781 64.8754 104.067 63.9366L105.192 63.3056L105.497 63.1441C105.523 63.1235 105.552 63.1062 105.582 63.0923Z" fill="#263238" />
	<path d="M95.3699 54.0552C95.292 53.696 95.2653 53.3276 95.2906 52.9609C95.2651 52.5943 95.2918 52.2258 95.3699 51.8667C95.448 52.2258 95.4747 52.5943 95.4491 52.9609C95.4744 53.3276 95.4477 53.696 95.3699 54.0552Z" fill="#263238" />
	<path d="M96.6023 54.0552C96.5244 53.696 96.4978 53.3276 96.5231 52.9609C96.4975 52.5943 96.5242 52.2258 96.6023 51.8667C96.6804 52.2258 96.7071 52.5943 96.6816 52.9609C96.7069 53.3276 96.6802 53.696 96.6023 54.0552Z" fill="#263238" />
	<path d="M97.7272 54.0303C97.6493 53.6711 97.6226 53.3027 97.6479 52.936C97.6226 52.5694 97.6493 52.201 97.7272 51.8418C97.805 52.201 97.8317 52.5694 97.8064 52.936C97.8317 53.3027 97.805 53.6711 97.7272 54.0303Z" fill="#263238" />
	<path d="M98.9713 54.0303C98.8934 53.6711 98.8668 53.3027 98.8921 52.936C98.8668 52.5694 98.8934 52.201 98.9713 51.8418C99.0492 52.201 99.0758 52.5694 99.0506 52.936C99.0758 53.3027 99.0492 53.6711 98.9713 54.0303Z" fill="#263238" />
	<path d="M102.954 63.1834H91.7678L91.6367 60.3335H102.762L102.954 63.1834Z" fill="#E0E0E0" />
	<path d="M91.5665 63.6561C91.5301 63.3334 91.5189 63.0083 91.5329 62.6838C91.5329 62.0895 91.5329 61.2573 91.5573 60.3247V60.3551C91.5116 60.2393 91.4659 60.1174 91.4171 59.9955C91.0422 59.0415 90.71 58.1667 90.4783 57.5571C90.3625 57.2523 90.2711 56.9871 90.2101 56.8103C90.1713 56.7197 90.1447 56.6244 90.1309 56.5269C90.1874 56.607 90.2335 56.6941 90.268 56.7859C90.3442 56.9597 90.4509 57.2066 90.5728 57.5175C90.8319 58.1271 91.1824 58.9957 91.5543 59.9559C91.6 60.0778 91.6488 60.1997 91.6945 60.3155V60.3308V60.346C91.6731 61.2787 91.6457 62.1077 91.6183 62.7052C91.6255 63.023 91.6082 63.3409 91.5665 63.6561Z" fill="#263238" />
	<path d="M102.945 63.7599C102.885 63.4452 102.85 63.1261 102.841 62.8059C102.792 62.1963 102.737 61.3794 102.686 60.4437V60.4284V60.4101C102.737 60.2791 102.792 60.1389 102.85 59.9986C103.234 59.0294 103.591 58.1698 103.856 57.5298C103.99 57.225 104.1 56.9628 104.179 56.7891C104.214 56.6954 104.26 56.6064 104.316 56.5239C104.305 56.623 104.278 56.7197 104.237 56.8104C104.176 56.9903 104.082 57.2524 103.96 57.5694C103.722 58.2095 103.38 59.0934 102.993 60.0566C102.939 60.1968 102.884 60.337 102.829 60.468V60.4376C102.878 61.3733 102.914 62.2024 102.932 62.7998C102.962 63.119 102.966 63.44 102.945 63.7599Z" fill="#263238" />
	<path d="M94.7674 70.6328C94.0502 70.2672 93.3832 69.8102 92.7832 69.2734C93.154 69.4301 93.5024 69.6351 93.8195 69.883C94.167 70.0904 94.4857 70.3425 94.7674 70.6328Z" fill="#263238" />
	<path d="M95.4772 69.6055C95.1573 69.3868 94.8519 69.1475 94.5628 68.8893C94.2431 68.6735 93.9377 68.4373 93.6484 68.1821C94.379 68.4766 95.0125 68.9697 95.4772 69.6055Z" fill="#263238" />
	<path d="M100.483 68.1914C99.966 68.604 99.3853 68.9293 98.7637 69.1546C99.0071 68.9306 99.2837 68.7455 99.5836 68.6059C99.8605 68.4229 100.164 68.2831 100.483 68.1914Z" fill="#263238" />
	<path d="M101.35 69.2461C101.12 69.479 100.855 69.6744 100.564 69.8252C100.301 70.0209 100.007 70.1722 99.6953 70.2733C99.9256 70.0404 100.191 69.845 100.482 69.6942C100.745 69.4985 101.038 69.3471 101.35 69.2461Z" fill="#263238" />
	<path d="M60.8502 92.8587C60.6711 93.0559 60.4764 93.2384 60.268 93.4043C59.8931 93.7335 59.3536 94.1938 58.7257 94.7302L58.6556 94.7881L58.613 94.7058L57.9241 93.3739H58.0674V93.3891L57.5492 94.7058L57.5096 94.8064L57.4334 94.7363C56.7933 94.1694 56.2477 93.6787 55.8637 93.3251C55.6529 93.1487 55.4562 92.9561 55.2754 92.749C55.5036 92.9031 55.7205 93.0732 55.9246 93.258C56.3239 93.5903 56.8817 94.0658 57.5309 94.6235L57.412 94.654L57.9211 93.3342V93.3159L57.9851 93.1514L58.0643 93.3068L58.744 94.6449L58.6312 94.6235C59.2713 94.0962 59.82 93.6512 60.2101 93.3403C60.4106 93.1634 60.6246 93.0024 60.8502 92.8587Z" fill="#263238" />
	<path d="M58.1135 110.483C58.0998 110.42 58.0936 110.355 58.0953 110.291C58.0953 110.147 58.0953 109.961 58.0953 109.736C58.0953 109.233 58.0953 108.541 58.0709 107.694C58.0709 105.953 58.0709 103.582 58.0495 100.964C58.0495 98.8605 58.0495 96.919 58.0495 95.3431H58.1745C58.1745 95.7059 58.1745 96.0411 58.1745 96.3581H58.0617C58.0617 95.4803 58.08 94.764 58.0861 94.2459C58.0861 94.0081 58.0861 93.8191 58.0861 93.6698C58.0843 93.6033 58.0904 93.5368 58.1044 93.4717C58.1141 93.5373 58.1192 93.6035 58.1196 93.6698C58.1196 93.8191 58.1196 94.0081 58.1196 94.2459C58.1196 94.764 58.1349 95.4803 58.144 96.3581H58.0312C58.0312 96.0533 58.0312 95.7059 58.0312 95.3431H58.1562C58.1562 96.919 58.1562 98.8605 58.1562 100.964C58.1562 103.582 58.1562 105.953 58.1349 107.694C58.1349 108.541 58.1166 109.233 58.1105 109.736C58.1105 109.961 58.1105 110.147 58.1105 110.291C58.116 110.354 58.117 110.419 58.1135 110.483Z" fill="#263238" />
	<path d="M68.5978 99.5125C68.4339 99.6703 68.2505 99.8065 68.0522 99.9179C67.7047 100.147 67.2079 100.445 66.644 100.741C66.0801 101.037 65.5528 101.274 65.1657 101.43C64.9635 101.531 64.748 101.604 64.5257 101.646C64.5074 101.603 65.4401 101.192 66.5709 100.601C67.7017 100.009 68.5704 99.4759 68.5978 99.5125Z" fill="#263238" />
	<path d="M107.593 87.5889H86.9279C84.9668 87.5889 83.377 89.1787 83.377 91.1398V111.805C83.377 113.766 84.9668 115.356 86.9279 115.356H107.593C109.554 115.356 111.144 113.766 111.144 111.805V91.1398C111.144 89.1787 109.554 87.5889 107.593 87.5889Z" fill="#FAFAFA" />
	<path d="M107.596 115.356L107.867 115.335C108.13 115.31 108.389 115.259 108.642 115.182C109.05 115.046 109.432 114.84 109.769 114.573C110.23 114.209 110.592 113.737 110.824 113.198C110.959 112.877 111.049 112.538 111.089 112.192C111.12 111.833 111.107 111.443 111.107 111.04C111.107 110.227 111.107 109.351 111.107 108.41C111.107 106.523 111.107 104.374 111.107 102.009C111.107 99.6438 111.107 97.0347 111.107 94.2427V92.1091C111.092 91.3898 111.168 90.6461 110.897 89.9603C110.643 89.26 110.172 88.659 109.553 88.2442C108.911 87.8237 108.152 87.6188 107.386 87.659H86.9642C86.0793 87.6605 85.2282 87.9993 84.5843 88.6064C83.9404 89.2134 83.5521 90.0432 83.4986 90.9265C83.4773 92.6821 83.4986 94.4286 83.4986 96.1325C83.4986 99.5493 83.4986 102.838 83.4986 105.987C83.4986 107.557 83.4986 109.086 83.4986 110.574V111.683C83.4897 112.041 83.5339 112.399 83.6297 112.744C83.82 113.419 84.2087 114.021 84.7453 114.472C85.0085 114.688 85.2997 114.868 85.6109 115.006C85.9189 115.134 86.2429 115.22 86.5741 115.262C86.9002 115.295 87.2355 115.286 87.5677 115.289H88.4852H92.2129L103.46 115.314L106.508 115.329H107.304H107.575C107.575 115.329 107.483 115.329 107.304 115.329H106.508L103.46 115.344L92.2129 115.368L88.4852 115.414H87.5037C87.1745 115.414 86.8392 115.414 86.4948 115.39C86.1515 115.346 85.8154 115.258 85.4951 115.128C85.1678 114.984 84.8604 114.798 84.5807 114.576C84.0231 114.107 83.6195 113.482 83.4224 112.781C83.321 112.425 83.2737 112.056 83.2822 111.686V110.577C83.2822 109.09 83.2822 107.56 83.2822 105.99C83.2822 102.85 83.2822 99.5523 83.2822 96.1355C83.2822 94.4256 83.2822 92.6943 83.2822 90.9204C83.3374 89.9972 83.7428 89.1298 84.4157 88.4954C85.0887 87.861 85.9784 87.5073 86.9032 87.5066H107.325C108.119 87.467 108.906 87.6804 109.571 88.1162C110.215 88.5483 110.703 89.1754 110.964 89.9054C111.096 90.2587 111.167 90.6318 111.174 91.0088C111.174 91.3776 111.174 91.7403 111.174 92.1C111.174 92.8234 111.174 93.5346 111.174 94.2336C111.174 97.0255 111.174 99.6255 111.174 102C111.174 104.374 111.174 106.523 111.174 108.401C111.174 109.346 111.174 110.229 111.174 111.031C111.174 111.433 111.174 111.821 111.147 112.192C111.103 112.544 111.011 112.887 110.873 113.213C110.665 113.685 110.358 114.106 109.973 114.448C109.588 114.791 109.134 115.046 108.642 115.198C108.386 115.27 108.123 115.316 107.858 115.335L107.596 115.356Z" fill="#E0E0E0" />
	<path d="M109.822 106.618C109.822 106.618 105.485 94.8739 105.043 94.4258C104.726 94.1619 104.373 93.9453 103.995 93.7827C103.781 93.6725 103.56 93.5768 103.333 93.4962L103.287 93.4779C102.05 93.0237 100.111 92.5635 100.111 92.5635C100.111 92.5635 99.6176 94.246 97.2676 94.3679C94.9207 94.246 94.4269 92.5635 94.4269 92.5635C94.4269 92.5635 92.4884 93.0359 91.2509 93.4779L91.2052 93.4962C90.9785 93.5768 90.7576 93.6725 90.5437 93.7827C90.165 93.9453 89.8118 94.1619 89.4952 94.4258C89.0533 94.8647 85.0391 106.746 85.0391 106.746L88.4863 107.938L91.6502 99.8695L91.3454 110.37H103.233L102.876 99.8695L106.561 108.258L109.822 106.618Z" fill="#25A5B4" />
	<path d="M103.831 96.8213C103.831 96.867 100.911 96.9006 97.3087 96.9006C93.706 96.9006 90.7891 96.867 90.7891 96.8213C90.7891 96.7756 93.706 96.7451 97.3087 96.7451C100.911 96.7451 103.831 96.7847 103.831 96.8213Z" fill="white" />
	<path d="M102.908 100.857C102.764 100.882 102.616 100.892 102.47 100.888L101.269 100.912C100.257 100.927 98.8576 100.936 97.3062 100.936C95.7548 100.936 94.3618 100.936 93.3438 100.912L92.1459 100.888C91.999 100.892 91.8519 100.882 91.707 100.857C91.8522 100.834 91.999 100.824 92.1459 100.827L93.3438 100.802C94.3557 100.787 95.7548 100.778 97.3062 100.778C98.8576 100.778 100.251 100.778 101.269 100.802L102.47 100.827C102.616 100.824 102.763 100.834 102.908 100.857Z" fill="white" />
	<path d="M102.908 104.679C102.763 104.702 102.616 104.712 102.47 104.709L101.269 104.734C100.257 104.734 98.8576 104.755 97.3062 104.755C95.7548 104.755 94.3618 104.755 93.3438 104.734L92.1459 104.709C91.999 104.712 91.8522 104.702 91.707 104.679C91.8519 104.654 91.999 104.644 92.1459 104.648L93.3438 104.621C94.3557 104.621 95.7548 104.6 97.3062 104.6C98.8576 104.6 100.251 104.6 101.269 104.621L102.47 104.648C102.616 104.644 102.764 104.654 102.908 104.679Z" fill="white" />
	<path d="M102.908 108.498C102.764 108.523 102.616 108.533 102.47 108.529L101.269 108.553C100.257 108.568 98.8576 108.577 97.3062 108.577C95.7548 108.577 94.3618 108.577 93.3438 108.553L92.1459 108.529C91.999 108.533 91.8519 108.523 91.707 108.498C91.8519 108.473 91.999 108.463 92.1459 108.468L93.3438 108.443C94.3557 108.428 95.7548 108.419 97.3062 108.419C98.8576 108.419 100.251 108.419 101.269 108.443L102.47 108.468C102.616 108.463 102.764 108.473 102.908 108.498Z" fill="white" />
	<path d="M91.65 102.482C91.6139 102.163 91.6027 101.842 91.6165 101.521C91.6165 100.927 91.6165 100.095 91.6409 99.1592V99.1897L91.4732 98.7752C91.0892 97.809 90.7478 96.9281 90.5101 96.2911C90.3881 95.971 90.2937 95.712 90.2327 95.5321C90.1942 95.4401 90.1666 95.344 90.1504 95.2456C90.1504 95.2456 90.2114 95.334 90.2906 95.5077C90.3699 95.6815 90.4796 95.9345 90.6106 96.2484C90.8789 96.8763 91.2355 97.748 91.6195 98.7173C91.6774 98.8575 91.7323 98.9977 91.7841 99.1318V99.1471V99.1623C91.7628 100.098 91.7354 100.927 91.7079 101.524C91.7123 101.845 91.693 102.164 91.65 102.482Z" fill="#263238" />
	<path d="M102.854 102.481C102.803 102.165 102.779 101.845 102.781 101.524C102.754 100.915 102.726 100.098 102.705 99.1621V99.1468V99.1316C102.757 98.9975 102.812 98.8573 102.87 98.7171C103.254 97.7478 103.613 96.8883 103.879 96.2482C104.01 95.9434 104.119 95.6813 104.199 95.5075C104.278 95.3338 104.327 95.2393 104.339 95.2454C104.323 95.3438 104.295 95.4399 104.257 95.5319C104.196 95.7117 104.101 95.9708 103.982 96.2909C103.741 96.9279 103.4 97.8149 103.016 98.775L102.848 99.1895V99.159C102.867 100.095 102.876 100.927 102.873 101.521C102.89 101.841 102.884 102.162 102.854 102.481Z" fill="#263238" />
	<path d="M106.953 99.1196C106.383 99.4702 105.787 99.7759 105.17 100.034C104.572 100.34 103.953 100.6 103.316 100.811C103.887 100.46 104.484 100.155 105.103 99.8969C105.698 99.5893 106.316 99.3294 106.953 99.1196Z" fill="white" />
	<path d="M108.255 102.555C107.707 102.886 107.135 103.174 106.542 103.414C105.969 103.703 105.374 103.945 104.762 104.137C105.309 103.805 105.882 103.518 106.475 103.277C107.047 102.988 107.643 102.746 108.255 102.555Z" fill="white" />
	<path d="M91.2292 100.665C90.0488 100.11 88.9153 99.4609 87.8398 98.7231C88.4407 98.9827 89.0205 99.2884 89.5742 99.6375C90.152 99.9358 90.7054 100.279 91.2292 100.665Z" fill="white" />
	<path d="M89.9028 104.301C88.7074 103.871 87.5501 103.34 86.4434 102.716C87.0496 102.908 87.6389 103.149 88.2051 103.439C88.7942 103.678 89.3621 103.967 89.9028 104.301Z" fill="white" />
	<path d="M96.207 98.3456C96.5323 98.2921 96.8621 98.2707 97.1915 98.2815L97.1275 98.3456C97.1275 97.9432 97.1123 97.4311 97.1123 96.8947C97.1123 96.2211 97.1123 95.6145 97.1336 95.1726C97.1246 94.9344 97.144 94.696 97.1915 94.4624C97.235 94.6965 97.2534 94.9346 97.2464 95.1726C97.2464 95.6145 97.2677 96.2211 97.2677 96.8947C97.2677 97.4403 97.2677 97.9432 97.2525 98.3456V98.4096H97.1915C96.8621 98.4193 96.5325 98.3978 96.207 98.3456Z" fill="#263238" />
	<path d="M96.7396 95.9586C96.7402 96.0119 96.7249 96.0641 96.6956 96.1087C96.6664 96.1533 96.6245 96.1881 96.5754 96.2088C96.5263 96.2295 96.4721 96.2351 96.4198 96.2248C96.3675 96.2146 96.3194 96.1889 96.2817 96.1512C96.244 96.1136 96.2184 96.0655 96.2081 96.0132C96.1979 95.9609 96.2034 95.9067 96.2241 95.8575C96.2448 95.8084 96.2797 95.7665 96.3242 95.7373C96.3688 95.7081 96.4211 95.6928 96.4744 95.6934C96.5447 95.6934 96.6122 95.7213 96.6619 95.771C96.7116 95.8208 96.7396 95.8882 96.7396 95.9586Z" fill="#E0E0E0" />
	<path d="M96.7396 97.6076C96.7396 97.6608 96.7238 97.7127 96.6942 97.7569C96.6645 97.8011 96.6225 97.8355 96.5733 97.8557C96.5241 97.8759 96.47 97.881 96.4179 97.8704C96.3658 97.8598 96.318 97.834 96.2806 97.7962C96.2432 97.7583 96.2179 97.7103 96.2079 97.658C96.1979 97.6058 96.2037 97.5518 96.2244 97.5028C96.2452 97.4539 96.2801 97.4122 96.3246 97.3831C96.3691 97.354 96.4212 97.3388 96.4744 97.3394C96.5095 97.3394 96.5442 97.3463 96.5766 97.3598C96.609 97.3734 96.6383 97.3932 96.663 97.4181C96.6877 97.4431 96.7071 97.4727 96.7203 97.5052C96.7334 97.5377 96.74 97.5725 96.7396 97.6076Z" fill="#E0E0E0" />
</svg>
